<?xml version="1.0" encoding="UTF-8"?>
<svg id="Layer_1" xmlns="http://www.w3.org/2000/svg" version="1.1" viewBox="0 0 214.81 199.38">
  <!-- Generator: Adobe Illustrator 29.7.1, SVG Export Plug-In . SVG Version: 2.1.1 Build 8)  -->
  <defs>
    <style>
      .st0 {
        fill: #5a4d6a;
      }
    </style>
  </defs>
  <path class="st0" d="M27.36,193.67c-.81.3-1.64.22-2.47-.22-.83-.44-1.4-1.07-1.7-1.88-.71-1.94.72-3.56,4.29-4.86l-.59-63.32c-2.64-.03-4.27-.93-4.91-2.68-.71-1.94.85-3.61,4.67-5l7.33-2.67c1.13-.2,2.04.36,2.73,1.67.39,1.07.82,2.15,1.29,3.25l42.3,49.84c4.01-1.46,6.38-1.19,7.11.82.3.82.15,1.63-.44,2.45-.59.82-1.32,1.39-2.2,1.71l-9.21,3.35c-3.57,1.3-5.71.98-6.42-.96-.64-1.75.14-3.03,2.33-3.83l-11.75-15.62-27.16,9.88,1.02,18.89c2.2-.38,3.57.16,4.09,1.6.82,2.26-.55,4.03-4.12,5.33l-6.2,2.26ZM32.33,160.04l23.79-8.66-14.26-15.89c-2.86-3.22-5.95-6.85-9.26-10.9.27,1.96.33,4.03.17,6.21l-.45,6.33v22.91Z"/>
  <path class="st0" d="M116.18,62.51c-.21.03-.45.02-.71-.02-.79-.14-1.45-.61-1.98-1.42-.54-.81-.73-1.63-.58-2.49.3-1.71,1.73-2.33,4.29-1.88l5.85-33.19c-.84-.21-1.48-.75-1.9-1.6-.42-.85-.56-1.71-.41-2.56.24-1.38,1.08-2.31,2.53-2.8l8.11-.5c1.88.87,2.67,2.13,2.38,3.77-.23,1.31-1.12,2.51-2.67,3.59.86-1,1.93-1.72,3.24-2.17l3.9-1.34c1.44-.49,3.35-.49,5.71,0,1.44.32,2.49.54,3.15.66,2.9.51,5.47,1.9,7.72,4.15,2.25,2.26,3.63,4.82,4.14,7.69,2.57-2.66,5.48-4.72,8.73-6.18,3.69-1.65,7.14-2.19,10.37-1.62,10.8,1.9,15.23,8.57,13.28,20.01l-4.6,26.1c2.78.76,4.03,1.93,3.75,3.5-.19,1.05-.81,1.79-1.86,2.21-1.06.42-2.11.54-3.16.36l-8.57-1.51c-.99-.17-1.85-.65-2.59-1.42-.74-.77-1.03-1.65-.85-2.64.3-1.71,1.91-2.37,4.82-1.99l4.1-23.24c.58-3.28.79-5.45.63-6.49-.21-1.93-1.23-3.74-3.06-5.41-1.37-1.19-3.05-1.96-5.04-2.31-4.39-.77-7.91.13-10.56,2.71-2.39,2.29-3.98,5.66-4.77,10.13l-3.47,19.7c2.46.23,3.5,1.43,3.12,3.6-.18,1.05-.69,1.81-1.52,2.27-.83.46-1.72.54-2.68.24l-8.67-1.53c-2.43-.43-3.45-1.76-3.05-3.99.3-1.71,1.68-2.41,4.13-2.12l4.1-23.24c1.35-7.68-.99-12.05-7.03-13.12-5.58-.98-9.77.88-12.56,5.6-1.35,2.27-2.43,5.73-3.25,10.39l-2.74,15.56c2.1.37,3.01,1.38,2.72,3.02-.16.92-.62,1.7-1.38,2.35-.76.64-1.56.89-2.42.74l-8.67-1.53Z"/>
  <path class="st0" d="M71.11,58.56c1.09-2.83,2.37-5.99,3.83-9.49,1.47-2.81,2.78-6.51,3.93-11.1.09-.22.21-.69.36-1.4l.12-.41-21.43-26.55c-2.29-.44-3.49-1.3-3.6-2.58-.06-.74.39-1.37,1.36-1.89l6.38-.56c.9-.08,1.77.07,2.61.45.84.38,1.29.99,1.36,1.83.09,1.05-.6,1.78-2.09,2.18l17.38,21.79,11.11-25.51c-.21.11-.37.17-.47.18-1.46.13-2.25-.53-2.37-1.96-.14-1.65,1.14-2.59,3.85-2.83L101.64,0c1.39-.01,2.13.48,2.22,1.49.07.8-.28,1.54-1.05,2.22-.77.68-1.6,1.14-2.49,1.38l-13.75,31.08c-.85,1.9-1.7,3.79-2.55,5.68-1.29,2.95-2.37,5.96-3.22,9.04l-2.04,7.01c1.54-.13,2.36.35,2.46,1.47s-.46,2.13-1.66,3.04c-1,.78-2.12,1.23-3.34,1.34l-7.48.81c-.74.12-1.4-.05-1.97-.51-.58-.46-.89-1.06-.96-1.8-.19-2.12,1.58-3.35,5.3-3.67Z"/>
  <path class="st0" d="M28.86,87.27c-1.58-3.89-2.67-6.08-3.29-6.55-.96-.74-1.95-1.27-2.95-1.59-.68-.25-1.88-.45-3.6-.6l-7.87-.69-1.84,17.05c1.53.23,2.23.97,2.12,2.22-.12,1.39-.95,2.02-2.48,1.89l-6.55-.57c-.65-.06-1.23-.33-1.72-.82-.5-.49-.72-1.03-.67-1.64.09-1.02,1.01-1.64,2.76-1.86,1.06-7.31,1.91-14.59,2.54-21.84.63-7.25,1.06-14.48,1.26-21.67-.79-.07-1.52-.32-2.18-.75-.8-.54-1.16-1.16-1.1-1.85.11-1.21,1.32-1.71,3.65-1.51l21.97,1.92c3.16.28,5.53.81,7.1,1.6,3.6,1.72,5.89,3.58,6.89,5.59,1.95,3.96,2.85,6.81,2.7,8.53-.34,3.86-1.93,7.05-4.77,9.56-1.73,1.54-4.7,3.08-8.91,4.63.31.21.49.32.53.33h.07c-.3-.35-.54-.53-.72-.55h-.07c.04.09.1.17.19.22l7.65,18.59c3.14.51,4.64,1.6,4.49,3.27-.11,1.25-.75,1.83-1.91,1.73l-8.51-.75c-.79-.07-1.54-.36-2.24-.86-.71-.5-1.03-1.1-.97-1.8.08-.88.86-1.39,2.35-1.54l-3.91-9.7ZM11.52,73.59l14.37,1.26c1.72.15,3.95-.66,6.68-2.44,1.34-.87,2.83-2.4,4.48-4.6,1-1.27,1.57-2.7,1.71-4.28.24-2.74-.41-4.93-1.96-6.56-2.79-2.96-5.39-4.55-7.8-4.76l-15.83-1.38-1.64,22.76Z"/>
  <path class="st0" d="M129.37,126.51c-.36.06-.73-.06-1.1-.35-.37-.3-.61-.64-.71-1.03-.17-.64.16-1.2,1-1.67l-9.2-34.34c-1,.27-1.63-.1-1.9-1.1-.22-.8.15-1.45,1.08-1.95l4.19-1.38c.95-.32,1.52-.13,1.71.58.26.97-.04,1.79-.89,2.47l4.33,16.18c.62-1.27,1.53-2.27,2.71-3,.86-.51,2.15-.99,3.86-1.45,3.7-.99,6.5-.34,8.39,1.95,1.03,1.28,1.86,2.88,2.48,4.82l3.27,10.67c.97-.26,1.61.22,1.94,1.45.27,1-.16,1.61-1.27,1.84l-4.27.88c-.77.34-1.29,0-1.57-1.03-.33-1.22-.03-1.91.9-2.05l-3.26-10.62c-1.12-3.53-3.29-4.86-6.51-4-1.48.4-2.9,1.33-4.27,2.8-.94,1.01-.97,3.16-.09,6.44l2.6,9.71c.9-.1,1.46.23,1.67,1,.1.39.08.8-.08,1.24-.16.44-.42.71-.77.8l-4.25,1.14Z"/>
  <path class="st0" d="M177.05,136.76c-.8-.69-1.2-1.57-1.2-2.64,0-1.81,1.23-2.85,3.68-3.12l11.12-15.84-11.84-17.12c-.91-.05-1.81-.27-2.72-.64-1.12-.53-1.68-1.17-1.68-1.92,0-.8.75-1.41,2.24-1.84h7.2c2.51,0,3.76.62,3.76,1.87,0,.81-.64,1.74-1.92,2.77l4.55,6.72c1.23,1.81,2.45,3.75,3.68,5.83,1.62-2.44,2.94-4.35,3.96-5.73l4.21-5.94c-1.76-.16-2.64-.83-2.64-2,0-1.28,1.41-1.92,4.24-1.92h8.4c1.55.32,2.32.96,2.32,1.92,0,1.12-1.41,1.87-4.24,2.24l-12.48,16.16,12.8,18.16c2.88.16,4.32,1.17,4.32,3.04,0,.91-.43,1.55-1.28,1.92h-6.64c-2.88,0-4.32-.83-4.32-2.5,0-1.02.73-1.58,2.2-1.69l-7.51-10.65-2.36-3.46-7.51,11.44c1.48.48,2.22,1.38,2.22,2.71,0,1.49-1.33,2.23-4,2.23h-8.56Z"/>
  <path class="st0" d="M100.28,199.35c-1.79.16-2.74-.3-2.83-1.38-.1-1.16.75-1.82,2.54-1.97l-3.14-35.91c-.65.06-1.28-.06-1.88-.35-.6-.29-.93-.73-.98-1.33-.1-1.12.75-1.76,2.54-1.91l5.26-.46c1.79-.16,2.74.38,2.85,1.62.12,1.32-.72,2.06-2.52,2.21l1.73,19.78,10.55-10.2c-.91-.32-1.39-.7-1.43-1.14-.07-.84.99-1.35,3.18-1.54l5.92-.52c1.08-.01,1.66.38,1.73,1.18.09,1.08-1.23,1.76-3.97,2.04l-8.38,8.1,11.86,17.25c.8-.07,1.55.1,2.27.5.72.4,1.11,1,1.18,1.79.07.76-.26,1.17-.98,1.23l-6.46.56c-2.23.2-3.4-.33-3.51-1.56-.07-.76.43-1.3,1.48-1.63l-9.59-14.69-3.46,3.25.99,11.29c1.46.11,2.23.69,2.32,1.72.08.96-.59,1.5-2.03,1.62l-5.26.46Z"/>
  <path class="st0" d="M169.81,191.79c-.98-.88-1.55-1.57-1.7-2.09-.15-.51-.11-1.43.12-2.74-1.58,3.41-5.83,4.5-12.76,3.27-7.88-1.39-11.94-5.54-12.18-12.46-.07-2.34.27-5.04,1.02-8.11,1.92-7.84,3.82-13.7,5.7-17.6-.65,0-1.13-.42-1.45-1.23-.32-.81-.42-1.56-.29-2.24.22-1.26,1.03-1.88,2.44-1.85l8.51,1.5c.64.33.87,1.07.66,2.23-.35,2-1.23,2.95-2.62,2.87-1.13,1.48-2.46,4.55-3.98,9.21-.09.2-.81,2.46-2.17,6.77-.47,1.11-.79,2.49-.97,4.13l-.32,3.19c-.36,1.72.31,3.44,2,5.15,1.23,1.3,3.25,2.2,6.08,2.7.94.17,1.84.08,2.71-.25,1.98-.84,3.4-1.54,4.25-2.09,1.17-.82,2.24-2.01,3.22-3.57,1.42-2.24,2.38-4.81,2.89-7.7l2.65-15.05c-.5-.09-.9-.52-1.18-1.3-.28-.78-.36-1.49-.25-2.12.19-1.1.88-1.6,2.05-1.51l8.04,1.42c1.14.31,1.58,1.15,1.34,2.51-.12.68-.42,1.28-.88,1.79-.47.51-1.04.68-1.71.51l-4.21,20.21c-1.32,7.46-.91,11.92,1.22,13.37.53.37.76.73.7,1.1-.22,1.26-2.04,1.59-5.45.99-1.16-.2-2.32-.54-3.48-1.02Z"/>
  <path class="st0" d="M74.83,133.8c-.26-.02-.52-.05-.78-.07-.73-.06-1.43-.43-2.11-1.11-.68-.67-.98-1.38-.92-2.12.12-1.38,1.54-1.95,4.25-1.71l3.11-48.42c-.74-.12-1.39-.47-1.96-1.05-.56-.58-.82-1.22-.76-1.91.11-1.22,1.14-1.74,3.11-1.57l7.49.66c1.99.5,2.93,1.35,2.83,2.58-.13,1.54-1.21,2.25-3.24,2.13l-2.99,48.89,22.65,1.98c.46-3.44,1.72-5.07,3.79-4.89,1.11.1,1.85.86,2.2,2.28.91,1.85,1.29,3.57,1.15,5.16-.14,1.65-.85,2.42-2.13,2.3l-35.7-3.12Z"/>
</svg>