<?xml version="1.0" encoding="utf-8"?>
<!-- Generator: Adobe Illustrator 21.0.2, SVG Export Plug-In . SVG Version: 6.00 Build 0)  -->
<svg version="1.1" id="Layer_1" xmlns="http://www.w3.org/2000/svg" xmlns:xlink="http://www.w3.org/1999/xlink" x="0px" y="0px"
	 viewBox="0 0 552 419" style="enable-background:new 0 0 552 419;" xml:space="preserve">
<style type="text/css">
	.st0{stroke:#000000;stroke-miterlimit:10;}
</style>
<path class="st0" d="M183.6,414.2c-32.8-5.4-20.7-42.9-36.6-62c-19.5-23.3-63.6-23.1-91.4-27.4c-54.9-8.4-80.7-22.7-20.2-47.8
	c72-29.9,138.8-54.5,199.4-106.3c33.7-28.7,61.3-62.4,89.3-96.6c16.8-20.6,43-63.5,70.6-71c83.2-22.5,45.2,107.2,81.3,136
	c17.5,14,51,2.1,67,18.9c18.3,19.3,3,61.1-5.3,83.3C487.5,375.9,316,435.9,183.6,414.2z"/>
</svg>
