<?xml version="1.0" encoding="utf-8"?>
<!-- Generator: Adobe Illustrator 19.2.0, SVG Export Plug-In . SVG Version: 6.00 Build 0)  -->
<!DOCTYPE svg PUBLIC "-//W3C//DTD SVG 1.1//EN" "http://www.w3.org/Graphics/SVG/1.1/DTD/svg11.dtd">
<svg version="1.1" id="Layer_1" xmlns="http://www.w3.org/2000/svg" xmlns:xlink="http://www.w3.org/1999/xlink" x="0px" y="0px"
	 viewBox="0 0 200 35.1" style="enable-background:new 0 0 200 35.1;" xml:space="preserve">
<style type="text/css">
	.st0{fill:#39373a;}
	.st1{fill:#D53C27;}
</style>
<g>
	<path class="st0" d="M0.9,10.7H4l0.3-1.9C5.2,2.8,8.2,0,13.8,0c1.6,0,2.8,0.3,3.6,0.5l-0.9,5.3c-0.7-0.2-1.5-0.3-2.2-0.3
		c-2.2,0-3.5,1-4,4l-0.1,1.2H15l-0.8,5.4H9.3l-2.8,18H0.4l2.8-17.9H0L0.9,10.7z"/>
	<path class="st0" d="M27.5,10.2c6.9,0,11.1,4.8,11.1,11.3c0,6.9-5,13.5-13.4,13.5c-6.9,0-11.1-4.7-11.1-11.1
		C14.2,16.3,19.4,10.2,27.5,10.2z M20.6,23.7c0,3.5,1.9,5.6,5.2,5.6c3.8,0,6.4-3.4,6.4-7.5c0-3.4-1.7-5.7-5.2-5.7
		C23.4,15.8,20.6,19.3,20.6,23.7z"/>
	<path class="st0" d="M43.2,10.7h6.1l-0.4,2.9h0.2c1.6-2.3,4.3-3.5,6.9-3.5c4.9,0,7.3,3.1,7.3,7.9c0,0.8-0.2,2-0.3,2.8L61,34h-6.2
		l2-12.9c0.1-0.5,0.2-1.1,0.2-1.6c0-2.3-1.2-3.7-3.5-3.7c-2.9,0-5.1,2.2-5.7,6L45.9,34h-6.2L43.2,10.7z"/>
	<path class="st0" d="M66.6,10.7h2.8l0.9-5.3h6.2l-0.9,5.3H81l-0.8,5.4h-5.3l-1.3,7.4c-0.2,0.8-0.3,2.2-0.3,2.7
		c0,1.8,0.7,2.6,2.7,2.6c0.6,0,1.6-0.1,2.3-0.3l-0.9,5.4c-1,0.3-2.4,0.4-3.9,0.4c-4.3,0-6.6-2.2-6.6-6.9c0-0.9,0.3-3,0.3-4l1.1-7.3
		h-2.6L66.6,10.7z"/>
	<path class="st0" d="M95.6,16.8c-0.3-1.6-1.6-2.4-3.8-2.4c-2.2,0-3.3,0.9-3.3,2.2c0,1.5,1.1,2,4.3,3.1c4.8,1.6,6.9,3.9,6.9,7.3
		c0,4.8-4,7.9-9.8,7.9c-5.5,0-9.1-2-9.8-7.3h5.6c0.3,1.9,1.6,3,4.3,3c2.1,0,3.6-1.1,3.6-2.8c0-1.6-0.9-2.3-4.6-3.5
		c-4.6-1.4-6.4-3.6-6.4-7c0-3.6,2.6-7.1,9-7.1c5,0,8.5,1.9,9.3,6.7L95.6,16.8L95.6,16.8z"/>
	<path class="st0" d="M138,17.7h-3.9c-0.4-2.2-2.4-4.1-5.6-4.1c-6.2,0-9.2,5.4-9.2,10.9c0,4.1,2.5,7.3,6.7,7.3
		c2.8,0,5.3-1.3,6.6-3.8h4c-1.7,3.6-5.4,6.9-10.8,6.9c-6,0-10.4-4-10.4-10.8c0-7.1,5.4-13.7,13.1-13.7
		C133.6,10.4,137.1,13.2,138,17.7z"/>
	<path class="st0" d="M152.4,10.4c6.4,0,10.6,4.8,10.6,11c0,6.7-4.7,13.6-13.4,13.6c-6.3,0-10.6-4.6-10.6-10.8
		C139,17.7,143.3,10.4,152.4,10.4z M142.6,23.9c0,4.6,2.7,7.7,7.3,7.7c5.4,0,9.1-4.5,9.1-10.4c0-4.3-2.4-7.7-7.3-7.7
		S142.6,17.8,142.6,23.9z"/>
	<path class="st0" d="M167.8,11h3.5l-0.6,3.1h0.1c1.6-2.3,4.1-3.7,6.9-3.7c3.1,0,5.8,2,6.5,4.9c1.5-2.5,4.4-4.9,8.3-4.9
		c4.5,0,7.3,3.4,7.3,7.7c0,0.9-0.1,1.7-0.2,2.6l-2.2,13.4h-3.5l2.1-13.4c0.1-0.6,0.2-1.5,0.2-2.1c0-2.8-1.3-5-4.4-5
		c-3.6,0-6.5,2.6-7.3,7.7l-2,12.7H179l2.1-13.2c0.1-0.6,0.2-1.6,0.2-2.2c0-2.8-1.3-5-4.4-5c-4.1,0-6.6,3.5-7.3,7.7l-2,12.7H164
		L167.8,11z"/>
	<path class="st1" d="M112.2,30.3c0,2.5-2,4.5-4.5,4.5s-4.5-2-4.5-4.5s2-4.5,4.5-4.5C110.1,25.8,112.2,27.8,112.2,30.3z"/>
</g>
</svg>
