<svg version="1.1" id="Layer_1" xmlns="http://www.w3.org/2000/svg" x="0" y="0" viewBox="0 0 594.5 87.7" xml:space="preserve"><style>.st0{fill:#686077}</style><path class="st0" d="M51.8 64.6c-.3 7.4-.8 12.9-1.4 16.6-.2 1.2-.9 2-1.9 2.3-1 .3-2.4.5-4.3.5-1 0-2-.1-3.1-.3-1.1-.2-2-.3-2.8-.4-2.2-.3-3.7-.6-4.7-1-1-.3-1.6-.8-1.8-1.3-.3-.7-.6-2-.7-4-.2-1.6-.4-4.4-.6-8.5l-.4-4.9c-.2-3.1-1.8-4.7-4.8-4.7-1.2 0-1.9.8-2 2.5l-.5 8.2c-.2 4.2-.3 7.4-.5 9.6L22 83c-.1.5-.3.9-.7 1.4-.4.4-.9.8-1.4 1-.6.2-1.4.5-2.5.7-1.1.2-2 .4-2.5.5-1.8.6-3.6.8-5.4.8-2.6 0-4.3-1.4-5-4.3-.4-1.8-.6-3.8-.6-5.8l-.2-2.5c-.5-4.2-.8-7.2-.8-9l-.4-9.2c-.2-4-.3-7.1-.5-9.2L1 28.8C.8 22.6.6 18.7.6 17.2c0-.2-.1-.7-.3-1.3-.2-.7-.3-1.2-.3-1.5v-2.5c0-1.5.2-2.7.6-3.5.5-.9 1-1.5 1.6-2 .5-.4 1.2-.8 2.1-1.2.6-.3 1.5-.5 2.7-.7 1.2-.2 2-.3 2.3-.4 1.6-.3 3-.5 4.1-.5 1 0 1.9.1 2.9.3 1 .2 1.7.6 2 1.1.8 1.4 1.4 5.5 1.8 12.4l.6 14.2c0 .5.1.9.4 1.3.2.4.5.6.8.7.3.1.9.1 1.8.1 1.2 0 2-.2 2.3-.7.6-1 1-2.3 1.2-3.8.2-1.9.3-5 .5-9.2 0-1.1 0-2 .1-2.6 0-3.7.3-6.7.8-9.1.5-2.4 1.7-3.9 3.7-4.6.7-.2 1.6-.6 2.6-1s2.1-.8 3.4-1.1c.5-.1 1.6-.3 3.2-.8 1.6-.6 3.2-.8 4.7-.8 1.8 0 3.2.8 4 2.3s1.3 3.1 1.5 4.7c.2 1.6.3 3.9.4 7 .2 10.1.2 17.9.2 23.5 0 10.1-.1 19.1-.5 27.1zM99.3 2.5c.9.4 1.5.8 1.7 1.1.6.7 1.1 1.4 1.4 2 .3.6.5 1.4.5 2.3.6 6.2.8 10 .8 11.6 0 .7-.1 1.4-.4 2-.3.6-.4 1.2-.4 1.6 0 2.2.2 6.4.5 12.8l.6 7.2.5 8.8.2 3.7.4 7.2.1 3c.2 3.6.4 8.1.4 13.6 0 1.4-.1 2.4-.2 3-.1.6-.4 1-.8 1.3-.7.6-1.3.9-1.8 1-.8.2-1.8.3-3.2.3-2.5 0-4 0-4.7-.1-.4-.1-1.1-.2-2.2-.3-1-.1-1.7-.3-1.9-.5-1-1-1.5-1.9-1.6-2.9-.2-2.2-.2-3.9-.2-5l-.1-2.4c-.1-1.2-.1-2.6-.1-4.2-.2-2.3-.3-3.7-.4-4.2-.1-.2-.2-.5-.4-.8-.2-.3-.3-.5-.4-.6-.4-.7-.9-1.1-1.4-1.1-.6 0-1.5 0-2.6.1h-3.3c-.3 0-.6.2-.8.5-.2.3-.4.8-.4 1.3v5c0 .2.2.7.5 1.6.4.9.5 1.5.5 1.7l-.1 7.2c0 2.1-.2 3.9-.5 5.5-.2.7-.7 1.2-1.7 1.4-.6.2-1.7.2-3.1.2-2.4 0-5.1-.3-8-.8-2.2-.4-3.4-.6-3.5-.6-.6-.2-1.3-.4-2.3-.7-1-.3-1.6-.5-2-.8-.6-.4-.8-1.3-.8-2.6 0-1-.1-1.9-.2-2.9-.2-1-.2-1.7-.2-2.2l.1-16.4c0-2.5.1-6 .2-10.7l.1-7.7c0-3 0-5.4.1-7l.1-7.2c0-7.4 0-11.7.1-13 .1-1.5.7-3.2 1.9-5.2.2-.2.4-.7.8-1.3.4-.6.8-1.2 1.3-1.6.6-.5 1.7-1 3.5-1.4-.3.1 1.1-.2 4.3-.8 1.9-.4 5-.8 9.1-1.2 1.3-.1 2.3-.1 2.9-.1.7 0 1.3 0 1.7-.1l4.9-.4c.7 0 1.6-.1 2.5-.4 2.2-.3 4-.5 5.3-.5.9.1 1.8.3 2.7.7zM83.5 47.2c.9-.2 1.5-.3 2-.3.4 0 .8-.1 1-.2.3-.1.6-.3.9-.5.3-.3.4-.5.4-.7 0-.9-.2-3.4-.6-7.7.1.6-.1-.5-.5-3.1-.5-2.6-.8-4.3-1.1-5-.2-.4-.6-.6-1.3-.6-.6 0-1.5.2-2.5.6-1 .4-1.5.8-1.5 1.2v4.9c0 1.9 0 3.3.1 4.2l.1 5.5c0 .5.1.9.2 1.3s.3.6.4.6c.9 0 1.6-.1 2.4-.2zM140.8 86.5c-.9-.2-1.8-.3-2.6-.4-1.4-.1-3.5-.2-6.2-.5-2.7-.2-4.4-.4-4.9-.5-2.2-.2-3.6-.6-4.4-1.4-.1-.1-.3-.2-.5-.4-.3-.2-.4-.4-.4-.5 0-.2.1-.3.2-.5.2-.2.2-.4.1-.5L119.8 69l-.6-3.4-1.3-7.1-.5-2.6c-.2-1.3-.3-2.1-.5-2.5-.2-.7-.3-1.5-.4-2.3-.1-.8-.3-1.7-.5-2.7-.1-.5-.4-2.7-1.1-6.7-.7-4.8-1.6-9.3-2.5-13.6l-.8-4.7c-1.1-5.1-1.7-9-1.7-11.5 0-1.8.2-3.2.6-4.3.3-.9.6-1.5 1-1.8.3-.3.9-.6 1.6-.8.8-.2 1.3-.4 1.6-.5.3-.1.7-.3 1.3-.7.5-.4 1-.6 1.4-.7 2.3-.6 4.6-.8 6.8-.8.3 0 1-.1 2.1-.4 1.1-.2 1.8-.4 2.2-.4.4 0 .8.1 1.2.4.4.2.7.4.8.5 1.1.6 1.9 1.3 2.5 2.2.5.9 1 2.1 1.4 3.5.2.5.3 1.4.5 2.8l.6 3c.5 2.7.8 4.4.8 5.2.1.5.2 1.1.4 1.8s.3 1.2.4 1.6c.2 1.4.5 3.5.8 6.2l.6 4.4c.2 1 .5 2.8 1 5.4.1.7.3 2 .6 3.8.6 4.1 1.1 6.8 1.3 8 0 .2 0 .5.1 1s.2.8.5.8.5-.3.6-1c.1-.7.1-1.1.1-1.1l.4-3c.2-3.2.4-5.5.6-6.8.6-5.3 1.1-10 1.3-14.3l.1-3.2c0-.9.1-3.1.2-6.6.2-1.6.3-2.8.5-3.6.1-.4.2-.8.2-1.3.1-.5.1-1 .1-1.7.1-1.4.4-2.6 1-3.4.6-.8 1.7-1.2 3.2-1.2.5 0 1.4.1 2.6.2 2.6.2 4.2.4 4.6.4 1.4 0 2.6.4 3.5 1.3l1 1.2c.2.3.5.6.9 1 .4.3.6.7.7 1.1.2.6.2 1.7.2 3.5s-.1 4.1-.4 7c-.2 2.9-.4 5-.6 6.5l-1.3 8.4c-.2.8-.3 2.2-.5 4.3 0 .9-.1 1.9-.2 3-.2 1.5-.5 3.8-.8 6.8l-.5 4.2c-.6 5.2-1 8.5-1.2 10-.8 5.8-1.4 9.5-1.7 11l-.6 2.8c-.3 2.2-.8 3.8-1.3 4.8-.1.2-.2.4-.5.6-.2.2-.4.3-.5.4-.2.3-.4.6-.6.8-.2.2-.3.4-.4.5-.8.8-2.2 1.4-4.3 1.7-2.1.3-4 .5-5.6.5-.4-.1-1.1-.2-2-.4zM212.4 84.7c-.7.6-1.5.8-2.4.8-1.2 0-2.2 0-3 .1l-6 .1c-1.1.1-2.3.2-3.5.3-1.2.1-2.2.2-2.8.3-2.6.2-5.1.2-7.6.2l-11.5-.2c-1.3 0-2.3-.2-3-.7-.7-.4-1.1-1-1.2-1.7-.2-2.2-.4-6.9-.6-14 0-1.8 0-4-.1-6.6-.1-2.6-.2-4.8-.4-6.7l-.4-9.7c-.2-4.8-.3-8-.5-9.6L169 30c-.2-3.4-.3-5.8-.5-7.4l-.5-4.8c-.4-5.2-.6-8.1-.6-8.6 0-1.6.3-2.9 1-3.8.6-.9 1.4-1.5 2.3-1.9 1.6-.6 4-.9 7.2-1.1l3 .4c1.8.3 2.9.5 3.5.5 1.6 0 2.9 0 4 .1l5.8.1 5.9-.1c1-.1 2.1-.1 3.4-.1.5 0 1.2.1 2.2.2 1 .2 1.8.2 2.6.2.7 0 1.6.3 2.5.8 1 .6 1.5 1.1 1.7 1.6 1 2.4 1.6 4.4 1.6 5.9.2 2.9.3 5 .5 6.2l.2 3.4.2 2.4.2 3.8c0 1.1-.4 2.2-1.1 3.1-.5.6-.9 1-1.3 1.3-.4.3-1.1.6-2.2.9-.7.2-1.9.4-3.5.4l-4.6-.7-3.6-.6c-.9 0-1.7-.1-2.5-.4-.3-.1-.8-.2-1.5-.2-.7-.1-1.3-.1-1.9-.1l-4-.1c0 .4.1 1.7.2 4 .1.7.3 1.3.5 1.7.3.4.6.6.9.7 1.4.2 3 .4 4.9.4 2.2 0 4.1.2 5.9.6.6.2 1.1.4 1.4.7.3.3.5.6.5.8.1.8.2 1.7.4 2.7.2 1 .3 1.7.4 2.2.5 2.7.7 4.5.7 5.4 0 .8-.5 1.4-1.4 1.8-.9.4-1.9.6-2.9.6-1.6 0-2.9 0-4 .1l-4.1.1c-.2 0-1.1.2-2.9.6-1.5.2-2.6.5-3.1.7-.2.2-.3.8-.5 1.7-.2.9-.2 1.8-.2 2.7v3.8c0 .2.2.4.7.6.4.2.9.2 1.3.2 4.5 0 9.1-.3 13.8-.8 2.6-.3 4.7-.8 6.4-1.6 1.4-.6 2.4-.8 3-.8 1.1 0 1.8.4 2.2 1.1.8 1.7 1.3 2.8 1.4 3.4.4 1.7.6 3.4.6 5.2 0 5.5-.3 9.6-1 12.4 0 .7-.7 1.5-1.7 2.3zM304.3 2.5c.9.4 1.5.8 1.7 1.1.6.7 1.1 1.4 1.4 2 .3.6.5 1.4.5 2.3.6 6.2.8 10 .8 11.6 0 .7-.1 1.4-.4 2-.3.6-.4 1.2-.4 1.6 0 2.2.2 6.4.5 12.8l.6 7.2.5 8.8.2 3.7.4 7.2.1 3c.2 3.6.4 8.1.4 13.6 0 1.4-.1 2.4-.2 3-.1.6-.4 1-.8 1.3-.7.6-1.3.9-1.8 1-.8.2-1.9.2-3.2.2-2.5 0-4 0-4.7-.1-.4-.1-1.1-.2-2.2-.3-1-.1-1.7-.3-1.9-.5-1-1-1.5-1.9-1.6-2.9-.2-2.2-.2-3.9-.2-5l-.1-2.4c-.1-1.2-.1-2.6-.1-4.2-.2-2.3-.3-3.7-.4-4.2-.1-.2-.2-.5-.4-.8-.2-.3-.3-.5-.4-.6-.4-.7-.9-1.1-1.4-1.1-.6 0-1.5 0-2.6.1s-2.2.1-3.3.1c-.3 0-.6.2-.8.5-.2.3-.4.8-.4 1.3v5c0 .2.2.7.5 1.6.4.9.5 1.5.5 1.7l-.1 7.1c0 2.1-.2 3.9-.5 5.5-.2.7-.7 1.2-1.7 1.4-.6.2-1.7.2-3.1.2-2.4 0-5.1-.3-8-.8-2.2-.4-3.4-.6-3.5-.6-.6-.2-1.3-.4-2.3-.7-1-.3-1.6-.5-2-.8-.6-.4-.8-1.3-.8-2.6 0-1-.1-1.9-.2-2.9-.2-1-.2-1.7-.2-2.2l.1-16.4c0-2.5.1-6 .2-10.7V42c0-3 0-5.4.1-7l.1-7.2c0-7.4 0-11.7.1-13 .1-1.5.7-3.2 1.9-5.2.2-.2.4-.7.8-1.3.4-.6.8-1.2 1.3-1.6.6-.5 1.7-1 3.5-1.4-.3.1 1.1-.2 4.3-.8 1.9-.4 5-.8 9.1-1.2 1.3-.1 2.3-.1 2.9-.1.7 0 1.3 0 1.7-.1l4.9-.4c.7 0 1.6-.1 2.5-.4 2.2-.3 4-.5 5.3-.5 1 .1 1.8.3 2.8.7zm-15.8 44.7c.9-.2 1.5-.3 2-.3.4 0 .8-.1 1-.2.3-.1.6-.3.9-.5.3-.3.4-.5.4-.7 0-.9-.2-3.4-.6-7.7.1.6-.1-.5-.5-3.1-.5-2.6-.8-4.3-1.1-5-.2-.4-.6-.6-1.3-.6-.6 0-1.5.2-2.5.6-1 .4-1.5.8-1.5 1.2v4.9c0 1.9 0 3.3.1 4.2l.1 5.5c0 .5.1.9.2 1.3s.3.6.4.6c.8 0 1.6-.1 2.4-.2zM408.1 19c-.1.6-.2 1.7-.3 3.5-.1 1.8-.5 3.2-1 4.1-.6 1.1-2.1 1.8-4.3 2l-3.2.4c-1 .2-2.4.3-4.2.5-2.7.2-4.4.3-4.9.4-1.8.2-2.9.5-3.5 1-.5.4-.7 1.6-.7 3.5 0 .8 0 1.6-.1 2.5 0 .9 0 1.7.1 2.5.2.6 1.3 1 3.2 1.2l4.3.4 5.3.4c1 .1 1.7.4 2.3 1.1.6.6.8 1.3.8 1.9 0 1.5-.1 3.2-.4 5-.2 1.8-.4 3-.5 3.6-.2 1.9-1.4 3.2-3.5 3.8-.9.2-1.9.4-3.1.5-1.2.1-2 .1-2.4.1-3 .2-5.1.5-6.1 1-.7.3-1.1 2.3-1.1 6 0 2.2 0 4.9-.1 7.9s-.2 5.7-.4 8c-.1 1.1-.4 2.2-.9 3.1-.5 1-1.3 1.5-2.3 1.7-.5.1-1 .2-1.7.5l-1.8.6c-.6.1-1.5.3-2.8.6l-3.2.7c-.2.1-.5.2-.9.2-.4.1-.7.1-1.1.1-1.4 0-2.8-1-4.1-3.1-.6-1.1-1-2.1-1-2.9l.1-3.8c0-1.4 0-2.9-.1-4.7-.1-1.8-.2-3.6-.2-5.5l-.4-6.8-.8-16.1c-.1-2.3-.3-5.1-.7-8.3 0-.3-.1-1-.2-1.9s-.3-1.7-.5-2.3c-.2-.6-.6-1-1-1.1-.6-.2-1.1-.8-1.4-1.6-.3-.8-.5-2-.7-3.4l-1-9c-.6-4.5-.8-7.8-.8-9.8 0-2.2 1.2-3.6 3.5-4 .3-.1 1.1-.3 2.5-.5 1.3-.3 2.8-.4 4.4-.4 1.5 0 3.9.1 7.1.2l11.9.6c.9 0 2.3.1 4.2.2 2.2.2 3.8.2 4.6.2.6 0 1.8-.1 3.6-.2l3.5-.2c2.3 0 4 .3 5.2.8 1.1.6 1.7 1.7 1.7 3.4-.2 1.7-.4 5.6-.9 11.4zM462.8 70.9c-.4 1.6-.8 2.9-1.1 3.8-.1.2-.4 1.1-1 2.7s-1.3 2.8-2.3 3.8l-3.5 3c-.6.5-1.6.9-2.9 1.3-1.3.4-2.4.6-3.2.7l-7.4.2c-.4 0-1-.2-1.7-.6-.7-.4-1.2-.6-1.6-.6-.6 0-1.3 0-2-.1s-1.6-.1-2.5-.1c-.8 0-2.3-.2-4.6-.6-3.9-.6-6.6-2-8.2-4.1-2.2-3-3.4-6.1-3.7-9.2l-.4-2.4c-.1-.6-.2-1.2-.2-1.9-.1-.7-.2-1.4-.2-2.2 0-.5 0-1-.1-1.4-.1-.5-.2-1-.2-1.4-.5-3.1-.8-5.1-.8-5.9-.6-4.8-.9-8.6-1.1-11.5-.4-8-.6-12.6-.6-13.8 0-1.4 0-2.6.1-3.5l.1-3.6c0-.9.1-2 .3-3.5.2-1.4.4-2.6.7-3.5.2-.6.4-1.6.8-3.1s.8-2.4 1.3-2.8c.2-.2.8-.5 1.6-1.1.8-.6 1.6-1 2.3-1.2.6-.2 2-.6 4.4-1.3 3.1-1 5-1.5 5.8-1.7 1.4-.3 3.7-.6 6.8-.8.6-.1 1.7-.3 3.1-.7 1.4-.4 2.3-.6 2.6-.7 1.2-.2 2.6-.4 4.1-.6 1.5-.2 2.8-.3 3.7-.4.6 0 1.1 0 1.6.1s.8.2 1.1.2c1.8.9 3 1.4 3.6 1.4 2.3.3 4.1 2.8 5.3 7.3.2 1 .5 2.5.7 4.4.2 1.9.3 3.1.4 3.8.4 2.6.6 4.9.6 6.7l-.1 24.6c0 .6.1 1.1.2 1.7.1.6.2 1.2.2 1.7 0 1.9-.2 4.4-.6 7.4l-.5 5c-.2 1.4-.5 2.8-.9 4.5zm-28.9-33.2l.1 4c.1 1.6.3 4.3.6 8.1s.6 6.5.7 8.2c.2 1.2.4 2.1.6 2.6.4 1 1.4 1.4 3.1 1.4.4 0 .8 0 1.2.1.4.1.8.1 1.3.1.7 0 1.2-.7 1.3-2 .1-.7.1-1.7.2-2.9 0-1.2.1-2.2.1-2.9l.1-6.8c.1-1.4.1-3.6.1-6.6 0-.2-.3-2.6-.8-7.3-.2-.9-.4-1.6-.7-2.1-.3-.5-.7-.8-1.1-.8-.4 0-.9.1-1.5.2-.6.2-1.3.3-2 .4-.7.1-1.4.3-2 .7-.6.4-1 .8-1.1 1.3-.1.6-.2 2-.2 4.3zM520 79.7c-.2 1.7-.4 2.6-.4 2.8 0 1.2-.4 2.3-1.1 3.2-.8.9-1.9 1.4-3.3 1.4-1 0-2-.1-3-.2s-1.8-.2-2.3-.2h-5.2c-.2 0-.5.1-.8.2-.3.1-.5.2-.8.2-1.6 0-2.8-.4-3.7-1.2s-1.3-1.9-1.3-3.2l-.2-3.4-.4-4c0-.2.1-.5.2-.7.1-.2.2-.4.2-.5v-5.2l.1-2.8.1-10.4-.1-4.1c-.1-.7-.1-2-.1-3.8 0-.5-.1-1-.2-1.5s-.2-1-.2-1.5l-.1-4c-.1-.6-.1-1.7-.1-3.1 0-1-.4-1.8-1.3-2.2-.3-.2-.9-.2-1.8-.2-1.2 0-2.2.1-3 .2-.3.1-.8.4-1.3.8-.6.5-1.2.9-2 1.3v9.2c0 5.7.3 10.5.8 14.5.5 3.3.8 6.8 1 10.6l.1 3.1c.2 3.2.2 5.5.2 7 0 .8-1 1.6-3.1 2.5-1.3.6-3.1.8-5.5.8-3.6 0-6-.4-7.2-1.2-.7-.5-1.3-1.2-1.9-2-.5-.9-.8-1.8-.9-2.8-.2-3.6-.4-6.7-.4-9.2V66c-.2-5.3-.2-11.2-.2-17.6 0-.4 0-.9.1-1.4.1-.6.1-1.2.1-1.9l-.2-3.5c-.1-.6-.2-1.5-.2-2.5-.1-1-.1-2.2-.1-3.5 0-3.8-.2-9-.6-15.6 0-.5-.1-1.3-.2-2.4-.2-1.4-.4-2.7-.4-4 0-2 .4-3.8 1.1-5.4.7-1.6 1.7-2.5 3-2.8 2.2-.3 3.4-.5 3.7-.6l2.5-.4c1.8-.4 3.5-.6 5.2-.6s2.7.6 3.1 1.8c.1.2.2.4.5.8.2.4.4.8.4 1.4l2.4-.7c1.3-.2 2.4-.6 3.5-1.1.5-.2 1.5-.7 3.1-1.4s3-1.3 4.2-1.7c1.2-.4 2.4-.6 3.4-.6s2.2.3 3.8.9c1.6.6 2.6 1.2 3.1 1.9.8 1.1 1.8 2.6 3.1 4.3 1.2 1.8 2.1 3.1 2.5 4 .3.6.6 1.7 1 3.4.3 1.7.5 3.1.6 4.1.2 2.1.2 5.8.2 11 0 .3.1.9.2 1.9.1.9.2 2 .2 3.3l-.1 4.6-.2 4.9.1 5.5c0 1 0 1.9.1 2.6l.1 4.2c0 1 0 1.8.1 2.5s.2 1.2.2 1.6l.2 2.4-.1 4.8c-.1.6-.1 1.5-.1 2.5-.1 2.8-.2 5.1-.4 7zM525.8 2.9c.2-.4.8-.7 1.7-.9.9-.2 1.6-.3 2.2-.3 1.4 0 3.3.1 5.5.2.6.1 1.4.2 2.3.4.9.2 1.7.3 2.5.4l12-.2c2.6 0 4.4 0 5.6.1l6 .1c3.4 0 6.3.1 8.5.2 2.6.2 4.2.6 4.8 1 .5.4.9.8 1.1 1.2.3.4.4 1 .4 1.9l.1 12.4.1 2.8c0 .4-.3.8-.8 1.2-.5.4-.9.8-1.3 1.1-.2.1-.4.2-.7.3-.3.1-.6.2-1 .2-.5 0-1.2 0-2-.1-.9-.1-1.9-.1-3-.1l-2.3-.1c-1 0-1.9 0-2.6.1-.4.1-.8.3-1.1.7-.3.4-.5.8-.6 1.3-.2 2.6-.4 4.6-.4 5.8 0 4.6-.1 10.5-.2 17.5-.2 4.8-.2 8-.2 9.7l.1 15v4.4c0 .2.1.5.2.8.1.3.2.5.2.8 0 1-.1 1.9-.4 2.7-.2.8-.5 1.2-.8 1.4-1.4.7-2.4 1.2-3.2 1.4-.8.2-1.9.3-3.2.3-1.7 0-3.1-.1-4.2-.2-.3 0-.6-.1-.9-.3-.3-.2-.6-.3-.9-.4-.2 0-.8-.1-1.9-.2-1.1-.2-2-.6-2.8-1.3-.2-.3-.4-.9-.7-1.7-.3-.8-.6-1.3-.7-1.5-.3-.3-.6-.9-.7-1.7-.2-.8-.2-1.6-.2-2.3l-.1-21-.1-8.5c-.1-1.4-.1-3.4-.1-5.8 0-1.2 0-2.2-.1-3l-.1-6.8c0-.6-.1-.9-.4-1.1-.2-.2-.7-.3-1.3-.4-1.6-.2-3.1-.2-4.6-.2-.6 0-1.3.1-2.2.2-.9.2-1.6.2-2.1.2-1.4 0-2.4-.1-2.8-.2-.6-.2-1.1-.4-1.3-.7-.5-.5-.8-1.1-1-1.8l-.5-2c-.3-1-.5-2.4-.5-4.2 0-2.7 0-4.8-.1-6.4l-.1-6.3c0-3 .3-5.1.9-6.1zM589.7 67c1.2.6 2.1 1.5 2.7 2.5.6 1 1 2.1 1.1 3.2.2 1.4.3 2.4.5 3 .3 2.1.5 3.4.5 4.1 0 2.6-.8 4.4-2.3 5.3-1.1.4-2.5.7-4 .8-1.6.1-2.5.2-2.9.3-1.4.2-2.4.2-3 .2-1.8 0-3.2-.3-4.2-1-.9-.6-1.6-1.3-2.1-2.3-.5-1-.8-2-.9-3.1l-.1-3.2c0-1.3.1-2.9.2-4.8 0-.2 0-.5.1-1.1 0-.6.2-1.1.4-1.6.2-.4.6-.9 1.1-1.3 1.4-1.2 2.5-1.8 3.1-1.8l1.2.1c.2 0 .5-.1.8-.2.3-.1.5-.2.8-.2 2.5.1 4.9.4 7 1.1z"/></svg>