<svg version="1.1" id="Layer_1" xmlns="http://www.w3.org/2000/svg" x="0" y="0" viewBox="0 0 493 142.8" xml:space="preserve"><style>.st0{fill:#686077}</style><path class="st0" d="M84.4 21c0 7.5.2 14.7.6 21.8l.2 10.2c0 4.1.4 10 1.2 17.6.3 3.9.5 8.7.7 14.4.2 5.7.3 10.4.3 14l.2 20.8c0 1.1-.1 2.1-.2 3-.1.9-.2 1.9-.2 2.8 0 4.1-.5 6.7-1.4 7.8-1.5 1.6-3 2.7-4.6 3.2-1.6.5-3.8.8-6.6.8-4 0-6.7-.2-8.2-.7-1.5-.5-2.5-1.6-3.2-3.3-1.1-2.8-1.6-5.1-1.6-6.8 0-2.7-.1-4.6-.2-5.8l-.2-6.4-.2-9.4c0-.7-.6-1.4-1.7-2.2-1.1-.8-2.3-1.3-3.5-1.6-2.1-.5-5.7-.8-10.6-.8-1.9 1.5-2.8 2.6-2.8 3.4 0 1.7.3 4.9.8 9.4.7 4 1 7.5 1 10.6 0 1.6-.1 4.5-.4 8.8-.1 2.8-1 5-2.6 6.6s-3.5 2.5-5.8 2.6c-.7 0-2.1.1-4.2.4-.9.1-2 .3-3.3.4-1.3.1-2.6.2-4.1.2-7.5 0-12.5-.5-15-1.4-3.3-1.3-5.1-3.1-5.4-5.4-.3-2.8-.5-7.3-.7-13.5-.2-6.2-.3-11.6-.3-16.3 0-10.8-.1-20.3-.4-28.6-.1-2-.2-4.1-.2-6.4 0-1.3-.3-7.6-.8-18.8C.3 34.7 0 24.9 0 23 0 13.4.1 8 .4 6.8c.3-1.5.9-2.7 2-3.8.7-.7 2.8-1 6.4-1 2 0 3.7.1 5 .4 1.3.3 2.5.6 3.6 1 .8.3 2.2.8 4.1 1.6 1.9.8 3.5 1.3 4.7 1.4 1.1.1 2 .7 2.8 1.7.8 1 1.3 1.9 1.6 2.7.5 1.5 1 3.7 1.4 6.8.4 3.3.6 9.3.6 18 0 2.5.1 4.4.2 5.6L33 48c0 1.1 1.8 1.6 5.4 1.6 4 0 6-.5 6-1.4l.2-7.4c0-.8.1-1.7.2-2.7.1-1 .2-2 .2-3.1 0-5.1-.1-9.7-.4-14l-.4-9.2c0-2 .1-3.5.3-4.5.2-1 .6-1.6 1.1-1.9 1.1-.5 2.8-1.1 5.2-1.7s4.3-1 5.8-1.3c7.5-.9 13.1-1.4 17-1.4 3.9 0 6.5 1 7.8 3 2 2.9 3 8.6 3 17zM169.4 137.8c-1.2.9-2.5 1.4-4 1.4-2 0-3.7.1-5 .2l-10 .2c-1.9.1-3.8.3-5.9.5-2.1.2-3.6.4-4.7.5-4.3.3-8.5.4-12.6.4l-19.2-.4c-2.1 0-3.8-.4-5-1.1-1.2-.7-1.9-1.7-2-2.9-.4-3.7-.7-11.5-1-23.4 0-3.1-.1-6.7-.2-11s-.3-8-.6-11.2l-.6-16.2c-.3-8-.5-13.3-.8-16l-.6-12.2c-.3-5.6-.5-9.7-.8-12.4l-.8-8c-.7-8.7-1-13.5-1-14.4 0-2.7.5-4.8 1.6-6.3s2.3-2.6 3.8-3.1c2.7-.9 6.7-1.5 12-1.8l5 .6c2.9.5 4.9.8 5.8.8 2.7 0 4.9.1 6.6.2l9.6.2 9.8-.2c1.6-.1 3.5-.2 5.6-.2.8 0 2 .1 3.6.4 1.6.3 3.1.4 4.4.4 1.2 0 2.6.5 4.2 1.4 1.6.9 2.5 1.8 2.8 2.6 1.7 4 2.6 7.3 2.6 9.8.3 4.8.5 8.3.8 10.4l.4 5.6.4 4 .4 6.4c0 1.9-.6 3.6-1.8 5.2-.8.9-1.5 1.6-2.2 2.1-.7.5-1.9 1-3.6 1.5-1.2.4-3.1.6-5.8.6l-7.6-1.2-6-1c-1.5 0-2.9-.2-4.2-.6-.5-.1-1.4-.3-2.5-.4-1.1-.1-2.2-.2-3.1-.2l-6.6-.2c0 .7.1 2.9.4 6.6.1 1.2.4 2.1.9 2.8.5.7 1 1.1 1.5 1.2 2.3.4 5 .6 8.2.6 3.6 0 6.9.3 9.8 1 1.1.3 1.9.7 2.4 1.2s.8 1 .8 1.4c.1 1.3.4 2.8.7 4.5.3 1.7.6 2.9.7 3.7.8 4.5 1.2 7.5 1.2 9 0 1.3-.8 2.3-2.3 3-1.5.7-3.2 1-4.9 1-2.7 0-4.9.1-6.6.2l-6.8.2c-.3 0-1.9.3-4.8 1-2.5.4-4.3.8-5.2 1.2-.3.4-.5 1.4-.8 2.9-.3 1.5-.4 3-.4 4.5v6.4c0 .4.4.7 1.1 1 .7.3 1.4.4 2.1.4 7.5 0 15.1-.5 23-1.4 4.3-.5 7.8-1.4 10.6-2.6 2.3-.9 3.9-1.4 5-1.4 1.9 0 3.1.6 3.6 1.8 1.3 2.8 2.1 4.7 2.4 5.6.7 2.8 1 5.7 1 8.6 0 9.2-.5 16.1-1.6 20.6-.4 1.3-1.5 2.7-3.2 4zM267.2 113.2l-.2 7c-.1 1.2-.2 2.7-.2 4.4 0 .5-.1 1.1-.3 1.8-.2.7-.3 1.2-.3 1.6 0 .3 0 .8.1 1.7.1.9-.2 1.8-.9 2.9-.4.7-1.9 2.3-4.4 4.8-2.5 2.5-5.2 3.8-8 3.8-.4 0-3.6-.2-9.6-.6l-5.6-.4-17 .2-17.4-.2c-1.5 0-3.2-.2-5.1-.6-1.9-.4-3.1-.7-3.5-.8-.5-.1-1.2-.4-1.9-.9s-1.4-.8-1.9-.9c-.5-.1-1.3-1.5-2.3-4.2-1-2.7-1.5-4.7-1.5-6.2l-.4-9.6c0-2.9.1-5.4.2-7.4s.2-3.3.2-4c0-4.7-.1-12.1-.4-22.2-.3-7.2-.6-12.7-1-16.6l-.2-4.4c0-2.1-.1-4.9-.4-8.4l-.2-4-.6-8.2c-.7-7.7-1-11.9-1-12.4 0-.9-.1-1.9-.2-3s-.3-2.1-.4-3.2c-.5-4.3-.8-7.2-.8-8.8 0-2.1.4-3.7 1.1-4.6.7-.9 2.2-1.9 4.5-3 1.6-.7 3-1.1 4.1-1.4 1.1-.3 2.3-.6 3.5-1 2.5-1.1 5.3-1.9 8.2-2.4.7-.1 1.7-.4 3-.8s2.5-.6 3.6-.6c2 0 3.6.6 4.8 1.8.5.5 1.1 1.7 1.8 3.4.4.9.7 2.2 1 3.9.3 1.7.4 3 .4 4.1 0 3.6-.3 8.5-1 14.8-.3 2.8-.4 7.3-.4 13.6 0 3.9.5 15.4 1.4 34.6.1 1.2.5 5.1 1 11.8.3 3.9 1.1 7.1 2.4 9.6 0 .1.2.6.5 1.5s1 1.3 1.9 1.3c.7 0 1.2-.2 1.7-.6.5-.4.8-.7 1.1-.8.3-.1.6-1 .9-2.6.3-1.6.6-2.7.9-3.2.4-.9 1.1-1.8 2-2.6.9-.8 1.7-1.3 2.4-1.6 1.1-.3 2.4-.4 4-.4 2.5 0 4.6.1 6.2.2 1.6.1 2.9.2 4 .2 7.7 0 11.8.1 12.2.4.3.1.9.6 2 1.3 1.1.7 1.8 1.6 2.2 2.5.7 1.9 1.5 4.6 2.4 8.2.9 4.1 1.4 7.9 1.4 11.2zM359.6 113.2l-.2 7c-.1 1.2-.2 2.7-.2 4.4 0 .5-.1 1.1-.3 1.8-.2.7-.3 1.2-.3 1.6 0 .3 0 .8.1 1.7.1.9-.2 1.8-.9 2.9-.4.7-1.9 2.3-4.4 4.8-2.5 2.5-5.2 3.8-8 3.8-.4 0-3.6-.2-9.6-.6l-5.6-.4-17 .2-17.4-.2c-1.5 0-3.2-.2-5.1-.6-1.9-.4-3.1-.7-3.5-.8-.5-.1-1.2-.4-1.9-.9s-1.4-.8-1.9-.9c-.5-.1-1.3-1.5-2.3-4.2-1-2.7-1.5-4.7-1.5-6.2l-.4-9.6c0-2.9.1-5.4.2-7.4s.2-3.3.2-4c0-4.7-.1-12.1-.4-22.2-.3-7.2-.6-12.7-1-16.6l-.2-4.4c0-2.1-.1-4.9-.4-8.4l-.2-4-.6-8.2c-.7-7.7-1-11.9-1-12.4 0-.9-.1-1.9-.2-3s-.3-2.1-.4-3.2c-.5-4.3-.8-7.2-.8-8.8 0-2.1.4-3.7 1.1-4.6.7-.9 2.2-1.9 4.5-3 1.6-.7 3-1.1 4.1-1.4 1.1-.3 2.3-.6 3.5-1 2.5-1.1 5.3-1.9 8.2-2.4.7-.1 1.7-.4 3-.8s2.5-.6 3.6-.6c2 0 3.6.6 4.8 1.8.5.5 1.1 1.7 1.8 3.4.4.9.7 2.2 1 3.9.3 1.7.4 3 .4 4.1 0 3.6-.3 8.5-1 14.8-.3 2.8-.4 7.3-.4 13.6 0 3.9.5 15.4 1.4 34.6.1 1.2.5 5.1 1 11.8.3 3.9 1.1 7.1 2.4 9.6 0 .1.2.6.5 1.5s1 1.3 1.9 1.3c.7 0 1.2-.2 1.7-.6.5-.4.8-.7 1.1-.8.3-.1.6-1 .9-2.6.3-1.6.6-2.7.9-3.2.4-.9 1.1-1.8 2-2.6.9-.8 1.7-1.3 2.4-1.6 1.1-.3 2.4-.4 4-.4 2.5 0 4.6.1 6.2.2 1.6.1 2.9.2 4 .2 7.7 0 11.8.1 12.2.4.3.1.9.6 2 1.3 1.1.7 1.8 1.6 2.2 2.5.7 1.9 1.5 4.6 2.4 8.2.9 4.1 1.4 7.9 1.4 11.2zM449.2 114.7c-.7 2.7-1.3 4.8-1.8 6.3-.1.4-.7 1.9-1.6 4.5-.9 2.6-2.2 4.7-3.8 6.3l-5.8 5c-1.1.8-2.7 1.5-4.8 2.2-2.1.7-3.9 1.1-5.4 1.2l-12.4.4c-.7 0-1.6-.3-2.8-1-1.2-.7-2.1-1-2.6-1-1.1 0-2.2-.1-3.4-.2-1.2-.1-2.6-.2-4.2-.2-1.3 0-3.9-.3-7.6-1-6.5-1.1-11.1-3.3-13.6-6.8-3.6-5.1-5.7-10.2-6.2-15.4l-.6-4c-.1-.9-.3-2-.4-3.1-.1-1.1-.3-2.4-.4-3.7 0-.8-.1-1.6-.2-2.4-.1-.8-.3-1.6-.4-2.4-.8-5.2-1.3-8.5-1.4-9.8-.9-8-1.5-14.4-1.8-19.2-.7-13.3-1-21-1-23 0-2.4.1-4.3.2-5.8l.2-6c0-1.5.2-3.4.5-5.8s.7-4.3 1.1-5.8c.3-.9.7-2.7 1.3-5.2.6-2.5 1.3-4.1 2.1-4.6.4-.3 1.3-.9 2.6-1.8s2.6-1.6 3.8-2c.9-.3 3.4-1 7.4-2.2 5.2-1.6 8.4-2.5 9.6-2.8 2.4-.5 6.2-1 11.4-1.4 1.1-.1 2.8-.5 5.2-1.2 2.4-.7 3.9-1.1 4.4-1.2 2-.4 4.3-.7 6.8-1 2.5-.3 4.6-.5 6.2-.6.9 0 1.8.1 2.6.2s1.4.3 1.8.4c2.9 1.5 4.9 2.3 6 2.4 3.9.5 6.8 4.6 8.8 12.2.4 1.7.8 4.2 1.1 7.3.3 3.1.6 5.2.7 6.3.7 4.4 1 8.1 1 11.2l-.2 41c0 .9.1 1.9.3 2.9s.3 2 .3 2.9c0 3.2-.3 7.3-1 12.4l-.8 8.4c-.1 2-.5 4.4-1.2 7.1zM401 59.4l.2 6.6c.1 2.7.5 7.2 1 13.5s.9 10.9 1.2 13.7c.3 2 .6 3.5 1 4.4.7 1.6 2.4 2.4 5.2 2.4.7 0 1.3.1 2 .2s1.4.2 2.2.2c1.2 0 1.9-1.1 2.2-3.4.1-1.2.2-2.8.3-4.8.1-2 .1-3.6.1-4.8l.2-11.4c.1-2.4.2-6.1.2-11 0-.3-.5-4.3-1.4-12.2-.3-1.5-.7-2.6-1.2-3.5-.5-.9-1.1-1.3-1.8-1.3s-1.5.1-2.5.4c-1 .3-2.1.5-3.3.6-1.2.1-2.3.5-3.3 1.1s-1.6 1.3-1.9 2.1c-.3 1.1-.4 3.5-.4 7.2zM493 129.6c0 4.4-1.3 7.3-3.8 8.8-1.9.7-4.1 1.1-6.7 1.3-2.6.2-4.2.4-4.9.5-2.4.3-4.1.4-5 .4-2.9 0-5.3-.5-7-1.6-1.5-.9-2.6-2.2-3.5-3.8-.9-1.6-1.4-3.3-1.5-5.2l-.2-5.4c0-2.1.1-4.8.4-8 0-.3 0-.9.1-1.9.1-1 .3-1.9.7-2.6.4-.7 1-1.4 1.8-2.1 2.4-2 4.1-3 5.2-3l2 .2c.4 0 .8-.1 1.3-.3.5-.2.9-.3 1.3-.3 4.4 0 8.3.5 11.8 1.6 2 1.1 3.5 2.5 4.5 4.2 1 1.7 1.6 3.5 1.9 5.4.3 2.4.5 4.1.8 5"/></svg>