<svg version="1.0" xmlns="http://www.w3.org/2000/svg">
    <defs>
        <symbol id="logo" viewBox="0 0 106.000000 49.000000" preserveAspectRatio="xMinYMid">
            <g transform="translate(0.000000,49.000000) scale(0.050000,-0.050000)" fill="currentColor" stroke="none">
                <path d="M1127 950 c-34 -14 -92 -63 -128 -108 -83 -103 -180 -135 -316 -102 -212 52 -216 52 -180 -2 37 -57 136 -95 246 -97 l80 -1 -119 -120 -119 -120 -126 0 c-214 0 -445 -145 -445 -279 0 -159 194 -139 438 47 59 45 119 91 134 101 42 31 453 -98 572 -180 146 -100 354 -89 480 25 33 30 39 29 78 -6 65 -59 300 -55 362 7 60 60 24 104 -54 68 -126 -57 -290 -7 -290 88 0 77 -54 60 -157 -51 -117 -126 -188 -149 -301 -99 -108 49 -105 57 53 139 144 74 365 271 365 325 0 35 -83 101 -156 124 -104 32 -422 -189 -494 -344 -20 -41 -38 -78 -41 -82 -9 -10 -289 83 -289 96 0 14 247 258 395 392 142 127 149 237 12 179z m430 -336 c56 -68 -181 -278 -380 -335 -85 -24 -73 18 38 142 150 167 295 249 342 193z m-1078 -309 c0 -18 -141 -125 -244 -185 -125 -73 -130 2 -7 114 90 80 254 127 251 71z"/>
            </g>
        </symbol>
    </defs>
</svg>