<svg xmlns="http://www.w3.org/2000/svg" viewBox="0 0 973.3 213.3"><path d="M724.8 76S711 39.2 693.9 39.2c-9.6 0-13.1 6.4-13.1 11.2 0 6 6.4 11.7 12 11.7 13.1 0 22.4 3.6 32 13.9m3.2-9.8s13.8-36.8 30.9-36.8c9.6 0 13.1 6.4 13.1 11.2 0 6-6.4 11.7-12 11.7-13 .1-22.3 3.7-32 13.9M724.5 56s15.3-36.3 2.9-48c-7-6.7-13.9-4.4-17.2-.9-4.1 4.3-3.4 12.9.6 16.7 9.5 8.9 13.8 18 13.6 32.1M6.7 207.6h15.6v-52.3h45.4v-14H22.3v-39.2h53.6v-14H6.7v119.5zm131.2-12.1c-24.5.1-35.4-14.7-35.4-47.6s10.9-47.6 35.4-47.6 35.4 14.7 35.4 47.6c0 32.9-10.9 47.6-35.4 47.6m0-109.2c-34.4 0-51.2 20.1-51.2 61.6s16.7 61.6 51.2 61.6c34.4 0 51.2-20.1 51.2-61.6s-16.7-61.6-51.2-61.6M289 188.9L234.1 88.7l-.3-.5h-22.3v119.5h15.4V106.8l54.9 100.3.4.5h22.4V88.1h-15.5l-.1 100.8zm33.5-86.8h35.7v105.6h15.6V102.1h35.7v-14h-87.1l.1 14z" fill="#538ead"/><path d="M467.4 140.3L463 139c-14.5-4.5-26-8-26-21.4 0-11.5 8.5-17.3 25.5-17.3 8.9 0 20.7 1.7 28 3.2l1.1.2 2.4-13.4-1.1-.2c-10.7-2.5-21.9-3.9-30.8-3.9-26 0-40.9 11.9-40.9 32.5 0 19.2 12.4 26.8 33.7 33.2 19.6 5.9 28.3 8.9 28.3 22.6 0 13.9-9.3 20.7-28.3 20.7-10.3 0-23.7-2-30.3-3.3l-1.1-.3-2 13.6 1 .2c5.5 1.2 19.6 3.9 32.9 3.9 28.1 0 43.5-12.4 43.5-35 0-24-16.9-29.4-31.7-34.2m66.3-38.8c6.1-.6 13.7-1 19.7-1 22.1 0 29.9 6 29.9 22.8 0 21-13.2 25.2-33.2 25.2-2.5 0-8.9 0-16.4-.6v-46.4zm21-14.9c-9.7 0-24 1-35.7 2.6l-.9.1v118.5h15.6v-46.4c6.6.6 13.7 1.2 20.4 1.2 29.9 0 45-13.4 45-39.7.1-32.2-23.7-36.3-44.4-36.3m126.3 34.8c0 17.1-9.3 23.2-35.4 23.2-4.2 0-8.3 0-12.7-.3v-42.7c7.3-.7 17.1-.9 21.7-.9 19.4 0 26.3 5.5 26.4 20.7M669 156c18.5-4.4 27.5-15.9 27.5-35.2 0-30.2-22.8-34.1-42.7-34.1-9.3 0-23.7 1.1-35.9 2.5l-.9.2v118.2h15.7v-50.1c6 .3 15 .3 20.7.3 7.5 14.9 16.1 30.7 27.2 49.2l.3.5h18.8l-1.1-1.8c-12.4-19.3-21.9-35.3-29.6-50.1m49.7 51.8h15.6V88h-15.8l.2 119.4zm120.9-18.6L784.8 88.6l-.3-.5h-22.3v119.5h15.4V106.8l54.8 100.3.3.5H855V88.1h-15.5l.1 100.7zm87.5-43V160h24.2v30.8c-7.3 3.1-15.7 4.8-23.6 4.8-11.2 0-19.7-3.7-25.2-10.9-6-7.8-8.9-19.9-8.9-36.9 0-15.9 2.6-27.3 8-34.9 7.7-11.1 20-12.5 29.9-12.5s21.5 1.6 28.8 3.2l1.1.3 2.2-13.5-1-.2c-11.9-2.6-22.7-3.9-32.1-3.9-19.1 0-32.1 5.5-40.9 17.2-7.9 10.4-11.7 25-11.7 44.4 0 21.2 4.5 37.2 13.4 47.4 8.1 9.5 19.9 14.2 35.1 14.2 13.9 0 28.5-3.9 40-10.7l.5-.3v-52.2l-39.8-.5z" fill="#002339"/></svg>