<?xml version="1.0" encoding="utf-8"?>
<!-- Generator: Adobe Illustrator 13.0.1, SVG Export Plug-In . SVG Version: 6.00 Build 14948)  -->
<!DOCTYPE svg PUBLIC "-//W3C//DTD SVG 1.1//EN" "http://www.w3.org/Graphics/SVG/1.1/DTD/svg11.dtd">
<svg version="1.1" id="Layer_1" xmlns="http://www.w3.org/2000/svg" xmlns:xlink="http://www.w3.org/1999/xlink" x="0px" y="0px"
	 width="471.043px" height="234px" viewBox="0 0 471.043 234" enable-background="new 0 0 471.043 234" xml:space="preserve">
<g>
	<g>
		<path fill="#0099FF" d="M359.043,113c9.344-14.99,22.098-26.569,23-50c-7.797-2.536-20.879,0.213-26-5
			c3.084-9.25,15.492-9.175,28-9c4.064-11.269,5.309-25.358,15-31c9.801,3.618,1.24,20.174,2,30c4.787,2.881,16.178-0.845,21,2
			c1.154,13.153-8.777,15.223-22,14c-3.072,14.594-2.682,32.652-5,48c10.041-8.395,17.469-21.918,26-35
			c6.941-10.645,11.131-33.152,29-27c3.068,9.795-5.727,15.32-9,22c4.523,16.792,16.641,51.824,0,63c-7.893,5.301-23.908,2.227-24-9
			c-0.074-9.168,9.828-10.014,15-16c-1.758-6.241-3.094-12.905-4-20c-10.291,7.086-17.615,35.207-34,37
			c-10.885,1.191-18.057-7.307-16-24c-9.225,10.532-17.828,47.271-36,27c-0.871-14.538,2.613-24.72,3-38
			c-7.518,3.768-11.717,38.421-24,38c-15.721-0.539-1.301-49.579-3-60c-5.908,0.425-8.525,4.14-13,6
			c8.188,30.211-14.885,69.697-37,52c-10.19-8.155-5.269-33.493,1-45c-3.688-2.313-11.65-0.349-17-1
			c-3.317,10.315-3.604,24.683-6,37c-2.16,11.114-4.323,25.475-18,25c-4.649-17.883,3.82-39.341,4-59
			c-2.719-2.615-11.468,0.802-13-3c-0.533-9.533,7.569-10.431,15-12c0.916-8.083,1.438-16.563,3-24c-13.47-3.529-38.992,4.992-37-14
			c10.206-3.461,24.828-2.506,38-3c3.82-7.734,1.108-20.966,9-22c8.115-1.063,9.488,11.106,11,21c27.5,0.452,56.523-2.745,82-1
			c-1.535,32.131-54.694,12.638-83,18c-2.39,6.943-2.647,16.018-4,24c9.199,3.715,35.229-6.741,38,6
			c10.113-8.22,18.309-18.358,36-19c9.904,4.653,8.596,22.088,6,34c7.514-3.095,7.633-23.67,18-25
			C370.456,62.51,361.143,98.264,359.043,113z M284.043,119c7.17-4.503,5.424-23.235,4-33
			C284.788,93.656,274.29,111.152,284.043,119z"/>
		<path fill="#0099FF" d="M173.044,77c-11.883,14.117-15.124,36.876-29,49c-22.72-12.677-2.361-54.972-5-78
			c-11.161,22.839-14.701,53.298-28,74c-28.882-2.02-12.563-46.566-16-72c-6.321,13.536-9.045,27.82-12,42
			c-3.172,15.222-4.389,39.261-15,50c-18.909,19.139-79.115-1.511-61-30c8.144-12.808,43.581-7.792,44,10
			c-7.364,4.486-22.321-3.073-31,2c9.016,9.657,22.88,17.45,35,13c12.547-4.607,14.886-37.317,19-56c2.993-13.59,7.871-51.645,22-53
			c22.924-2.199,17.089,41.831,16,62c3.488-10.52,8.064-21.489,12-34c4.31-13.701,8.049-43.496,26-29
			c13.238,10.69,3.185,45.027,2,64c10.139-7.73,9.155-32.688,22-35c22.099-3.978,15.116,33.309,10,49
			c8.279-5.763,6.769-24.507,18-25c7.4-0.325,11.059,10.381,12,18c7.313,59.199-26.412,124.941-73,130
			c-13.431,1.458-34.681,2.199-36-17c9.855-0.797,16.172,4.982,27,5c51.551,0.078,62.779-65.887,68-116
			c-7.819,1.221-11.123,33.792-22,35C158.615,137.159,170.092,91.602,173.044,77z"/>
	</g>
</g>
</svg>
