<svg xmlns="http://www.w3.org/2000/svg" width="1304.295" height="185.611"><path fill-rule="evenodd" clip-rule="evenodd" fill="#EE1D40" d="M408.463 71.048l-2.453.205-28.076-.954v-.136c6.801-10.568 13.661-21.551 16.491-35.98 2.95-15.039-4.661-31.725-15.946-33.936-9.065-1.777-15.915 6.503-19.353 11.176-7.825 10.633-12.922 23.896-17.309 38.025l-4.498 18.263c-.945.931-8.075.29-10.085.272-7.19-.061-14.676-.288-18.944 2.862-2.521 10.56 7.455 9.108 14.855 10.63l11.448 2.181-1.227 10.903-.545 8.858v6.406c.001 7.953 1.049 15.086 1.227 22.215l-10.222 6.679c-3.885 2.449-8.085 4.687-11.993 7.359l-5.043 3.816c-4.45 2.1-8.422 2.956-10.494-2.045-1.696-4.092-1.809-11.57-.954-16.764 1.65-10.031 1.978-19.69 4.225-29.166 1.628-6.865 2.096-15.439-1.772-20.443-3.723-4.816-13.381-3.996-18.126-.545-4.363 3.172-6.342 8.584-9.131 13.356-3.832 6.555-6.555 13.291-9.813 20.716l-2.998 5.86h-1.772c.157-9.587 2.17-19.147 3.68-28.212.956-5.742-.823-11.961-4.362-13.765-4.005-2.042-9.728-.513-12.402 1.499-6.046 4.548-7.972 20.589-9.131 30.119h-.136c-1.75-3.769-6.506-7.766-9.131-11.039-9.249-11.531-31.308-25.539-54.107-20.035-6.382 1.541-11.006 4.121-15.946 6.815-.702-1.335-.896-2.691-2.044-3.544-2.871-2.128-10.854-1.09-15.537-1.09H94.861l1.5-15.128c1.298-7.65 1.375-15.322 2.726-22.624l2.59-18.672c1.375-1.24 13.989-1.13 17.172-1.636h15.4l5.861.137 9.813.272 25.486 2.044c9.846 1.578 17.544 2.007 20.443-5.861.542-1.469 1.355-3.745.954-5.997-1.596-8.955-8.853-7.41-17.854-8.859l-32.028-2.453-20.035-1.227h-5.724c-3.947-.625-9.623-.464-13.493.136-7.317 1.134-14.233.382-20.989 1.635-21.276 3.948-40.37 8.818-51.518 22.761-5.212 6.519-8.286 12.415-10.222 22.624-.526 2.778-1.282 8.339 0 10.903 2.234 4.468 17.721 5.435 22.624 2.453 4.208-2.558 3.299-11.194 5.997-15.673 4.763-7.91 18.958-17.435 29.847-19.081v.136L79.05 54.076l-5.452 29.166-21.807 4.225c-4.161.966-7.836.828-8.723 5.043-1.931 9.188 17.274 8.815 25.895 8.723l-3.543 15.674c-3.58 14.023-9.49 37.102-18.944 44.566-2.704 2.136-7.038 3.106-11.857 2.045l-15.81-4.771c-2.44-.773-5.938-2.331-9.541-1.635-8.29 1.6-12.974 15.689-5.588 21.533 10.739 8.496 34.33 8.871 47.974 2.998 19.67-8.467 27.602-27.222 34.072-48.928l2.999-15.265 3.135-16.354 50.155-1.636-2.862 5.451c-1.602 3.666-2.738 7.713-3.68 11.994-1.097 4.988-1.892 12.4-.954 18.263.624 3.897.493 7.188 1.363 10.631 3.567 14.12 10.866 24.708 25.759 27.53 9.883 1.873 18.357-2.34 23.714-6.133 13.083-9.263 24.596-31.256 19.217-55.197a60.364 60.364 0 0 0-4.498-12.947l.545-.954c2.241.821 4.136 2.779 5.997 4.089 3.679 2.587 6.937 5.277 10.358 8.041l8.041 7.768 6.951 6.679c-.795 16.017-8.601 45.982 9.131 48.928 8.728 1.45 11.075-7.122 13.629-12.13l22.761-44.976h1.363c-1.646 16.391-7.043 48.027 6.133 56.015 4.323 2.622 12.774.209 16.627-1.362 7.298-2.976 14.306-6.554 20.853-10.358l10.085-5.314 5.179-3.953v-2.044h.136c.714 4.173 2.988 8.146 4.906 11.312 2.459 4.058 5.348 7.649 9.404 10.086 5.43 3.262 13.989 3.042 20.308.817 12.446-4.382 22.297-11.887 33.527-17.309h1.908m-225.421-13.081c-1.128 2.757-2.264 5.001-3.816 7.224-2.049 2.934-4.673 7.277-10.494 6.27-10.707-1.854-13.947-14.808-11.584-28.076 1.955-10.981 5.332-21.795 12.811-27.258 1.473-1.076 3.101-1.326 4.906-2.181 18.038-.233 12.709 32.944 8.177 44.021zm176.904-86.817c2.897-10.509 5.042-22.023 10.767-29.848.852-1.164 1.979-1.714 3.135-2.589 7.216.038 6.473 8.255 4.77 13.765-2.491 8.059-6.22 15.906-10.222 22.761l-5.86 10.222c-1.442.648-4.101-.087-5.997-.136l3.407-14.175zm46.611 76.595c-6.453 7.181-20.529 15.589-30.529 19.217-6.504 2.36-14.15 1.27-17.445-3.407-3.191-4.529-4.248-14.507-2.999-22.352l.409-11.176.682-12.402c2.379-4.756 8.264-8.706 10.494-13.765 2.043-.911 6.396-.273 8.995-.273h20.853c2.658 0 7.23.637 9.131-.408h.409v44.566z"/><g fill-rule="evenodd" clip-rule="evenodd"><path d="M1153.423 87.199c3.421-.032 11.931-.87 14.446.271l20.988 28.758h.273V87.199h13.765v53.153c-2.083.03-12.503.48-13.356-.273-7.449-10.084-14.901-20.172-22.352-30.256v30.529h-13.765l.001-53.153zM1214.617 87.199h38.979v11.993h-25.214v8.178h24.669v11.993h-24.669v8.995h25.214v11.994h-38.979V87.199zM1260.818 87.199h43.477v11.993h-14.855v41.16h-13.766v-41.16h-14.855l-.001-11.993zM1134.615 126.314c10.688-.314 11.182 13.273 2.18 14.991-5.431 1.036-10.143-4.515-8.313-9.813 1.072-3.103 3.192-3.877 6.133-5.178z"/></g><g fill-rule="evenodd" clip-rule="evenodd" fill="#020202"><path d="M1064.153 61.712c17.142-.32 30.638 4.432 40.614 11.449 1.801 1.268 3.998 2.351 5.314 4.088-5.178 6.769-10.357 13.54-15.537 20.308a78.472 78.472 0 0 0-.408-.408c-3.583-1.592-6.654-4.711-10.494-6.406-5.307-2.342-10.848-3.294-17.582-4.497-6.75-1.206-17.235 1.497-15.4 8.858 1.556 6.24 19.263 8.146 26.304 9.949 17.747 4.543 31.88 10.148 35.436 29.03.742 3.939.513 9.257-.409 12.946-.883 3.54-2.003 6.986-3.68 9.813-12.39 20.889-50.186 23.722-74.822 11.857-3.309-1.593-15.061-8.067-15.401-11.039l14.855-20.989.682.682 2.589 2.316 6.543 4.635c7.318 4.385 13.913 5.403 24.396 6.95 6.83 1.009 17.614-3.104 16.628-9.54-.887-5.777-8.357-6.697-13.766-8.041-14.006-3.482-27.801-5.393-37.616-12.812-8.295-6.269-14.55-21.134-9.132-35.026 3.191-8.18 8.902-13.933 16.082-18.126 4.599-2.686 10.302-4.142 16.355-5.315l8.449-.682zM510.271 63.348l29.03.136v45.93c-.001 20.17-1.816 33.977 13.493 39.388 3.395 1.199 9.05 2.228 13.902 1.363 8.538-1.522 14.294-5.414 17.172-12.539 2.08-5.15 1.636-12.943 1.635-20.171V81.066l.136-17.718 28.757.136v50.154c.001 11.132.468 22.741-2.181 31.211-4.503 14.399-14.176 23.307-28.621 27.803-4.966 1.547-16.076 3.526-23.169 2.998-7.019-.522-12.782-.871-18.399-2.589-14.229-4.351-24.745-13.008-29.302-26.985-2.806-8.605-2.454-20.406-2.454-32.028l.001-50.7zM628.708 63.348h20.988c2.495 0 6.849-.589 8.586.409l44.021 59.831.136-60.24 28.621.136-.136 110.122H711.57c-2.421 0-6.434.573-8.313-.272l-46.066-63.102-.136 63.374-28.484-.136.137-110.122zM883.979 148.666h44.157l-.136 24.94-72.643-.136.137-110.123 28.484.136.001 85.183zM1016.451 88.289h-52.198v17.036l51.108.136-.137 24.806h-50.972v18.399h52.198l-.136 24.94-80.684-.136.136-110.123 80.684.136.001 24.806zM848.27 112.14c-.905-5.275-1.537-10.177-3.271-14.583-6.933-17.616-20.567-28.031-40.478-32.709-7.627-1.792-17.004-1.5-26.305-1.499H742.78l-.136 110.123 31.483.136c8.553 0 18.021.757 25.622-.682 20.657-3.907 35.864-12.625 43.34-29.575 3.391-7.685 7.216-19.372 5.181-31.211zm-51.381 35.708c-7.059 1.754-17.278.891-25.623.818V88.289c16.877-.045 32.34-.765 40.07 8.178 2.744 3.175 5.141 6.801 6.541 11.313 6.288 20.243-5.881 36.316-20.988 40.068zM405.9 154.396v19.081l26.44.136h28.484c7.539 0 15.193.26 20.989-1.499 6.344-1.925 11.756-5.442 15.265-10.222 9.729-13.254 5.927-32.707-5.452-41.023-2.432-1.777-5.564-3.833-9.404-4.089v-.136c20.891-4.876 24.115-34.77 7.632-46.884-8.967-6.591-20.333-6.407-35.98-6.406h-47.837l-.136 7.905m28.62 16.22h20.716c4.005 0 8.733-.402 11.448.954 2.357 1.178 4.202 3.448 4.77 6.405 1.054 5.492-2.531 8.957-5.86 10.222-2.492.947-6.542.546-9.813.546h-21.261V87.479zm33.391 61.193c-2.893 1.195-7.581.819-11.585.818h-21.806v-19.626h21.943c3.526 0 8.068-.478 10.767.546 3.315 1.256 5.671 3.787 6.406 7.631 1.061 5.558-2.426 9.268-5.725 10.631z"/></g></svg>