<svg id="Layer_1" xmlns="http://www.w3.org/2000/svg" viewBox="0 0 500 450"><style>.st0{fill:#696076}</style><path class="st0" d="M8.2 160.9c-3.4 0-6.3-3.4-6.3-6.7 0-4.1 3.7-6.1 11.2-6.1L54.8 30.3c-4.9-1.8-7.3-4.5-7.3-8.3 0-4.1 3.9-6.1 12-6.1h15.4c2.2.4 3.5 2 3.9 4.9 0 2.2 0 4.5.2 6.9l44.8 120.9c8.5 0 12.6 2.2 12.6 6.3 0 3.4-3.9 5.9-7.7 5.9h-19.3c-7.5 0-11.2-2-11.2-6.1 0-3.7 2.4-5.5 6.9-5.5l-11.2-36.9h-57L26 148.1c4.3.8 6.5 2.8 6.5 5.7 0 4.7-3.7 7.1-11.2 7.1H8.2zM55.7 59.5l-15.6 42.4H90l-15.8-39C71 55 67.7 46.1 64.3 36.5c-.8 3.7-2 7.7-3.7 11.6l-4.9 11.4zM168.9 54l30.8-3.5c1.8-.2 8.7 0 20.3.2 9.3.2 15 1.6 17 3.9 1 1.4 1.6 3.5 1.6 6.5 0 1.4-.2 6.1 0 8.3.2 5.1-.4 13-1.2 23.7l-1.8 23.1c-.2 3-.4 5.9-.4 8.5 0 3.7.8 10.5 2.4 20.1.4 1.8 1.2 3.4 2.4 5.1 1.8 2.2 2.8 3.7 3 4.3-3.2 1.8-5.5 2.8-6.9 2.8-2.2 0-4.5-1-7.3-2.8-1-2-2.2-5.5-3.5-10.6-10.1 8.7-22.1 13-35.7 13-3.2 0-6.9-.4-11-1.4-4.9-1.2-8.3-2.6-10.1-4.1-6.1-5.3-9.1-12-9.1-19.9 0-4.3 1-8.9 3.2-13.4.6-1.4 2.8-4.5 6.5-9.5 5.7-7.7 15-11.6 27.8-12 3.5-.2 8.5.2 14.6 1 7.3 1 11.8 2.2 13.4 3.5 0-1 1-3.9 1-4.5 0-2.2.2-5.5.4-10.1s.4-7.9.4-10.1c0-6.3-.6-10.1-1.8-11-2-1.8-5.3-3-10.3-3h-13.4c-11.6 0-21.5 1-29.6 3.2L168.9 54zm2.6 11.2L168.9 54l2.6 11.2zm41.4 39.9c-2-.6-5.9-1.2-11.6-1.6-6.3-.4-12.4 1.8-18.1 6.5-2.4 1.8-4.9 4.9-7.7 9.5-1.6 2.4-2.4 6.1-2.4 11 0 12 6.5 18.1 19.5 18.1 7.3 0 15.6-2.2 24.1-7.3 4.7-2.8 6.9-8.7 7.1-16.8.2-8.5-.8-13.6-3-15-3.7-2.4-6.3-3.8-7.9-4.4zM268.5 160.9c-3 0-5.3-3.4-5.3-6.5 0-3 1.8-4.5 5.3-4.7V31.9c-3.5-1.8-5.3-3.9-5.3-6.1 0-2.4 1.8-4.1 5.3-5.1l54 1c9.7.2 18.3 1.8 26 5.1 3.7 1.8 6.5 3.2 8.1 4.1 2.6 1.6 4.5 3.7 6.1 6.3 4.3 6.9 6.5 13 6.5 18.5 0 6.7-3.2 13.4-9.7 19.9-3 3-6.3 4.9-10.1 6.3-6.1 2.2-15.8 3.4-28.8 3.7 15.6.4 26.6 1.8 33.1 4.3 2.6 1 6.1 3.5 10.6 7.5 7.1 6.3 10.6 13.2 10.6 20.5 0 14.2-4.5 24.1-13.6 29.6-6.1 3.7-11 6.5-14.4 7.9-8.1 3.5-16 5.3-23.9 5.3h-54.5zm13-129.4V80l37.3-2c7.3-.4 13.2-1.2 17.7-2.6 8.9-2.6 14.6-4.9 17.6-7.1 3.7-2.6 5.5-6.5 5.5-12.2 0-4.3-1.4-8.9-4.3-13.4-2-3.2-7.7-6.3-17.4-9.3-4.1-1.4-11.2-2-21.5-2h-34.9zm0 62.3V149h41.8c7.5 0 12.4-.6 14.6-1.6 8.1-3.9 12.2-5.9 12.4-5.9 4.1-2.6 7.3-5.7 9.5-9.7 1.8-3.5 2.8-7.5 2.8-12 0-5.3-1.4-9.9-4.1-13.6-1.4-2.2-7.1-4.9-17-8.3-3-1-9.9-2-20.7-2.4l-39.3-1.7zM402.4 160.9c-3.4 0-4.9-1.8-4.9-5.1 0-2.8 1.6-4.3 4.9-4.9V11.2c-3.7 0-7.9-2.8-7.9-6.1 0-3 2.6-4.5 7.9-4.5h14.4c4.5 0 6.7 1.4 6.7 4.1 0 3-3 6.5-5.9 6.5h-.8v69.4c11.6-2.8 21.1-4.1 28-4.1 9.7 0 15.8.4 17.9 1l8.7 2.2c6.3 1.6 10.8 5.1 16.2 8.7 3.2 2 4.9 4.3 6.1 6.9 3.2 6.9 5.1 12.8 5.1 17.7 0 8.1-.6 14.4-1.8 18.9-1.4 5.9-4.1 11.6-8.3 17-6.5 8.3-20.1 12.2-40.8 12.2-8.5 0-14.6-.2-18.1-1-6.5-1.4-11.2-4.1-14.2-8.7 2.8 1.4 4.1 3.2 4.1 5.3 0 2.8-1.4 4.1-4.1 4.1h-13.2zm17.2-24.5c4.5 7.7 13.8 11.6 27.8 11.6 4.5 0 9.5-.8 14.8-2.2 6.1-1.6 10.6-3.5 13.6-5.9 5.5-4.5 8.3-11.6 8.3-21.7v-5.7c0-7.9-5.3-14.8-14.8-20.9-3-2-6.1-3.2-9.3-3.5-1-.2-4.3-.2-9.9-.2-12 0-20.5 2-25.4 5.9-1.4 1-3 3.2-4.9 6.3-3 4.7-4.3 9.3-4.3 13.6-.1 10.9 1.3 18.4 4.1 22.7zM61.6 369.2c3.7-6.7 8.1-15.4 12-26.4l1.2-3.4.4-1-46.9-69.8c-5.5-1.6-8.3-3.9-8.3-7.1 0-1.8 1.2-3.4 3.7-4.3h15.8c4.5 0 9.3 2.4 9.3 6.5 0 2.6-2 4.3-5.7 4.9l38.1 57.2 32.7-60.1c-.6.2-1 .2-1.2.2-3.5 0-5.3-1.8-5.3-5.3 0-4.1 3.4-6.1 10.1-6.1h20.3c3.4 0 5.1 1.6 5.1 4.1 0 3.9-4.9 7.3-9.5 8.1L93 340.1l-7.5 13.4c-3.7 6.9-7.1 14.2-9.9 21.5L69 391.7c3.7 0 5.7 1.4 5.7 4.1S73.2 401 70 403c-2.6 1.8-5.5 2.6-8.5 2.6l-18.5.3c-3.7 0-6.7-2.6-6.7-6.3 0-5.3 4.5-7.9 13.8-7.9 3.4-6.7 6.7-14.4 11.5-22.5zM185.8 411.6c.8-1.2 2.6-4.5 5.5-10.6 3.2-6.5 5.3-11.4 6.5-14.6l1.2-3.4.4-1-33.3-60.3c-5.5-1.6-8.3-3.9-8.3-6.9 0-1.8 1.2-3.4 3.7-4.3h14.8c2.4 0 4.5.6 6.3 1.6 2.4 1.4 3.5 3.2 3.5 5.3 0 2.4-1.8 3.7-5.3 4.3l25.4 47.7 25-47.7c-.4.2-.8.2-1.2.2-3.5 0-5.3-1.8-5.3-5.1 0-4.1 3.4-6.3 10.3-6.3h20.1c3.5 0 5.3 1.6 5.3 4.1 0 2-1.2 3.7-3.5 5.5-1.8 1.4-3.9 2.2-6.1 2.6l-33.5 60.9c-3.4 6.1-10.5 17.6-17.6 35.5l-6.3 16c4.5 0 6.9 1.8 6.9 5.5 0 5.3-5.1 8.3-10.6 8.3l-18.7.2c-4.1 0-8.5-3.2-8.5-7.7 0-4.1 3.9-6.3 11.8-6.3 3.4-7.1 7.2-15 11.5-23.5zM268.6 407.9v-17.4l72.4-90.3c3.5-4.3 9.1-12 17.6-22.7-4.5-.6-10.5-.8-17.9-.8-14.2 0-31.4 1-51.3 2.8-1.8 8.9-4.7 13.2-9.3 13.2-3 0-5.3-2.6-7.1-7.5-1.4-3.9-2.2-7.3-2.2-10.3s.8-4.9 2.2-6.3c19.9-3 42.6-4.3 67.6-4.3 15.8 0 28.2.8 37.3 2.4v16.8l-90.7 112.6h74.7c.2-3.2 1.4-6.5 3.2-10.1 2.2-4.3 4.5-6.5 7.1-6.5 3.2 0 5.9 3.9 8.1 11.8.8 3 1.2 4.9 1.2 6.1 0 2.4-1.2 8.3-1.2 10.5H268.6zM479.6 405.9l-90.5 2v-14l65.1-77.7c-2.6.2-6.1.2-10.5 0-4.5-.2-7.7-.4-9.3-.4H407c-.8 6.9-3.7 10.5-8.7 10.5-3 0-4.7-1.6-5.5-4.7-1.4-3.4-2-6.5-2-9.5s.6-5.1 2-6.5h83.6v11.6l-68 80.5 58.6-2.8c.6-7.1 2.8-10.6 6.5-10.6 2.2 0 4.3 2.4 6.1 6.9 1.2 3.1 1.2 8 0 14.7z"/></svg>