<svg id="Layer_1" xmlns="http://www.w3.org/2000/svg" viewBox="0 0 500 425"><style>.st0{fill:#726882}</style><path class="st0" d="M21.3 98.4l-1.7-9.3c-.2-.7-.2-1.1-.2-1.5 0-.3.7-.6 2.2-.9 1.5-.2 2.4-.4 2.7-.4.2 0 .3.5.5 1.5l1.7 9.5c.8-.2 1.4-.2 1.8-.2h1.1c3.1 0 6.2.7 9.3 2 3.1 1.3 5.9 3 8.4 5s4.7 4.3 6.4 6.9c1.7 2.5 2.8 5 3.3 7.5 0 .5-.2 1.1-.7 1.7-.5.7-.9 1.1-1.2 1.2l-23 4.2.5 4.2c5.2-.3 9.6.8 13.2 3.3 3.6 2.5 5.4 5.2 5.4 8 0 3.3-1.2 6.2-3.6 8.7-2.4 2.5-5.4 4.4-9.2 5.8h18.6l4.2-24.5 2.9 1c.8 4.4 2.5 6.6 5.1 6.6 1.6 0 2.7-.3 3.3-1 .6-.7 1.5-1.9 2.8-3.7l4.4.7-3.9 20.8h3.7c1.8-4.2 3.5-8.1 5-11.5 1.5-3.4 2.8-6 3.8-7.8-.7-2-1.3-3.3-2-3.9-.7-.7-1-2-1-4.2 0-.8.1-1.7.2-2.7.2-1 .4-2 .7-2.9.2-.3.6-.8 1.2-1.5.7-.7 1.1-1.1 1.2-1.5l.7 3.9c.3-2.8.9-4.9 1.7-6.2.8-1.4 1.5-3 2.2-4.8.3.3.9.7 1.6 1 .7.3 1.3.7 1.6 1 .3 1.6.6 2.8 1 3.4.3.7.6 2 1 4.2.7-.8 1.1-1.6 1.5-2.2.3-.7.7-1.1 1.2-1.2.5.2.8.3 1 .5.2.2.4.2.7.2-.8.8-1.3 1.7-1.5 2.6-.2.9-.2 1.8-.2 2.6 0 5.4-1.8 8.7-5.4 10 2 0 3.3.2 4.2.5.8.3 2.1.6 3.9.7.3.2.5.4.6.6.1.2.3.5.6.6-.5.3-.9.7-1.1 1-.2.3-.9.7-2.1 1 1.3.2 2.8.3 4.4.4 1.6.1 3.6 1.2 5.9 3.3-.7 0-1.2.4-1.7 1.2-1.8 0-3.5.2-5.1.7.5.2 1.1.6 1.7 1.2.2.5.2 1.1.2 1.7-2.1-1.3-3.8-1.8-4.9-1.5-1 .3-2 .6-2.9.7-1 .2-1.9.2-2.7.2-2.8 0-4.8-1.1-6.1-3.4-.8 1.3-1.7 3-2.6 5.1-.9 2.1-1.9 4.4-3.1 6.9H93c2.3 0 3.4 1.1 3.4 3.2V355c0 2.3-1.1 3.4-3.2 3.4H11.7c-2.3 0-3.4-1.1-3.4-3.4V158.9c0-2.3 1.1-3.4 3.4-3.4h12.7c-2.8-.8-5.3-2.2-7.5-4-2.2-1.9-3.3-4.2-3.3-7 0-3.1 1.3-5.9 4-8.4s5.9-4.4 9.7-5.8l-.5-3.9-23.5 4.2c-.5 0-1.2-.2-2.1-.6-.9-.4-1.3-1.5-1.3-3.3 0-2.4.4-5.1 1.3-8.1.9-2.9 2.2-5.7 4-8.3 1.8-2.6 4-5 6.6-7.1 2.8-2.2 5.9-3.8 9.5-4.8zm-12.5 24c0 .5.3.9 1 1.2.6.3 1.2.4 1.7.2l12-2.2-9.1-10.8c-3.7 3.5-5.6 7.4-5.6 11.6zm8.1 222.8h71c1.6 0 2.4-.8 2.4-2.4V164c0-1.6-.8-2.4-2.4-2.4h-5.4L76.1 179h8.1v158.9c0 .8-.4 1.2-1.2 1.2H21.8c-.8 0-1.2-.4-1.2-1.2V179h16.2l-2.9-17.4h-17c-1.6 0-2.4.8-2.4 2.4v178.7c-.1 1.7.7 2.5 2.4 2.5zM27.4 105c-1.1 0-2.7.2-4.5.7-1.9.5-3.4 1.1-4.5 2l8.8 11 4.9-13.2c-1-.3-1.9-.5-2.8-.5h-1.9zm36 98.7l-20.8-12c-.3-.2-.8-.2-1.5-.2-1 0-1.6.4-2 1.2l-11.5 20.1c-.5.5-.7 1.1-.7 1.7 0 1.1.4 2 1.2 2.4l20.6 11.8c.6.3 1.2.5 1.7.5.8 0 1.5-.4 2-1.2l12-20.8c.2-.3.2-.7.2-1.2 0-1.1-.4-1.8-1.2-2.3zm-13.5 89.8l-21.1 7.6c-1.1.3-1.7 1.1-1.7 2.4 0 .2.1.6.4 1.2.2.7.4 1.1.6 1.5l7.3 20.6c.3 1 1.1 1.5 2.4 1.5.2 0 .6-.1 1.2-.2.7-.2 1.1-.3 1.5-.5l20.3-7.3c1.1-.5 1.7-1.3 1.7-2.4 0-.6-.2-1.3-.5-2l-7.6-21.3c-.3-1-1.1-1.5-2.4-1.5h-.6c-.1-.1-.7.1-1.5.4zM31.8 120.2l12-2c1.1-.3 1.7-1.1 1.7-2.4 0-1.3-.9-2.8-2.7-4.5-1.8-1.7-3.8-3.1-6.1-4l-4.9 12.9zm7.1 41.4l3.2 17.4h10.5l2.9-17.4H38.9zm37.2 98.6L55 252.6c-.8-.3-1.3-.5-1.6-.5h-.6c-1.3 0-2.1.5-2.4 1.5l-7.6 21.3c-.3.7-.5 1.3-.5 2 0 1.1.6 2 1.7 2.4l20.3 7.3c.3.2.8.3 1.5.5.6.2 1.1.2 1.2.2 1.3 0 2.1-.5 2.4-1.5l7.3-20.6c.2-.3.4-.8.6-1.5.2-.7.4-1.1.4-1.2.1-1.1-.5-1.9-1.6-2.3zm-4.2-85.9c.8-2.3 1.6-4.4 2.4-6.5.8-2 1.6-4.1 2.4-6.2h-2.4l-2.4 12.7zM210.5 240.4c0 6.2-.6 11.5-1.8 15.8-1.2 4.3-3.1 8-5.5 11.1-2.4 3.1-5.5 5.7-9.2 7.8-3.7 2.1-8 4.1-13.1 5.9-1 1.1-1.9 2.6-2.7 4.4-.8 1.8-1.2 3.3-1.2 4.4v52.9c3.3 2.6 6.4 5 9.3 7.1 2.9 2.1 6 3.4 9.1 3.9 1.3.3 2 1.2 2 2.6 0 1.4-.8 2.1-2.4 2.1h-42c-1.8 0-2.7-.7-2.7-2.1 0-1.4.7-2.2 2.2-2.6 3.1-.5 6.1-1.8 9.1-3.9 2.9-2.1 6-4.5 9.1-7.1v-52.9c0-1.1-.4-2.6-1.1-4.4-.7-1.8-1.6-3.3-2.6-4.4-4.9-1.8-9.2-3.8-13-5.9-3.8-2.1-6.9-4.7-9.5-7.8-2.6-3.1-4.6-6.8-5.9-11.1-1.3-4.3-2-9.6-2-15.8 0-3.4.1-8 .4-13.6.2-5.6.6-11.8 1-18.4.4-6.6.9-13.3 1.3-20.1.5-6.8.9-13 1.3-18.6.4-5.6.7-10.4 1-14.2.2-3.8.4-6 .6-6.5.3-1.8.7-3.1 1.2-3.8.5-.7 1.9-1.1 4.2-1.1h50.2c2.4 0 3.9.4 4.3 1.1.4.7.8 2 1.1 3.8 0 .5.2 2.7.6 6.5.4 3.8.9 8.6 1.5 14.2s1.2 11.8 1.8 18.6c.6 6.8 1.2 13.5 1.7 20.1.5 6.6.9 12.7 1.2 18.4.3 5.7.5 10.2.5 13.6zm-68.3 0c0 11.3 2.9 19.7 8.8 25.5 5.9 5.7 13.5 8.6 22.8 8.6s16.8-2.9 22.5-8.6c5.7-5.7 8.6-14.2 8.6-25.5 0-2-.2-5.4-.5-10.3s-.7-10.5-1.1-16.8c-.4-6.3-.9-12.9-1.3-19.7-.5-6.9-1-13.2-1.5-19.1-.5-5.9-.9-10.8-1.2-14.8-.3-4-.5-6.3-.5-7-.2-2.3-1.4-3.4-3.7-3.4h-44.3c-1.3 0-2.2.2-2.7.7-.5.5-.8 1.5-1 2.9 0 .5-.1 2.7-.4 6.6-.2 3.9-.6 8.8-1 14.6-.4 5.8-.8 12.2-1.2 19.1-.4 6.9-.8 13.5-1.1 19.8-.3 6.3-.6 11.9-.9 16.9-.2 5.1-.3 8.6-.3 10.5zm31.6 28.7c-9.3 0-16-2.6-20.1-7.7-4.1-5.1-6.1-12.1-6.1-20.9 0-2 .1-5 .2-9.1.2-4.1.4-8.2.6-12.4.2-4.2.5-7.9.7-11.1.2-3.3.4-5.1.6-5.4h47c.2.3.4 2.1.6 5.4.2 3.3.5 7 .7 11.1.2 4.2.4 8.3.6 12.4.2 4.1.2 7.1.2 9.1 0 8.7-1.9 15.6-5.8 20.8-3.6 5.1-10.1 7.8-19.2 7.8zm-7.4-46.8c0 2.3 1.1 3.4 3.4 3.4 1 0 1.8-.3 2.6-1 .7-.7 1.1-1.5 1.1-2.4 0-1-.4-1.9-1.1-2.7-.7-.8-1.6-1.2-2.6-1.2s-1.8.4-2.4 1.2c-.6.8-1 1.7-1 2.7zm1 26.7c0 2.6 1.3 3.9 3.9 3.9 2.6 0 3.9-1.3 3.9-3.9 0-2.6-1.3-3.9-3.9-3.9-2.6 0-3.9 1.3-3.9 3.9zm10.1-14.5c0 2 1 2.9 2.9 2.9s2.9-1 2.9-2.9-1-2.9-2.9-2.9-2.9 1-2.9 2.9zM273.4 108.9l8.1 46h26.2l2.4-12.7-24.7-6.9c-.3-.2-.7-.6-1.2-1.2-.5-.7-.7-1.2-.5-1.7.6-2.4 2-4.9 4-7.3 2-2.4 4.4-4.6 7.2-6.5 2.8-1.9 5.9-3.3 9.4-4.2 3.5-.9 7.1-1 10.6-.4l.7-4.9c-3.3-.8-5.9-2.6-8-5.3-2-2.7-3.1-5.8-3.1-9.2 0-4.1 1.4-7.5 4.2-10.4 2.8-2.9 6.2-4.3 10.3-4.3.8 0 1.4.1 1.7.2l2.4-13.7 4.9.7-2.9 15.9 1.2 2.7c1.1-.8 2.8-1.9 4.9-3.3 2.1-1.4 4.4-2.8 7-4.2 2.5-1.4 5.2-2.7 8.1-3.8 2.9-1.1 5.5-2 8-2.4l2.4 2.4c-1.8.2-4 .7-6.5 1.7s-5.1 2.1-7.7 3.4c-2.6 1.3-5.1 2.7-7.5 4.3-2.4 1.6-4.1 3-5.3 4.3 1 .7 1.9 1.3 2.8 2.1.9.7 1.3 2.2 1.3 4.3 0 3.9-1.3 7.3-3.9 10-2.6 2.8-5.8 4.3-9.5 4.7l-.7 5.9c3.6 1.3 6.7 3.2 9.4 5.6 2.7 2.4 4.9 5.2 6.5 8.2 1.6 3 2.7 6.1 3.2 9.3.5 3.2.4 6.1-.2 8.7-.2.5-.6 1-1.2 1.5-.7.5-1.2.7-1.7.5l-21.1-5.6-2.2 11.5h21.3c.8 0 1.2.5 1.2 1.5 0 1.8-.7 3.8-2.1 6-1.4 2.2-2.4 4.2-3.1 6-1.8 4.9-2.7 10.7-2.7 17.4 0 4.7.6 10.2 2 16.4 1.3 6.2 2.7 12.5 4.3 18.9 1.5 6.4 3 12.4 4.3 18.2 1.3 5.8 2 10.6 2 14.3 0 6.9-.9 12.4-2.7 16.6-1.8 4.2-4.3 7.8-7.6 10.6-3.3 2.9-7.1 5.3-11.6 7.5-4.5 2.1-9.4 4.6-14.8 7.3-1 1.3-2.1 3.2-3.3 5.6-1.2 2.4-1.8 4.2-1.8 5.4v31.3c1.5 1.1 3.2 2.6 5.1 4.3 2 1.7 3.9 3.3 5.9 4.9 2 1.6 3.9 3 5.9 4.3 2 1.3 3.7 2 5.1 2.2 1.3.3 2 1.2 2 2.6 0 1.4-.8 2.1-2.4 2.1h-52.1c-1.6 0-2.4-.7-2.4-2.1 0-1.4.6-2.2 2-2.6 1.5-.2 3.1-.9 4.9-2.2 1.8-1.3 3.6-2.7 5.5-4.3 1.9-1.5 3.8-3.2 5.8-4.9 2-1.7 3.9-3.1 5.9-4.3v-31.3c0-1.1-.8-2.9-2.3-5.4-1.6-2.4-3-4.3-4.3-5.6-4.7-2.6-9.3-5-13.8-7.2s-8.4-4.7-11.9-7.6c-3.4-2.9-6.2-6.4-8.3-10.6-2.1-4.2-3.2-9.8-3.2-16.6 0-3.8.6-8.5 2-14.3 1.3-5.8 2.7-11.9 4.3-18.2 1.5-6.4 3-12.6 4.3-18.9 1.3-6.2 2-11.7 2-16.4 0-6.7-.9-12.6-2.7-17.6-.5-1.5-1.4-3.3-2.8-5.6s-2.1-4.3-2.1-6.1c0-1 .4-1.5 1.2-1.5H272l-6.6-37.9-22.5 24.2c-.5.5-1.1.7-1.7.7-.8 0-1.7-.5-2.7-1.5l-2-2.4c-.8-.8-1.2-1.7-1.2-2.7 0-.5.2-1 .7-1.5l25.7-27.7c.8-.8 1.9-1.2 3.2-1.2 1.8 0 3.6.3 5.5 1 1.6.8 2.7 1.7 3 3zm-22.8 144.7c0 5.6 1.4 10.5 4.3 14.8 2.9 4.3 6.4 8 10.6 11 4.2 3 8.9 5.3 13.8 6.9 5 1.6 9.7 2.3 14.1 2.3 4.1 0 8.5-.8 13.2-2.4 4.7-1.6 9.1-4 13.2-7s7.5-6.7 10.2-11c2.7-4.3 4-9.2 4-14.6 0-3.1-.7-7.5-2-13.2-1.3-5.7-2.8-11.8-4.4-18.2-1.6-6.4-3.1-12.9-4.4-19.5-1.3-6.5-2-12.2-2-16.9 0-4.4.2-8.1.7-11.1.5-3 1-5.5 1.6-7.5.6-2 1.1-3.4 1.6-4.4.5-1 .7-1.7.7-2.2h-14.4l-2.2 13.5h6.9c-.3 2-.5 4-.6 6-.1 2-.1 4-.1 5.8 0 6.7.6 13.4 2 20.1 1.3 6.7 2.7 13.1 4.3 19.1 1.5 6 3 11.5 4.3 16.5 1.3 5 2 9 2 12.1 0 4.1-.9 7.9-2.6 11.4-1.7 3.5-4.1 6.6-7.2 9.2-3.1 2.6-6.8 4.7-11 6.1-4.2 1.5-8.8 2.2-13.7 2.2-4.9 0-9.6-.7-14.1-2.2-4.5-1.5-8.4-3.5-11.8-6.1-3.3-2.6-6-5.7-8.1-9.2-2-3.5-3.1-7.3-3.1-11.4 0-3.1.7-7.1 2-12.1s2.8-10.5 4.4-16.5c1.6-6 3.1-12.4 4.4-19.1 1.3-6.7 2-13.4 2-20.1 0-1.8-.1-3.7-.2-5.8-.2-2-.4-4-.7-6h6.6l-2.2-13.5H258c0 .5.3 1.2.9 2.2.6 1 1.2 2.4 1.8 4.4.7 2 1.3 4.4 1.8 7.5.6 3 .9 6.7.9 11.1 0 4.9-.7 10.6-2 17.1-1.3 6.5-2.8 13-4.4 19.5-1.6 6.5-3.1 12.5-4.4 18.1-1.3 5.7-2 10-2 13.1zm31.9-93l2.2 13.5h19.8l2.2-13.5h-24.2zm12-29.9c-.3 1.3.2 2.1 1.5 2.4l12 3.2-3.7-13.7c-2.4.8-4.6 1.9-6.4 3.3-1.8 1.4-2.9 3-3.4 4.8zm21.5-8.8c-2-.7-4.2-.8-6.9-.5l3.4 13.7 9.8-9.8c-2-1.7-4.2-2.9-6.3-3.4zm0 16.7l11.8 3.2c1.1.3 2-.1 2.7-1.2.3-1.8.1-3.8-.7-5.9-.8-2.1-2.1-4.1-3.9-5.9l-9.9 9.8zM378.9 343.2V198.3c0-1.3.4-2.7 1.2-4.3.8-1.5 1.8-3.1 2.9-4.5 1.1-1.5 2.4-2.8 3.7-3.9 1.3-1.1 2.5-2 3.7-2.4V159c0-2.3 1.1-3.4 3.4-3.4h65.4l5.4-29.1 9.8 1.7-4.9 27.4h15.9c2.3 0 3.4 1.1 3.4 3.2v24.5c1.1.5 2.4 1.3 3.7 2.4 1.3 1.1 2.5 2.4 3.7 3.9 1.1 1.5 2.1 3 2.9 4.5.8 1.6 1.2 3 1.2 4.3v145.2c0 1.8-.5 3.6-1.3 5.4-.9 1.8-2 3.4-3.4 4.8s-2.9 2.5-4.7 3.4c-1.7.9-3.5 1.3-5.3 1.3h-91.8c-1.8 0-3.6-.4-5.4-1.3-1.8-.9-3.4-2.1-4.8-3.6s-2.5-3.1-3.4-4.9c-.8-1.9-1.3-3.7-1.3-5.5zm12.3-11V204.9c0-3.4 1.1-6.6 3.2-9.5 2.1-2.9 4.9-4.4 8.3-4.4h50.2l5.4-29.4H399c-1.6 0-2.4.8-2.4 2.4v22.8c-1.1.5-2.4 1.2-3.7 2.2-1.3 1-2.5 2.1-3.7 3.4-1.1 1.3-2.1 2.7-2.9 4.2-.8 1.5-1.2 2.9-1.2 4.2v137.3c0 1.6.4 3.3 1.2 5 .8 1.7 1.9 3.2 3.3 4.5 1.4 1.3 2.9 2.4 4.5 3.3a10 10 0 0 0 4.9 1.3h81.3c1.6 0 3.3-.4 4.9-1.2 1.6-.8 3.1-1.9 4.5-3.3s2.5-2.9 3.3-4.5c.8-1.6 1.2-3.3 1.2-4.9V200.7c0-1.3-.4-2.7-1.2-4.2-.8-1.5-1.8-2.9-2.9-4.2-1.1-1.3-2.4-2.4-3.7-3.4-1.3-1-2.5-1.7-3.7-2.2V164c0-1.6-.8-2.4-2.4-2.4h-12l-5.1 29.4h13.5c3.4 0 6.2 1.5 8.3 4.4 2.1 2.9 3.2 6.1 3.2 9.5V332c0 3.4-1.2 6.7-3.5 9.7-2.4 3-5.3 4.5-8.7 4.5h-72.5c-3.4 0-6.3-1.5-8.7-4.4-2.5-3-3.6-6.2-3.6-9.6zm34.2-39.2l-23 5.9c-.7.3-1.2.8-1.6 1.5-.4.7-.5 1.2-.1 1.7l5.9 23c.3.7.8 1.2 1.5 1.6.7.4 1.2.5 1.7.1l22.8-5.9c.8-.3 1.4-.8 1.8-1.3.4-.6.4-1.2.1-1.8l-5.9-23c-.3-.7-.8-1.2-1.5-1.6-.6-.4-1.2-.5-1.7-.2zm-16.6-7.1l42.6-29.4c.3-.3.6-.9.9-1.8.2-.9.2-1.5-.1-1.8-1.6-2.3-4-4.3-7-6-3-1.7-6.3-2.9-9.8-3.4-3.5-.6-7.2-.6-11 0s-7.3 2-10.4 4.3c-3.4 2.3-6.1 5.1-8 8.6-1.9 3.4-3.1 6.9-3.8 10.5-.7 3.6-.7 7.1-.1 10.5.6 3.4 1.7 6.3 3.3 8.6.3.2.9.3 1.6.5.7.1 1.3-.1 1.8-.6zm21.8-52.6c.5-4.6.7-8.6.6-12.2-.1-3.6-1.3-6.9-3.5-9.8-1.3-1.6-2.9-2.9-4.7-3.9-1.8-1-3.7-1.8-5.8-2.4-2-.6-4.2-1.2-6.4-1.6-2.2-.4-4.4-.9-6.5-1.3 0 4.4.1 8.9.4 13.3.2 4.5 1.8 8.3 4.5 11.4 2.4 2.8 5.4 4.5 8.9 5.1 3.6.6 7.7 1.1 12.5 1.4zm-19.8 43.3c-1-1.6-1.4-3.6-1.3-5.9.1-2.3.5-4.6 1.3-6.9l13 6.1-10 6.9c-.5.3-1 .5-1.6.4-.7 0-1.1-.2-1.4-.6zm7-22.2c2-1.5 4.2-2.4 6.9-2.9l1 14-12.2-6.1c.3-1 .9-2 1.8-2.9.9-1.2 1.7-1.8 2.5-2.1zm22.8 3.9l-9.8 6.6-1.2-14c2.4.2 4.8.5 7 1.1 2.2.6 3.8 1.6 4.8 3.1.3.3.4.9.2 1.6-.2.7-.5 1.3-1 1.6zm25.5-54.9l-22.5 8.1c-.5.3-.9.8-1.3 1.5s-.5 1.2-.1 1.7l8.1 22.5c.3.5.8.9 1.5 1.3.6.4 1.2.5 1.7.1l22.3-8.1c.6-.3 1.2-.8 1.6-1.3.4-.6.4-1.2.1-1.8l-8.1-22.5c-.3-.5-.8-.9-1.5-1.3-.8-.4-1.3-.5-1.8-.2zm10.7 105.3l-22.5-8.1c-.5-.3-1.1-.3-1.7.1-.7.4-1.1.9-1.5 1.3l-8.1 22.5c-.3.7-.3 1.3.1 1.8.4.6.9 1 1.6 1.3l22.3 8.1c.5.3 1.1.3 1.7-.1.6-.4 1.1-.9 1.5-1.3l8.1-22.5c.3-.5.3-1.1-.1-1.7-.4-.6-.9-1.1-1.4-1.4zm5.4-45.3c-4.4-1.3-8.4-2.3-12-2.9-3.6-.7-7-.1-10.3 1.7-3.8 2-6.5 5-8.2 9.2-1.7 4.2-3.3 8.3-4.8 12.4 2.1.3 4.3.7 6.5 1 2.2.3 4.4.6 6.5.7 2.1.2 4.2.1 6.2-.2 2-.3 4-1.1 5.8-2.2 3.1-2 5.3-4.7 6.6-8.1 1.4-3.5 2.6-7.3 3.7-11.6z"/></svg>