<svg id="Layer_1" xmlns="http://www.w3.org/2000/svg" viewBox="0 0 500 425"><style>.st0{fill:#726882}</style><path class="st0" d="M20.9 126.3l19-112.8 49-11.9 22.2 131.6 8.4.2 1.3 10.3-39.3 5v-9.8l6.7-2.5-5-43.1-36-5.9-5.2 42.5 6.1.6v9.2l-34.9-4 1.1-10 6.6.6zM34 113.2c2.5 0 3.8-1.3 3.8-3.8s-1.3-3.8-3.8-3.8-3.8 1.3-3.8 3.8 1.3 3.8 3.8 3.8zm6.1-32.9c2.5 0 3.8-1.3 3.8-3.8s-1.3-3.8-3.8-3.8-3.8 1.3-3.8 3.8 1.3 3.8 3.8 3.8zm5.4-35.2c2.5 0 3.8-1.3 3.8-3.8s-1.3-3.8-3.8-3.8-3.8 1.3-3.8 3.8 1.3 3.8 3.8 3.8zm4.7 30L81 80.8 71.5 24 56 27.8l-5.8 47.3zM84 41c2.5 0 3.8-1.3 3.8-3.8s-1.3-3.8-3.8-3.8-3.8 1.3-3.8 3.8S81.5 41 84 41zm6.1 37.8c2.5 0 3.8-1.3 3.8-3.8s-1.3-3.8-3.8-3.8-3.8 1.3-3.8 3.8 1.3 3.8 3.8 3.8zm5 34.6c2.5 0 3.8-1.3 3.8-3.8s-1.3-3.8-3.8-3.8-3.8 1.3-3.8 3.8 1.3 3.8 3.8 3.8zM153.5 73.8c-3.8-10-7.5-19.9-13.4-29.7l12.3-1.1 3.8 8.6c3.1-4.6 8.2-8 15.5-10.2 7.3-2.3 14.4-3.4 21.1-3.4 16.7 0 26.8 5 30.6 15.1 1.5 4 2.3 10.2 2.3 18 0 7.3-1 19.9-2.7 38.1-1.7 18.2-2.9 28.2-3.1 30.1l10.5.6-.4 11.3-45.2 2.3V143l11.7-1.1.8-11.3c-9.8 7.5-19.7 11.1-29.5 11.1-7.9 0-14-2.7-18.8-8.2-4.8-5.6-7.1-12.1-7.1-19.2 0-10 4.6-18.6 13.8-26 8.6-6.9 18-10.3 28.2-10.3 4.2 0 9.6.8 15.9 2.3l-.4-19.3c-1-5.6-6.1-9-15.3-10.7-4.4-.8-11.1.2-15.1 3.1-2.1 3.1-4.4 6.1-6.7 9.2l3.3 8.2-12.1 3zm2.1 34.1c0 5.9 3.3 11.3 9.8 16.5 2.5 1.3 5.4 1.9 8.6 1.9 7.9 0 15.3-3.6 22.8-10.7l2.3-23.6c-4.6-2.1-9-3.1-13.2-3.1-4.4 0-8.6 1-12.3 2.9-3.6 1.7-9.2 5.2-16.5 10-.9 1.9-1.5 4-1.5 6.1zm52.5 26.6c2.5 0 3.8-1.3 3.8-3.8s-1.3-3.8-3.8-3.8-3.8 1.3-3.8 3.8c-.1 2.5 1.3 3.8 3.8 3.8zm2.3-37.5c2.5 0 3.8-1.3 3.8-3.8s-1.3-3.8-3.8-3.8-3.8 1.3-3.8 3.8 1.3 3.8 3.8 3.8zm1.1-33.4c2.5 0 3.8-1.3 3.8-3.8S214 56 211.5 56s-3.8 1.3-3.8 3.8 1.3 3.8 3.8 3.8zM245.4 6.7c32.4-3.8 54-5.7 64.9-5.7 14.7 0 24.3 3.1 28.5 9 4.8 6.9 7.3 14 7.3 21.1s-2.3 13.4-7.1 18.6l-15.3 8.4c9.6 2.1 16.3 4.4 19.9 7.1 4.8 3.4 9.6 10.2 14.4 19.9 1 6.1 1.3 12.1 1.3 17.6 0 16.9-6.7 24.9-23 32.8-7.3 1.3-16.3 1.9-27 1.9-13.2 0-34.5-1.3-64.2-4.2l-.6-10.2 23.9 2.3-.6-109-23.7 1.9 1.3-11.5zm32 26.5c2.5 0 3.8-1.3 3.8-3.8s-1.3-3.8-3.8-3.8-3.8 1.3-3.8 3.8 1.3 3.8 3.8 3.8zm.6 38.5c2.5 0 3.8-1.3 3.8-3.8s-1.3-3.8-3.8-3.8-3.8 1.3-3.8 3.8c-.1 2.4 1.3 3.8 3.8 3.8zm1.1 37.7c2.5 0 3.8-1.3 3.8-3.8s-1.3-3.8-3.8-3.8-3.8 1.3-3.8 3.8 1.3 3.8 3.8 3.8zm9.6-56.9c3.3.6 11.1 1.5 23.2-2.5 7.7-2.7 12.3-5.9 13.6-9.4 1.3-3.4 2.1-6.9 2.1-10.5 0-12.4-3.3-17.6-15.3-17.6-2.5 0-6.3.6-11.5 1.5s-9.2 1.3-12.1 1.1v37.4zm1.9 70.9c12.1 1.1 19 1.7 20.7 1.7 12.4 0 21.1-2.9 26.2-8.4 1.7-7.5 2.5-13.2 2.5-17.2 0-5.2-1.3-11.5-4.2-18.8-5.9-5.2-13.2-8.4-22-10-2.5-.4-10.7-1-24.3-1.5l1.1 54.2zM472.5 105c0 7.1-1.7 13.8-5.4 20.5-3.4 6.7-8.2 11.1-14.2 13.6-9.4 2.7-19.9 4-31.6 4-16.9 0-32.4-2.5-46.7-7.7v-11.1l16.5 2.9L394 27l-11.7-1.7 2.3-10.3 40.2 4.4v10.5l-9.8-.6-1.7 54.6c10.5-8.6 19-13 25.1-13 5.6 0 12.3 2.3 20.1 6.9 9.4 5.6 14 14.6 14 27.2zm-75.6 9.4c0 2.5 1.1 3.8 3.6 3.8s3.8-1.3 3.8-3.8-1.3-3.6-3.8-3.6c-2.5-.1-3.6 1.1-3.6 3.6zm2.3-39.5c0 2.5 1.1 3.8 3.6 3.8s3.8-1.3 3.8-3.8-1.3-3.6-3.8-3.6-3.6 1.1-3.6 3.6zm1.5-32.7c0 2.5 1.2 3.6 3.6 3.6s3.8-1.1 3.8-3.6-1.3-3.8-3.8-3.8-3.6 1.3-3.6 3.8zm58.4 62.2c0-4-1.9-8.6-5.7-13.4-3.8-4.8-8.4-7.3-13.6-7.3-3.6 0-8.2 1.5-14 4.6-2.3 1.1-6.7 3.8-13 7.9l-2.3 33.7c12.1 1.5 18.4 2.3 19 2.3 10.5 0 18.2-3.3 23-9.8 4.3-8.6 6.6-14.7 6.6-18zM73.2 306.3l-40-51.3-13.2 5.9-8.2-10.7 37-16.7 7.1 12.8-10 3.1 33.7 46.7 23-45.2-13.4-4.8 3.6-13.6 48.3 22.6-6.7 12.6-12.6-8.2-51.1 95.6 12.6 2.3-1 13.8-45-7.7v-14.4l13.4 2.1 22.5-44.9zm-9 31c0 3.1 1.5 4.6 4.4 4.6 3.1 0 4.6-1.5 4.6-4.6 0-2.9-1.5-4.4-4.6-4.4-2.8 0-4.4 1.5-4.4 4.4zm17.6-32.9c0 3.1 1.5 4.6 4.4 4.6 3.1 0 4.6-1.5 4.6-4.6 0-2.9-1.5-4.4-4.6-4.4-2.8 0-4.4 1.5-4.4 4.4zm18.2-34.9c0 3.1 1.5 4.6 4.4 4.6 3.1 0 4.6-1.5 4.6-4.6 0-2.9-1.5-4.4-4.6-4.4-2.8 0-4.4 1.5-4.4 4.4zM268.8 300.7l-6.1 13.2-12.6-6.1-49.2 102.1 10 4-4.4 10.7-40.8-13.8 2.9-11.5 10.3 5.6 20.1-42.7-31.6-54.4-8.8 3.3-5.6-12.6 32-11.1 2.3 14-8.8 2.7 26.6 47.1 21.3-54.8-8.2-3.3 4.8-14.4 45.8 22zm-76.1 91.6c0 2.1 1.1 3.3 3.3 3.3 2.1 0 3.3-1.1 3.3-3.3s-1.1-3.3-3.3-3.3c-2.1 0-3.3 1.2-3.3 3.3zm18.4-34.7c0 2.1 1.1 3.3 3.3 3.3 2.1 0 3.3-1.1 3.3-3.3 0-2.1-1.1-3.3-3.3-3.3-2.1.1-3.3 1.2-3.3 3.3zm16.3-34.3c0 2.1 1.1 3.3 3.3 3.3 2.1 0 3.3-1.1 3.3-3.3 0-2.1-1.1-3.3-3.3-3.3-2.2.1-3.3 1.2-3.3 3.3zM386 346.7l-5.7 22.8-86.4-3.8v-13.6l67-103.2-55 4 .6 15.1-11.9 1.7-5.2-28.7 93.8-5.6 1.1 23-62.2 94 47.3 3.6 3.8-12.3 12.8 3zM313.2 336c0 3.1 1.5 4.6 4.4 4.6 3.1 0 4.6-1.5 4.6-4.6 0-2.9-1.5-4.4-4.6-4.4-2.9 0-4.4 1.5-4.4 4.4zm22.6-32.8c0 2.9 1.5 4.4 4.4 4.4 3.1 0 4.6-1.5 4.6-4.4 0-3.1-1.5-4.6-4.6-4.6-2.9 0-4.4 1.6-4.4 4.6zm22-34.8c0 3.1 1.5 4.6 4.4 4.6 3.1 0 4.6-1.5 4.6-4.6 0-2.9-1.5-4.4-4.6-4.4-2.8 0-4.4 1.5-4.4 4.4zM402.1 272.2l82.7 2.9 1.7 12.8-57.5 66.7 40.8-.4-.6-8.8 18.2-2.3 1.7 27.2L402 368l-.6-13.2 56.1-66.8-36.8-1.7v11.1l-18.2 1.5-.4-26.7zm18.7 72c0 2.5 1.1 3.8 3.6 3.8s3.8-1.3 3.8-3.8-1.3-3.6-3.8-3.6c-2.4 0-3.6 1.1-3.6 3.6zm20.1-25.8c0 2.5 1.1 3.8 3.6 3.8s3.8-1.3 3.8-3.8-1.3-3.6-3.8-3.6-3.6 1.1-3.6 3.6zm22.1-21.5c0 2.5 1.2 3.8 3.6 3.8 2.5 0 3.8-1.3 3.8-3.8s-1.3-3.6-3.8-3.6-3.6 1.1-3.6 3.6z"/></svg>