<svg id="Layer_1" xmlns="http://www.w3.org/2000/svg" viewBox="0 0 500 450"><style>.st0{fill:#685f76}</style><path class="st0" d="M80.5 172v-6.4c3.2-.2 5.4-.9 6.7-2.1 1.3-1.3 2-2.9 2-5 0-1.3 0-2.6-.1-3.9-.1-1.3-.3-2.6-.6-3.9l-7.8-31-28.9 2.6-6.8 18.4c-.3.6-.5 1.6-.6 2.8-.1 1.3-.1 2.4-.1 3.3 0 3 .9 5.5 2.7 7.5 1.8 2 4.8 3.1 8.9 3.4v6.4H24.1v-6.4c3.6-.3 6.4-2.4 8.3-6.3 1.9-3.9 3.5-8.2 4.7-12.9L70.1.3h13.7l30.1 148.9c.8 4.1 2.1 7.8 3.9 11 1.8 3.2 4.6 5 8.4 5.3v6.4H80.5zM67.9 47.9l-14 65.4 25.1-2.6-11.1-62.8zM248.8 167.7l-47.4 2.1v-6.6c5.7-.5 8.5-2.8 8.5-6.9 0-3.3-.2-5.9-.7-7.8l-7.3-24.9-28.9-1.7-5.9 27.2c-.3 1.4-.5 2.5-.6 3.3-.1.8-.1 1.8-.1 3.1 0 3.8.9 6.5 2.8 8.1 1.9 1.6 4.7 2.5 8.3 2.8v6.4l-32-1.7v-6.4c2.2 0 4.1-.6 5.6-1.7s2.7-2.5 3.7-4.3c.9-1.7 1.7-3.6 2.2-5.7.6-2 1.1-4 1.5-5.9l30.1-143h13.7L234.9 145c.8 3.8 2.1 7.3 4 10.7 1.9 3.3 5 5.1 9.2 5.4l.7 6.6zm-48.7-52.8l-13.3-63-11.6 61.1 24.9 1.9zM314.7 170.1c-6.5.5-12.9 1-19.2 1.5-6.3.6-12.6 1-18.9 1.3V163c3.2-.5 5.5-1.5 7-3.1s2.1-4.1 1.8-7.6c-1.3-21.6-2.6-43.1-4-64.3-1.4-21.2-3-42.7-4.7-64.3-.2-1.7-.3-3.2-.5-4.5-.2-1.3-.5-2.3-1.1-3.2-.6-.9-1.4-1.5-2.6-2-1.2-.5-2.8-.9-4.9-1.2V2.7c7.3.5 14.4 1 21.4 1.5 7 .6 14.1 1.1 21.2 1.5 6 .3 11.9 1 17.6 2.1 5.8 1.1 11 3.2 15.7 6.1 5.5 3.5 9.2 7.8 11 13.1 1.8 5.3 2.7 10.7 2.7 16.2 0 20.5-12.5 33.2-37.6 38.1 7.9 1.3 14.5 3.2 19.9 5.9 5.4 2.7 9.7 5.9 13 9.6 3.3 3.7 5.7 7.8 7.1 12.3s2.1 9.1 2.1 13.9c0 2.5-.1 5.3-.4 8.4-.2 3.1-.8 6.2-1.5 9.5-.8 3.2-2 6.4-3.6 9.4s-3.7 5.8-6.4 8.3c-4.1 3.8-9.1 6.5-14.9 8.2-5.7 1.7-12.5 2.8-20.2 3.3zM300.4 78h2.1c8.5 0 14.5-2.8 18-8.4 3.5-5.6 5.2-13.3 5.2-23.1 0-3.6-.2-7.7-.5-12.2-.3-4.5-.9-8-1.7-10.5-1.6-4.3-3.8-7.2-6.7-8.8-2.9-1.6-6.2-2.4-9.8-2.4-1.9 0-3.5.5-4.7 1.5-1.3 1-1.9 3.1-1.9 6.3V78zm0 7.1c.3 11.1.7 22.1 1.3 33.3.6 11.1 1.1 22.3 1.5 33.5.2 3.9 1 6.8 2.5 8.5 1.5 1.7 3.4 2.6 5.8 2.6 3.8 0 6.8-1.2 9.1-3.7 2.3-2.4 4-5.5 5.2-9.2 1.2-3.7 2-7.7 2.4-12 .4-4.3.6-8.3.6-12.1 0-5.2-.3-10.4-.8-15.5-.6-5.1-1.8-9.4-3.7-12.9-2.1-3.5-4.8-6.4-8.2-8.9-3.3-2.4-8.6-3.6-15.7-3.6zM471.9 119.9c0 1.6-.2 4.1-.6 7.5-.4 3.4-1.2 7.1-2.4 11.1s-2.9 8.1-5.2 12.3c-2.3 4.2-5.3 7.8-9.1 10.8-2.8 2.4-6 4.3-9.4 5.9-3.4 1.6-6.7 2.8-10.1 3.8-3.3.9-6.5 1.6-9.6 1.9s-5.6.5-7.7.5c-2.7 0-5.2 0-7.6-.1-2.4-.1-4.7-.2-7.1-.4-2.4-.2-4.9-.4-7.7-.7-2.8-.3-5.9-.7-9.4-1.2v-9.7c6.2 0 9.1-2.3 8.8-6.9l-4.7-128.6c-.2-3.3-.6-5.8-1.4-7.6-.8-1.7-3.2-3-7.3-3.8l-.2-7.1 42.8.5c2.4 0 5.1.1 8.2.4 3.1.2 6.2.6 9.2 1.2 3.1.6 6 1.2 8.9 2 2.8.8 5.2 1.7 7.1 2.8 5.1 4.2 8.6 8.9 10.7 14 2 5.1 3.1 10.9 3.1 17.3 0 9-2.8 16.8-8.5 23.6-5.7 6.8-15.4 11.5-29.1 14.2 13.4 2.4 23.2 6.6 29.2 12.7s9.1 14 9.1 23.6zm-31.5-5.9c0-4.3-.2-7.3-.5-9-.3-1.7-.9-3.5-1.9-5.2-2.5-4.7-5.9-8-10.1-9.7-4.2-1.7-8.5-2.6-12.9-2.6l-2.1 66.8c-.2 2.2.4 4.6 1.7 7.2 1.3 2.6 3.5 3.9 6.6 3.9 3 0 5.6-1 7.7-3.1 2.1-2 3.8-4.7 5.1-7.8 1.1-2.5 2-5.7 2.8-9.6.8-3.9 1.5-7.8 2-11.8.6-4 .9-7.8 1.2-11.2.3-3.6.4-6.2.4-7.9zm-1-64.9c0-3.9-.1-8.1-.2-12.3-.2-4.3-.7-7.7-1.7-10.4-1.3-3.9-3.2-6.8-5.7-8.5-2.5-1.7-5.4-2.6-8.8-2.6-2.7 0-4.5.8-5.4 2.5-.9 1.7-1.4 3.4-1.4 5.3L415 80.6h2.4c4.9 0 8.8-1 11.7-3.1 2.9-2 5.1-4.7 6.6-7.8 1.5-3.2 2.5-6.6 3-10.3.5-3.7.7-7.2.7-10.3zM111.9 266.1l-10.9 179-91 4.7L.8 261.3l111.1 4.8zM67.1 285v5.4c3.2 0 5.4.9 6.6 2.6 1.3 1.7 1.9 4.1 1.9 7.1 0 1.1-.1 2.1-.2 3-.2.9-.4 1.7-.7 2.5l-16.1 51.6-16.1-49c-.3-.8-.6-1.6-.7-2.5-.2-.9-.2-1.9-.2-3 0-2.2.8-3.6 2.5-4.1 1.7-.6 3.4-.9 5.1-1.1l.2-5.4-39.4 2.4v5.4c.9-.3 2-.5 3.3-.5h1.3c.6 0 1.1.1 1.8.2.6.6 1.3 1.6 1.9 3 .6 1.3 1.2 2.6 1.7 3.9l23.2 60.1-2.4 44.4c-.2 1.6-.4 3-.7 4.1-.3 1.2-1 2.2-2.1 3-1.6.9-3.5 1.5-5.7 1.7v5.4h38.6v-5.4c-5.7-.5-8.5-3.4-8.5-8.8v-42.9l18.9-61.3c2.7-8.7 6.6-13.3 11.8-14v-5.4l-26-2.4zM129.8 447.7l9.5-189 90.9 5 11.1 179-111.5 5zm95-148l-26.5 2.1v5.4c3.3.2 5.5 1 6.5 2.6s1.5 3.9 1.5 7.1c0 .3-.1 1-.2 2-.2 1-.4 2.2-.7 3.4l-14 44.3-16.1-60.1c-.3-.9-.6-1.9-.7-2.7-.2-.9-.2-1.8-.2-2.7 0-1.9.8-3.2 2.4-4 1.6-.8 3.3-1.2 5.2-1.2l.2-5.4-36.9-1.4v5.4c.8-.3 1.5-.5 2-.5h1.8c.3 0 .7 0 1.3.1.6.1 1 .1 1.3.1.9.9 1.7 2 2.2 3.2.6 1.2 1 2.4 1.3 3.7l20.8 75.1 1.2 39.5c0 .9-.1 2-.2 3.2-.2 1.2-.6 2.3-1.2 3.3s-1.5 2-2.6 2.8c-1.1.9-2.6 1.4-4.5 1.5v5.4l33.6-2.1v-5.4c-5.8-.5-8.7-3.4-8.5-8.8l1.4-38.1 17.3-54c.6-1.9 1.3-3.9 2-6s1.5-4.1 2.5-5.8c.9-1.7 2-3.2 3.3-4.5 1.3-1.3 2.8-2 4.5-2.1v-5.4zM370.4 261.3L359.5 445l-90.9 4.7-9.2-181.4 111-7zm-29.3 114.6c-1.3 5.2-3.3 9.9-6 14.2-2.8 4.3-6 7.9-9.8 10.9-3.8 3-7.9 5.2-12.4 6.7s-9 2.2-13.4 2.2h-1.9c-1 0-1.8-.1-2.6-.2l48.8-125v-4.5L282.5 292l-3.6 36.5h5.2c1.3-5.2 3-9.8 5.2-13.7 2.2-3.9 4.7-7.4 7.6-10.4 2.4-2.7 5.2-4.5 8.5-5.4 3.3-.9 6.8-1.4 10.4-1.4h1.8c.9 0 1.7.1 2.5.2l-41.9 120.5v6.9l62-9.5 7.1-39.8h-6.2zM388.4 442.7l9.5-181.6 90.9 5 11.1 184-111.5-7.4zm82.6-59.9h-6.2c-1.3 3.2-2.8 6.5-4.7 10.1-1.9 3.6-3.6 6.4-5.2 8.4-1.1 1.4-2.5 2.3-4.1 2.7-1.7.4-3.9.6-6.7.6-1.4 0-3.2-.1-5.4-.2-2.2-.2-4.6-.4-7.1-.6-2.5-.2-5.1-.5-7.6-.8-2.5-.3-4.7-.6-6.6-.7l59-108v-4.5l-66.5-1.7.9 36.5h5.2c.3-3.8.8-7.5 1.5-11.2.7-3.7 2.2-7.4 4.6-11 2-1.1 4.4-1.8 7-2 2.6-.2 5.7-.4 9.4-.4.9 0 2.2 0 3.7.1s3.2.2 5 .4c1.8.2 3.7.3 5.6.4 1.9.1 3.6.2 5 .4l-57.1 109.6v6.9l70.8 5.9-.5-40.9z"/></svg>