<svg id="Layer_1" xmlns="http://www.w3.org/2000/svg" viewBox="0 0 500 425"><style>.st0{fill:#726882}</style><path class="st0" d="M127.2 162.9c0 .9-1.4 2.8-3 2.8-2.8 0-8.3-1.6-12.2-3.9-1.8-1.2-6.7-3.7-8.1-6.4-.9 2.1-3 4.4-4.6 5.5-3.2 2.3-7.1 4.1-9.4 4.8-1.4.5-4.6 1.2-6.4 1.2-1.2 0-1.6-.7-1.6-1.8-.5-8.3-.9-12.4-.9-15.2 0-2.1.2-4.1 1.4-4.6 4.1-1.6 6-1.8 6-7.4 0-1.4-2.5-9.4-3.5-13.1-.5-1.8-3.5-9.4-4.4-12.7l-16.8.7c-6.4.2-11.3.5-16.6.5l-4.4 17.5c-.9 3.7-1.6 6.4-1.6 7.8 0 2.1 7.1 4.8 8.3 5.3.7.2 1.2 1.6 1.2 3 .2 5.8.9 11.3.9 15 0 4.1 0 5.5-3 5.5-1.4 0-6.7-1.2-9.4-2.8-2.1-1.2-9.7-5.3-11.3-7.8-2.5 2.1-12.4 6.7-14.5 7.6-2.8 1.2-4.4 1.8-6.2 1.8-1.8 0-2.5-1.6-2.5-3 0-4.4-.2-10.4-.2-12 0-4.6 0-6.7 1.8-7.1 1.8-.5 6.7-3 9.2-6 1.2-1.2 2.1-6 2.8-8.7 1.6-6.4 4.8-16.8 6.9-24.4 1.8-6.7 6.9-27.2 9-34.7 2.1-7.4 3.5-14.3 6.7-25.3.9-3 2.3-8.7 3.2-12.2-1.6-2.1-3-3-3.9-3.5-1.8-.9-4.1-1.2-5.5-1.8-.5-.2-.7-1.6-.7-2.8v-14c0-2.8.9-3.9 3.7-3.9 2.8 0 6.9.2 10.8 1.2 3.2.7 8.5 2.5 11.5 6 1.4-2.3 2.8-4.6 4.8-6.2C69.2 4.1 79.1.9 81 .9c1.2 0 1.6.9 1.8 1.8.9 3.9 3.7 17.9 3.7 19.1 0 2.5-6.4 4.4-8.1 7.4 1.8 5.8 3.7 11.5 5.8 17.3 1.2 3.2 6 18.9 7.8 24.4 1.6 4.6 5.3 16.1 6.7 20 3.9 12 6 17.9 8.5 25.5 1.6 5.1 4.4 12.9 6 17 1.8 4.6 6.9 8.5 10.1 9.7 1.4.5 2.3.9 2.3 3.5s1.6 12.9 1.6 16.3zm-91.1-12.6c-2.1-1.4-5.5-5.3-5.8-8.3 0-1.2-.2-1.6-1.2-1.6-.9 0-1.2 1.4-1.4 2.5-9.2 9.4-14.7 9.7-14.7 10.6s.5 1.4 1.4 1.4c2.1 0 10.6-5.8 14.7-9.9.9 2.1 2.1 3.5 3.9 5.3 2.5 2.5 7.4 4.6 8.3 4.6.5 0 .9-.2.9-.9.1-.7-3.3-1.9-6.1-3.7zm-.9-41.2c-.5 0-1.4 2.1-2.5 2.8-1.6.9-3.9 1.8-4.8 2.5-.9.7-1.8 1.6-1.8 3.2 0 .7 1.4 1.2 2.1 1.2 2.1 0 4.4-2.3 5.1-3-.5 1.8-2.1 4.4-2.8 4.6-3.2 1.2-5.5 2.8-5.5 3.9 0 .9.9 2.1 1.8 2.1 1.6 0 3.5-2.1 4.8-3.9-.5 2.1-1.4 3.9-2.1 5.1-1.4 2.1-2.1 2.5-2.1 4.4 0 1.4 1.2 2.5 2.3 2.5 2.1 0 3-1.6 3-2.5 0-2.1-.5-2.8-.5-4.4 0-1.4.5-2.3.7-4.1.9 4.1 2.5 5.3 4.1 5.3.9 0 1.4-1.2 1.4-2.1 0-1.6-.9-2.5-2.3-3.9-1.2-1.2-1.6-1.8-1.6-3.7 0-1.2.2-2.1.5-3.5 1.6 3.2 2.5 5.5 4.4 5.5.7 0 2.1-.7 2.1-1.4 0-4.1-4.8-5.1-5.1-6.7l-.2-2.5c-.1-.7-.6-1.4-1-1.4zm.4-9c1.6 0 3-1.4 3-2.5 0-1.8-1.2-3.7-2.8-3.7-1.8 0-3.2 1.6-3.2 3.5 0 1.8 1.2 2.7 3 2.7zm5.3-8.7c.5 0 1.6-3 2.8-3.7 1.6-.9 3.5-1.8 4.4-2.5.9-.7 2.3-1.4 2.3-3 0-.7-1.4-1.4-2.1-1.4-2.1 0-4.4 2.3-5.1 3 .5-1.8 2.1-4.4 2.8-4.6 3.2-1.2 5.5-2.8 5.5-3.9 0-.9-.9-2.1-1.8-2.1-1.6 0-3.5 2.1-4.8 3.9.5-2.1 1.4-4.4 2.1-5.5 1.4-2.1 2.5-3 2.5-4.8 0-2.1-.7-3.9-2.3-3.9-2.1 0-3.5 1.6-3.5 3.9s.5 3.7.5 5.3c0 1.4-.5 2.3-.7 4.1-.9-4.1-2.5-5.3-4.1-5.3-.9 0-1.4 1.2-1.4 2.1 0 1.6.9 2.5 2.3 3.9 1.2 1.2 1.6 1.8 1.6 3.7 0 1.2-.2 2.1-.5 3.5-1.6-3.2-2.8-5.5-4.6-5.5-1.2 0-1.8.7-1.8 1.4 0 2.5 1.6 3.2 3.7 4.6.9.7 1.6 1.6 1.6 2.1 0 .9-.2 2.1-.2 3.5-.1.5.4 1.2.8 1.2zm.5 15.6c1.6 0 2.8-1.2 2.8-2.3 0-1.8-1.2-3.7-2.8-3.7-1.8 0-3 1.4-3 3.2 0 1.9 1.2 2.8 3 2.8zm21.4-79.8c2.3-3.7 4.4-5.5 6.4-7.4 2.8-2.3 6-3.9 6-4.6 0-.5-.2-1.2-.9-1.2-1.2 0-4.4 2.5-6.9 4.6-1.4 1.2-3.7 3.5-6.2 7.1-2.5-2.3-5.8-4.1-8.3-5.3-3-1.4-6.2-2.3-7.4-2.3-.9 0-1.6.5-1.6 1.4 0 .7 2.8.7 7.4 2.5 2.8 1.2 6.7 3.5 8.7 5.5-5.5 7.1-11.5 27.6-11.5 28.3 0 .7.9.9 1.6.9.5 0 1.2-3.5 2.5-7.6 2.3-6.7 4.6-13.1 9-20.3 3 3 5.5 9 7.8 14.3 3 6.7 4.1 10.8 5.1 10.8.9 0 1.2-.5 1.2-1.4 0-.5-1.8-4.4-4.6-10.8-2.6-5.6-4.9-10.9-8.3-14.5zm-13.6 74.3c-.7 0-1.2.5-1.2.9 0 .7 0 1.2 1.2 1.2 3.5 0 17.7-.9 28.3-1.6 1.2 0 1.4-.5 1.4-1.2s-.7-.9-1.4-.9c-10.6.7-17.7 1.1-28.3 1.6zm24.9-10.8c-1.4-3.9-3.2-11.3-4.4-15.2-.9-3.2-2.8-8.5-3.5-11l-4.4-14c-3 11.7-4.6 19.3-6.9 28.5-1.2 4.8-2.3 9.7-3.2 13.1l9.9-.7c5.8-.5 9.5-.7 12.5-.7zm10.1-2.6c.5 0 .9-.7.9-1.4 0-3 .2-4.1 1.4-5.1 2.1-1.6 4.1-2.1 4.1-4.4 0-.7-1.8-2.1-2.5-2.1-1.8 0-3 2.1-3.9 4.1-.2-1.4-.5-2.3-.5-3.5 0-1.8 3.5-3 3.5-6.2 0-.9-.5-2.1-1.4-2.1-1.6 0-3.2 1.2-4.1 5.3-.2-1.8-.7-2.8-.7-4.1 0-1.6.5-3 .5-5.3s-1.4-3.9-3.5-3.9c-1.4 0-2.3 1.8-2.3 3.9 0 1.8 1.2 2.8 2.5 4.8.7 1.2 1.6 3.5 2.1 5.5-1.4-1.6-3.2-3.6-4.8-3.6-.9 0-1.8 1.2-1.8 2.1 0 1.2 2.3 2.8 5.5 3.9.7.2 2.3 2.8 2.8 4.6-.7-.7-3-3-5.1-3-1.2 0-2.1.9-2.1 1.6 0 1.6 1.2 2.5 2.1 3 1.4.7 3 .9 4.6 1.8 1.1.7 2.2 4.1 2.7 4.1zm1.4 10.2c1.6 0 2.8-1.2 2.8-2.3 0-1.8-1.2-3.7-2.8-3.7-1.8 0-3.2 1.4-3.2 3.2 0 1.8 1.3 2.8 3.2 2.8zm2.3 7.3c1.4 0 2.5-1.4 2.5-2.8 0-1.2-1.2-2.5-2.5-2.5-1.6 0-3 1.2-3 2.5 0 1.4 1.4 2.8 3 2.8zm5.5 1.6c-.5 0-.9.7-.9 1.4l-.2 2.5c0 .5-.9 1.4-1.8 2.1-2.1 1.4-3.2 2.1-3.2 4.6 0 .7 1.4 1.6 2.1 1.4 1.8-.7 2.8-2.3 4.4-5.5.2 1.4.5 2.3.5 3.5 0 1.8-.5 2.5-1.6 3.7-1.4 1.4-2.3 2.3-2.3 3.9 0 .9 1.2 2.1 2.1 2.1 1.6 0 2.5-1.2 3.5-5.3.2 1.8.7 2.8.7 4.1 0 1.2-.5 2.1-.5 4.4 0 .9 1.2 2.5 3.2 2.5.7 0 2.1-1.2 2.1-2.5 0-1.8-.7-1.8-2.1-3.9-.7-1.2-1.6-3.5-2.1-5.5 1.4 1.8 3.2 3.9 4.8 3.9.9 0 1.8-1.2 1.8-2.1 0-1.2-2.3-2.8-5.5-3.9-.7-.2-2.3-2.8-2.8-4.6.7.7 3.2 3 5.3 3 .7 0 1.8-.9 1.8-1.6 0-1.6-1.4-2.5-2.3-3.2-.9-.7-2.8-1.2-4.4-2.1-1.2-.8-2.1-2.9-2.6-2.9zm6.7 32.3c0 4.6-1.4 7.8-4.4 11-3.2 3.5-7.6 3.7-7.6 4.6s.5 1.2 1.4 1.2c1.2 0 5.8-2.1 8.3-4.8 1.6-1.8 3.2-3.9 4.1-8.3 4.1 4.6 12.4 9.2 13.8 9.2.9 0 1.2-.5 1.2-1.4 0-1.2-5.5-.9-14.7-10.8-.2-1.2-.2-2.3-1.2-2.3-.7-.1-.9.4-.9 1.6zm-6.5-38.7c1.2 0 2.3-1.2 2.3-2.5 0-1.2-1.2-2.5-2.3-2.5-1.4 0-2.8 1.2-2.8 2.3.1 1.3 1.5 2.7 2.8 2.7zM144.3 168.7c-2.3-.2-3-1.2-3-2.1 0-2.8 3.2-9.7 8.5-16.8-3.5-5.3-7.8-13.8-7.8-16.3 0-.9 1.2-3.5 3-3.5 2.3 0 4.6.7 9 .7 0-4.6-.7-14.7-.9-22.8-.5-16.8-1.6-32.4-1.6-53.4 0-4.4-.9-14-.9-16.1-2.1 0-9.7 0-11-.2-1.6-.2-3-1.4-3-3 0-1.4 6-12.7 9.7-15C139.9 17.4 135 8.7 135 4.8c0-2.3 4.8-2.1 10.6-3 3.2-.5 6.7-1.2 9.7-1.2 3.2 0 5.3 4.4 8.3 4.1 4.8-.5 12.9-.5 20.5-.5 13.1 0 21.4 1.4 31.5 6.7 11.5 6 19.6 20.9 19.6 34.5 0 17.3-4.4 26.7-17.5 33.8 5.8.9 9.9 4.6 13.3 7.4 9.4 7.6 12.4 23.7 12.2 33.6-.5 15.6-9.4 32.7-21.9 38.9-9.2 4.6-14.7 6.2-24.2 6.2-5.5 0-12.4-.9-22.3-2.5-3.2 0-4.8 7.8-8.7 7.8-6.9.2-16.8-1.5-21.8-1.9zm11.5-149.8c-3.9 3.7-7.4 8.7-7.4 9.7 0 .9.2 1.6 1.2 1.6.9 0 3.9-6.4 8.1-9.9.9-.5 1.4-.5 2.1-.7 0 6.2.9 22.6 1.6 22.6.9 0 1.8 0 1.8-1.2 0-2.1-.9-11-1.2-21.9 8.5-1.6 17.7-2.5 26.2-2.5 18.4 0 33.6 9.9 33.6 28.3 0 18.2-7.4 26.2-23.7 33.6-5.1 2.3-9.9 2.8-16.8 3.7-1.2.2-1.4.7-1.4 1.6 0 .7.7.9 1.4.9 1.2 0 3.7-.2 6.9-.7 25.3 3 30.6 8.7 35.7 15 3.7 4.6 5.3 15.4 5.3 21.4 0 23-17 31.1-28.1 31.3-12 .2-23.5-1.4-33.4-2.8-.2-2.5-.5-7.8-.5-11.7 0-1.6-.2-3-1.6-3-.7 0-.9 1.2-.9 2.5 0 2.3.2 8.5.5 11.5-5.1-3.7-6.2-5.8-8.1-8.3-1.4-1.8-1.4-2.3-2.5-2.3-.5 0-.7.5-.7 1.4 0 1.8 3.2 5.5 8.5 10.4-3.9 3.7-7.8 9.9-7.8 11 0 .9-.2 1.2 1.4 1.2 1.4 0 4.4-7.4 8.5-10.4 13.3 1.6 21.4 3 36.1 3 13.1 0 31.1-8.7 31.1-34.3 0-6.7-1.8-16.3-5.3-21.6-5.3-8.1-14-13.3-31.5-15.6 20.5-7.8 29.2-16.3 29.2-38 0-19.6-16.1-30.4-35.9-30.4-9.9 0-18.9.9-30.4 3.2-7.6-6.2-7.8-9-9-9-1.2 0-1.4.5-1.4 1.4.1 1.1 3.3 4.8 8.4 9zm9.9 54.5c1.4-1.4 2.3-2.1 3.2-3 .9-.9 1.8-1.8 1.8-3.5 0-.7-1.6-1.6-2.3-1.4-2.1.7-3.7 3.5-4.1 4.1 0-1.8.9-4.6 1.6-5.1 2.8-1.8 4.4-3.9 4.4-5.1 0-.9-1.4-1.6-2.3-1.6-1.2 0-2.8 2.8-3.7 4.8 0-2.1.2-4.6.7-5.8.9-2.3 1.4-3.5 1.4-5.3 0-2.1-1.6-3.2-3-3.2-2.1 0-2.8 1.6-2.8 3.9s.9 3.7 1.4 5.3c.5 1.4.5 2.8.7 4.6-1.8-3.9-3.7-4.6-5.3-4.1-.9.2-1.2 1.4-.9 2.3.5 1.6 1.6 2.3 3.2 3.2 1.4.9 2.1 1.4 2.5 3.2.2 1.2.2 2.1.2 3.5-2.3-2.8-3.5-4.4-5.5-4.4-.7 0-1.6 1.2-1.6 1.8 0 2.3 2.3 2.8 4.6 3.7 1.2.5 2.1 1.2 2.1 1.6 0 .9 0 2.1.5 3.5.2.7.9 1.2 1.4 1.2.4.2.8-3.3 1.8-4.2zm-2.8 11.1c0-1.8-1.2-3.5-2.8-3.5-1.8 0-3 1.4-3 3.2 0 1.8 1.2 2.8 3 2.8 1.6 0 2.8-1.4 2.8-2.5zm4.6 38.6c0-2.3-1.6-3.7-1.8-5.3-.2-1.4-.5-2.3-.5-4.1 1.8 3.9 3.7 4.1 5.3 4.1.9 0 1.6-1.4 1.6-2.3 0-1.6-2.3-2.3-3.9-3.2-1.4-.9-2.1-1.4-2.5-3.2-.2-1.2-.2-2.1-.2-3.5 2.3 2.8 3.5 4.4 5.5 4.4.7 0 1.6-1.2 1.6-1.8 0-1.6-2.3-2.8-4.6-3.7-1.2-.5-2.1-1.2-2.1-1.6 0-.9-.2-2.1-.7-3.5-.2-.7-.7-1.2-1.2-1.2s-.9 3.5-1.8 4.4c-1.4 1.4-2.5 1.8-3.5 2.8-.9.9-1.6 1.8-1.6 3.2 0 .7 1.6 1.8 2.3 1.8 1.2 0 3.7-3.5 4.1-4.1 0 1.8-.9 4.6-1.6 5.1-2.8 1.8-4.4 4.1-4.4 5.1s1.4 1.6 2.3 1.6c1.6 0 2.8-2.8 3.7-4.8 0 2.1-.2 4.6-.7 5.8-.9 2.3-1.2 3.5-1.2 5.3 0 2.1 2.5 3.2 3.2 3.2 2.2-.1 2.7-2.2 2.7-4.5zm2.3-32.2c0-1.2-1.4-3-2.8-3-1.6 0-3 1.6-3 3 0 2.1 1.6 2.8 3.2 2.8 1.4 0 2.6-1.4 2.6-2.8zm3.5-8.3c0-1.2-.9-3-2.5-3-2.1 0-3.2 1.4-3.2 2.5 0 1.4 1.4 3.2 2.8 3.2 1 .1 2.9-1.3 2.9-2.7zm28.5-17.2C208 62.2 211 53 211 45.6c0-5.8-3.2-10.8-8.3-14-3.9-2.5-11.7-3.9-15.6-3.9-6 0-11 .5-13.3.7l.9 22.6c.5 8.7 1.2 18.4 1.2 20.7 6.8-.1 19.2-2.9 25.9-6.3zm16.6 52.4c0-10.8-3.9-16.6-12.4-19.1-7.8-2.3-17.3-2.3-23.9-2.3-.9 0-3.7.2-5.3.7 0 7.6.2 11.7.5 19.1.2 8.7.2 12.9.2 23 9.2 1.2 15.4 1.8 22.1 1.6 8.6-.2 18.8-7.6 18.8-23zM355 142.2c-3.7 4.1-6.4 8.3-8.7 8.3-1.4 0-4.4-.9-6.2-.9-8.7 11.7-18.4 18-34.3 18-12.7 0-25.3-5.3-32.7-13.6-2.1-2.3-10.1-12.9-13.1-20.3-6.4-15.9-8.7-34.7-8.7-49.2 0-23.5 6.9-49.2 17.5-63.3 8.3-10.8 21.6-18.6 36.4-18.6 11.7 0 19.8 2.8 31.1 12.2 2.5.2 4.6-2.1 6.2-2.1 1.8 0 6.7 3 8.3 3.9 2.1 1.2 9.9 5.1 9.9 7.4 0 3.5-11 7.6-17.5 10.6-.2 4.6-.9 9.9-1.8 12.9-1.2 3.9-2.1 9-4.4 9-1.6 0-5.1-3-8.7-5.8-3-2.3-6.4-4.6-6.4-5.5 0-1.4 1.6-5.3 1.8-8.5-4.1-4.4-8.5-8.1-15.9-8.1-17.7 0-24.4 15.9-27.8 34.3-.9 4.8-2.1 19.1-2.1 26.7 0 10.4 2.8 26.7 8.5 37.1 4.8 8.5 11.5 15 19.1 15 8.1 0 12.4-4.6 16.1-10.1-.7-2.3-4.1-6.2-4.1-7.6 0-1.4 3.5-5.8 6.2-9 2.1-2.5 5.1-7.8 6.7-7.8 2.3 0 4.8 5.1 6.7 9.9.7 1.8 2.3 8.7 2.8 10.8 1.2-.2 2.8-.2 3.9-.2 8.3 0 18.6 3.7 18.6 6.7-.2.7-3.7 3.7-7.4 7.8zm-92-57.3c0-1.8-1.4-3.2-3-3.2-1.8 0-3.2 1.4-3.2 3.2 0 1.8 1.2 3 3 3 1.6 0 3.2-1.1 3.2-3zm4.1-12.2c1.6-1.2 3.2-2.1 4.1-2.5.9-.5 1.8-1.6 1.8-3.2 0-.9-1.2-1.4-1.8-1.4-2.1 0-4.4 2.8-4.8 3.5.2-1.8 1.6-4.4 2.5-4.8 3-1.4 5.1-3.2 5.1-4.1 0-.9-.9-2.1-1.8-2.1-1.8 0-3.2 2.3-4.6 4.1.5-2.1 1.2-4.6 1.6-5.5 1.2-2.3 2.1-3.2 2.1-5.1 0-2.1-1.2-3.7-2.1-3.7-1.8 0-3.7 1.8-3.5 4.1.2 2.3.7 3.7.7 5.3 0 1.4-.2 3-.2 4.1-1.2-4.1-2.5-5.1-4.1-5.1-.9 0-1.8 1.2-1.8 2.1 0 1.6 1.4 2.3 2.8 3.7 1.2 1.2 1.8 1.8 1.8 3.7 0 1.2 0 2.1-.2 3.5-1.8-3-3-5.3-5.1-5.3-.7 0-1.6.9-1.6 1.6 0 1.8 1.8 3 3.9 4.4.9.7 1.8 1.6 1.8 2.1v3.5c0 .7.5 1.4.9 1.4.7-.1 1.4-3.4 2.5-4.3zm-3.4 28.6c-1.4 1.4-2.8 2.8-3.5 3.7-.7.9-1.4 2.1-1.4 3.7 0 .7 1.8 1.2 2.5.9 2.1-.7 3.7-3.5 4.1-4.1 0 1.8-.7 4.8-.9 5.1-2.8 2.8-4.1 4.1-4.1 5.1 0 .9 1.4 1.6 2.3 1.6 1.6 0 2.5-1.8 3.5-3.9.2 2.1.7 3.7.7 4.8 0 2.3-.7 3.5-.7 5.3 0 2.1 2.5 3.2 3.2 3.2 1.8 0 2.3-1.8 2.3-4.1s-2.3-3.9-2.8-5.5c-.5-1.4-.7-2.3-.9-4.1 1.8 3.9 3.7 4.1 5.3 4.1.7 0 1.4-1.4 1.4-2.3 0-1.6-2.1-2.3-3.7-3.2-1.4-.9-3-1.4-3.5-3.2-.2-1.2-.2-2.1-.2-3.5 2.3 2.8 3.5 4.4 5.5 4.4.7 0 1.6-1.2 1.6-1.8 0-2.1-2.8-3.2-5.1-4.1-1.2-.5-2.1-1.2-2.1-1.6 0-.9-.2-2.1-.7-3.5-.2-.7-.7-1.2-1.2-1.2-.2-.2-.7 3.2-1.6 4.2zm8-14.3c0-1.2-.9-3-2.8-3-1.4 0-2.8 2.3-2.8 3.5 0 1.4 1.2 2.5 2.5 2.5s3.1-1.6 3.1-3zm5.3-53.2c6.7-11.3 13.8-18.6 28.5-18.6 8.7 0 17.9 4.8 26.5 13.1-.2 9-1.2 11.5-1.2 13.6 0 1.2.9 1.2 1.8 1.2.5 0 1.6-7.8 1.6-14 6-2.1 11.7-5.1 11.7-6.2 0-.9-.2-1.4-.9-1.4-1.2 0-4.1 2.5-11.3 5.1-10.6-9.4-18.6-13.6-28.5-13.6-16.6 0-24.2 8.7-31.1 20.7-.5.7-2.1 3.2-2.1 4.6 0 1.2.9 1.4 1.4 1.4 1.1-.1 1.8-2.9 3.6-5.9zm-2.7 102c0 1.4 2.5 5.5 7.1 10.6 6.2 7.1 14 9.9 23.5 9.9 14.7 0 23-10.4 29-17.7 1.8-.2 3.9-.5 5.3-.5 3.5 0 7.6 1.8 8.3 1.8.7 0 .9-.9.9-1.4 0-.7-5.3-2.5-9.9-2.5-1.4 0-3.2.2-4.6.5-1.8-7.6-4.8-12.7-6-12.7-.7 0-.9.5-.9 1.4 0 .7 2.8 3.2 4.8 11.7-5.8 8.1-15 17.3-26.9 17-8.7-.2-16.6-3-22.3-9.9-4.1-4.8-6.4-9.4-7.4-9.4-.7 0-.9.5-.9 1.2zM403.1 163.4c-3.5 0-4.1 4.6-7.4 4.6-2.8 0-6.9-.2-10.4-.7-3.7-.5-10.6 0-10.6-2.5 0-2.8 2.3-6.2 2.8-6.9 1.8-2.8 3.5-5.3 5.3-7.4-1.8-2.8-7.4-12.7-7.4-15.4 0-1.4.7-3 3-3 2.1 0 5.8.5 8.5.5 0-19.1-.5-27.4-.5-30.4l-.2-27.8c0-12.9.7-28.1.7-38-9.2-.2-11.5-.7-11.5-2.5 0-2.1 3.9-11.3 8.3-15.4-3.5-2.5-8.1-12.9-8.1-15.4 0-1.8 1.6-2.5 3-2.5 3 0 14.3-.5 16.8-.5 2.1 0 3.5 1.8 4.1 3 .7.9 1.8 2.5 3.2 2.5l10.3-.3c20.3 0 38 6.9 52.2 22.8 14 15.6 20 41 20 62.4 0 47.2-17.3 74.6-64.9 74.6-3.3-.1-9.1-.6-17.2-1.7zm-6.6-145c-3.9 3.2-8.5 7.6-8.5 8.5 0 .9.5 1.4 1.4 1.4.5 0 5.8-6.4 9.7-9-.2 4.1-.7 12.4-.7 17.5 0 2.5 0 3.9.7 3.9.9 0 1.6-.5 1.6-1.4 0-2.1.5-10.6.7-20.5 6.9-.5 9.9-.5 13.3-.5 20 0 36.6 10.6 46 26 7.6 12.4 10.8 32.2 10.8 41.7 0 20.9-3.9 35-6.9 40.7-10.4 20-27.6 23.9-39.8 23.9-12 0-17.9-.2-24.2-1.6-.2-2.5-.5-10.6-.5-14.5 0-1.6-.5-2.5-1.4-2.5-.7 0-.9 1.8-.9 3.2 0 2.3 0 9.9.2 12.9-3.5-2.3-5.8-3.9-7.8-6.7-.7-.9-1.6-2.3-2.5-2.3-.5 0-.9.2-.9.9 0 1.8 4.1 6.4 9 9.2-3.7 3.7-7.8 9.2-7.8 10.4 0 .9 0 1.4.9 1.4 1.4 0 4.8-6.9 9-9.9 7.1 1.6 11.7 2.1 26.5 2.1 21.2 0 35.4-9.4 43.5-27.4 3-6.7 6.2-18.9 6.2-41 0-11.7-4.1-29.9-11.3-41.9-9.9-16.8-27.8-27.2-47.6-27.2-6.2 0-10.8.2-17 .9-7.6-6.2-7.6-9.9-8.7-9.9-.9 0-1.2.5-1.2 1.4-.1 1.8 2.6 6.2 8.2 10.3zm5 51.3c1.6-1.6 5.1-3.5 5.1-5.5 0-.7-1.6-1.8-2.3-1.6-2.1.7-3.7 3.5-4.1 4.1 0-1.8.9-4.6 1.6-5.1 2.8-1.8 4.4-4.1 4.4-5.1 0-.9-1.4-1.6-2.3-1.6-1.6 0-2.8 2.8-3.7 4.8 0-2.1.2-4.6.7-5.8.9-2.3 1.2-3.5 1.2-5.3 0-2.1-1.6-3-2.8-3-2.1 0-2.8 2.1-2.8 4.4 0 2.3.9 3.2 1.4 4.8.5 1.4.5 2.5.7 4.4-1.8-3.9-3.2-4.1-4.8-4.1-.9 0-1.4 1.4-1.4 2.3 0 1.6 1.6 2.3 3.2 3.2 1.4.9 2.1 1.4 2.5 3.2.2 1.2.2 2.1.2 3.5-2.3-2.8-3.5-4.4-5.5-4.4-.7 0-1.6 1.2-1.6 1.8 0 2.5 2.3 2.8 4.6 3.7 1.2.5 2.1 1.2 2.1 1.6 0 .9.2 2.1.7 3.5.2.7.7 1.2 1.2 1.2s.8-4.1 1.7-5zm-4.6 22.4c0-1.2-.9-2.3-2.3-2.3-1.2 0-2.5.9-2.5 2.3s1.4 2.3 2.8 2.3c1.3 0 2-1 2-2.3zm.3 10.3c-1.4 1.4-2.3 2.1-3.2 3-.9.9-1.8 1.6-1.8 3.2 0 .7 1.6 1.6 2.3 1.6 1.2 0 2.1-1.8 4.1-4.8 0 1.8-.9 5.3-1.6 5.8-2.8 1.8-4.4 4.1-4.4 5.1 0 .9 1.4 1.6 2.3 1.6 1.6 0 2.8-2.8 3.7-4.8 0 2.1-.2 4.6-.7 5.8-.9 2.3-1.4 3.5-1.4 5.3 0 2.1 2.3 3.2 3 3.2 1.8 0 2.5-1.8 2.5-4.1s-1.4-3.9-1.6-5.5c-.2-1.4-.2-2.3-.2-4.1 1.8 3.9 3.2 4.1 4.8 4.1.9 0 1.4-1.4 1.4-2.3 0-1.6-1.6-2.3-3.2-3.2-1.4-.9-2.1-1.4-2.5-3.2-.2-1.2-.2-2.1-.2-3.5 1.8 2.8 3 4.4 5.1 4.4.7 0 1.6-1.2 1.6-1.8 0-2.1-1.8-2.8-4.1-3.7-1.2-.5-2.1-1.2-2.1-1.6 0-.9-.2-4.1-.7-5.5-.2-.7-.7-1.2-1.2-1.2s-1 5.3-1.9 6.2zm2.7-19.8c0-1.8-1.2-3.5-2.8-3.5-1.8 0-3 1.4-3 3.2 0 1.8 1.2 2.5 3 2.5 1.7.1 2.8-1 2.8-2.2zm5.3 6.5c0-1.2-1.2-2.3-2.3-2.3-1.8 0-2.8 1.4-2.8 2.5 0 1.4.9 2.5 2.3 2.5 1.7 0 2.8-1.4 2.8-2.7zm40.5-44c-10.6-12.4-18.9-13.6-33.8-13.6l.2 25.5c0 21.4.5 55.2.5 58.5 0 4.1.5 13.8.5 23.5 2.3.2 5.1.5 7.1.5 32.4 0 39.4-24.6 39.4-50.6-.1-14.8-4.9-33.4-13.9-43.8zM142.6 281.4c-.7 3.2-2.3 4.4-4.4 5.3-1.6.7-3.7 1.4-4.8 2.5-3.5 28.1-6.4 53.6-8.3 67-2.1 15.4-3 26.5-4.6 37.5.9.7 3.5 2.8 6.9 4.8 1.2.7 1.4 15.2 1.4 16.3 0 2.5-1.4 4.6-3.9 4.6-2.3 0-14-3.7-17.3-7.6-3.7 3.9-11 9.4-17.9 9.4-1.6 0-1.6-3.2-2.3-7.6-.2-1.6-1.2-5.3-1.2-8.5 0-1.4.5-3 1.6-3.5 1.6-.7 4.8-3 5.3-3.7-5.5-12.7-8.3-20.5-10.4-25.1-1.4-3.2-3.5-8.7-6.7-15.4-1.4 3.7-7.1 18.2-7.8 19.6-1.8 3.7-3.9 11.7-5.1 14.7.7 1.8 3.7 3.2 4.4 3.9 1.4 1.4 1.6 11.5 1.6 17.9 0 1.6-.9 3.5-2.3 3.5-3.5 0-12-1.2-18.4-11.5-4.6 6.7-14.7 12.2-18.9 12.2-2.3 0-3.2-1.4-3.5-3.9-.5-3.9-.5-12.2-.5-15.2 0-2.8 2.8-3.2 5.3-5.3 1.2-.9 1.8-3.2 1.8-6-.9-4.8-2.8-16.6-4.4-24.2-.9-4.6-3-15-4.4-22.6-2.8-15.4-5.1-28.8-9.9-54.3-1.2-.5-3.7-1.8-4.8-2.3-3-1.2-3.2-4.1-3.7-9-.2-2.3-1.4-10.1-1.4-13.1 0-1.8 3-2.3 4.6-2.3 4.6 0 10.8 3.7 17.7 7.6 6-6 14.5-9.4 16.6-9.4 1.6 0 2.5 1.2 3 3 .5 1.6 1.6 11.5 1.6 13.8 0 3.2-.9 5.5-3.9 6.9-1.8.9-3.7 2.3-4.6 3 .9 5.3 2.8 16.3 3.5 21.2 1.2 8.5 4.1 25.3 5.8 33.8 1.4 7.8 3 16.1 4.4 22.3 4.8-12 7.4-18.2 11.7-27.6-.5-1.4-3.2-2.8-4.4-3.5-1.4-.9-2.8-1.4-2.8-3.5 0-3.2-.7-12.9-.7-16.8 0-.9.7-2.3 2.3-2.3 6 0 13.8 3.9 16.8 7.8 4.4-4.4 14.7-8.3 16.6-8.3 1.2 0 2.5 1.6 2.5 3.9 0 1.4-.5 13.6-.7 15.4-.2 2.8-5.3 2.8-6 5.5.9 2.1 3.7 10.6 6 16.1 1.8 4.4 5.1 12.7 6.7 16.3 1.2-9.4 3.5-29.7 4.1-36.6.7-7.1 3.7-33.6 4.1-37.3 0-2.8-2.5-5.1-4.1-6.2-3.5-2.3-4.8-3-4.8-4.6 0-2.8.9-15.4.9-16.3 0-2.1.5-4.6 2.5-4.6 4.1 0 12.4 4.1 18 12 2.8-2.8 15.2-11 21.2-11 1.4 0 2.1 1.4 2.1 4.1.2 2.7-1.1 12.8-2.1 17.2zM39.8 271c0-.7-.5-1.2-.9-1.2-.9 0-3.7 1.8-7.1 3.9-1.2.7-3.9 3-5.3 4.8-3.9-3.5-10.8-6.4-11.5-6.4-.9 0-1.4.5-1.4 1.4 0 .9 7.6 2.8 11.7 7.1.5.9 1.8 11.3 2.1 12.2.5 2.1.5 3.5 1.4 3.5.7 0 .9-.5.9-1.2 0-.9-1.8-11.7-2.1-13.8.2-2.3 5.8-6.2 7.8-7.6 1.4-.8 4.4-2 4.4-2.7zm-3.7 56.2c1.6-1.8 4.6-4.4 4.6-6.2 0-.9-1.8-1.8-2.5-1.8-1.6 0-3.2 3.7-3.7 4.4-.2-1.8.2-4.6.9-5.1 3-2.1 3.9-3.9 3.9-4.8 0-.9-1.6-2.1-2.3-2.1-.9 0-2.5 3-3.5 5.3 0-2.1 0-4.6.2-6 .2-1.4.7-2.8.7-4.6 0-2.1-2.5-3.7-3.5-3.7-1.4 0-2.3 1.6-2.3 3.9 0 1.8 1.8 4.1 2.3 5.5s.7 2.5.9 4.4c-2.1-3.2-3.7-3.7-5.3-3.7-.9 0-1.4 1.4-1.4 2.3 0 .9 2.3 2.3 3.9 3 1.4.9 2.1 1.2 2.8 3l.7 3.5c-2.5-2.5-3.7-3.9-5.8-3.9-.7 0-1.4 1.4-1.4 2.1 0 1.4 2.5 2.3 4.8 3.2 1.2.5 1.8.9 2.1 1.4.5.9.9 4.1 1.4 5.5.2.7.7 1.2 1.2.9.6-.3.4-5.6 1.3-6.5zm.7 17c0-2.1-1.8-3-3.2-3-1.8 0-2.5 1.8-2.5 3.2s1.8 2.5 3.2 2.5c1.3.1 2.5-1.3 2.5-2.7zm83.1 63.1c0-.7-3.7-1.6-5.8-3-2.1-1.4-3.9-3-6.4-6.2 1.2-3.5 3-11.5 3-12.7 0-.9-.2-1.6-.9-1.6s-.9.7-1.2 1.8c-.7 3-1.6 7.4-2.5 10.4-2.8-5.8-15.6-34.3-27.2-58.9-.9-1.8-2.1-4.4-2.1-5.3 0-.5-.2-2.5.5-3.5 4.1-5.8 10.8-6.2 10.8-7.6 0-.7-.5-.9-.9-.9-3.5 0-9.7 4.4-11.7 6.9-2.5-3.5-9.2-8.1-9.9-8.1s-1.4.2-1.4 1.2c0 .9 5.1 2.5 9.2 8.1.7.9.9 3 .9 3.9-1.2 3.2-2.3 6-3.7 9.4-4.1 10.6-15.9 36.8-22.6 50.2-2.1-4.6-2.3-6.9-2.8-6.9-.7 0-1.6.2-1.6 1.6 0 .9.5 2.1 2.8 7.6-3.9 5.1-6.7 6.9-9.2 8.7-2.3 1.6-4.4 2.3-4.4 2.8 0 .7.2 1.2 1.2 1.2 2.3 0 10.4-6 14-11 3.9 5.3 9.4 9.7 12.2 9.7.5 0 1.2-.5 1.2-1.2 0-.9-6.4-2.5-11.7-10.6 7.1-14.5 18.6-40 25.8-58 7.4 15.2 25.1 54.5 29.5 63.3-4.4 6.9-11.3 10.1-11.3 10.6 0 .9.5 1.4 1.4 1.4.7 0 6.4-3 11.3-10.1 1.6 1.8 5.3 5.1 6.4 5.8 2.3 1.4 5.3 2.5 6.2 2.5.4-.1.9-.8.9-1.5zm-82.2-51.6c-2.5 3-4.1 3.7-4.1 6.2 0 .9 1.6 1.8 2.3 1.8.9 0 2.3-1.8 3.5-5.1 0 1.8-.7 5.3-1.4 5.8-2.5 2.3-3.5 4.1-3.5 5.1 0 .9 1.6 1.8 2.5 1.8 1.2 0 2.5-3 3.2-5.3.2 1.4.2 2.5.2 3.5 0 .9-1.2 3.7-1.2 7.8 0 1.6 2.1 3 3.2 3 1.8 0 3-1.4 3-3.9 0-2.1-1.8-4.4-2.3-5.8-.7-1.4-.9-2.3-1.4-4.1 2.3 3.2 3.7 3.9 5.3 3.9.9 0 1.6-1.4 1.6-2.8 0-.9-2.3-2.1-3.9-2.8-1.6-.9-2.8-1.6-3.2-3-.5-1.2-.5-2.1-.7-3.5 2.5 2.5 3.7 3.7 5.8 3.7 1.4 0 1.8-1.6 1.8-2.3 0-1.8-2.3-1.8-4.6-2.8-1.2-.5-2.5-.9-2.5-1.4-.2-.9-.5-2.1-.9-3.5-.2-.7-.9-1.2-1.4-.9-.4.5-.4 3.5-1.3 4.6zm4.2-18.6c0-1.2-.5-3.2-2.5-3.2s-3.2 1.4-3.2 2.8 1.4 2.8 2.8 2.8c1.2-.1 2.9-1 2.9-2.4zm72.2 12.9c-.5 1.4-.7 2.3-1.2 3.2-.2.5-1.2.9-2.3 1.4-2.3.9-4.8 1.6-4.8 3.5 0 .7.7 2.1 1.4 2.1 2.1 0 3.5-1.4 6-3.9-.2 1.4-.7 2.3-1.2 3.5-.5.9-1.2 1.6-2.8 2.5-1.6.7-3.5 1.4-3.5 3 0 .9.9 2.1 1.8 2.1 1.6 0 3-.9 4.6-4.1-.5 1.8-.5 3.9-1.2 5.3-.5 1.4-2.1 3-2.1 5.3s1.2 4.4 2.5 4.4c2.1 0 3.2-2.5 3.2-4.6 0-2.8-1.2-4.4-1.2-7.1 0-.7.2-1.6.2-2.5.7 2.3 2.5 4.8 3.9 4.8.9 0 2.3-.7 2.3-1.6 0-.9-1.2-3-3.9-4.8-.7-.5-1.4-3.7-1.4-5.5.5 2.3 2.3 4.1 3.7 4.1.7 0 2.1-.7 2.1-1.6 0-1.8-1.8-3.2-4.4-5.8-1.2-1.2-.5-4.4-.9-4.4-.1-.2-.6 0-.8.7zm20.7-75.3c0-.7-.5-1.2-.9-1.2-.9 0-4.4 1.4-8.1 3.7-1.2.7-3.9 3-5.3 4.6-3.5-6.4-10.6-10.6-11.3-10.6-.7 0-1.2.5-1.2 1.2 0 1.2 7.6 3.5 11.3 11.7l-.5 9c0 .7.2 1.4.9 1.4s.9-.7 1.2-2.3c.2-1.6.5-6.7.7-7.6.5-2.3 6.2-6.2 8.3-7.4 1.7-.9 4.9-1.8 4.9-2.5zM113.4 338c0-1.2-.9-2.5-2.3-2.5-1.2 0-2.5.9-2.5 2.3s.9 2.5 2.3 2.5 2.5-.9 2.5-2.3zm4.9-7.6c.5-1.4.5-3.7.9-4.8.2-.5.9-.9 2.1-1.4 2.3-.9 4.8-2.1 4.8-3.9 0-.7-.7-2.1-1.4-2.1-2.1 0-3.2 1.4-5.8 3.9 0-1.4.2-2.3.5-3.5.7-1.8 1.4-2.1 2.8-3 1.6-.7 3.7-2.1 3.7-3.5 0-.9-.7-2.1-1.6-2.1-1.6 0-2.8.2-4.8 3.9.2-1.8.2-2.8.9-4.1s1.6-3.7 1.8-5.5c.2-2.3-.5-4.1-2.3-4.1-1.4 0-3.2.9-3.2 3 0 1.8.5 3 .9 5.3.2 1.4.2 3.9.2 6-.9-2.3-1.8-4.8-3.5-4.8-.7 0-2.3.9-2.3 1.8s1.6 3.5 3.9 5.1c.7.5 1.2 3.2 1.2 5.1-.5-.7-2.8-4.4-3.7-4.4-1.4 0-2.5.9-2.5 1.8 0 2.3 3 4.1 4.6 6 .9.9 1.2 6 1.6 6.2.5.3.9-.2 1.2-.9zm3.4 13.4c0-1.2-1.4-2.8-2.8-2.8-2.5 0-3 2.3-3 3.7s1.8 2.3 3.2 2.3c1.5 0 2.6-1.9 2.6-3.2zm.5-8.8c0-1.2-.7-2.8-2.1-2.8-1.2 0-2.5.9-2.5 2.3s.7 2.5 2.1 2.5c1.3.1 2.5-.6 2.5-2zM263 418.3c0 1.2-.9 1.8-2.8 1.8-6.4 0-15.2-3-20.9-8.3-3.7 3.9-15.6 10.4-20.5 10.4-.9 0-1.6-1.2-1.8-3.2 0-3-1.4-11.7-1.2-14.5.2-3.7 3-5.1 5.1-7.1-1.4-3.9-4.4-9.7-8.7-18.4-1.8-4.1-3.9-7.4-6.2-12-3 5.5-5.3 10.1-6.2 12.2-1.4 2.5-3.5 7.6-7.1 15.4.2 4.1 3.5 3 4.1 7.6.7 4.8 1.2 11.5 1.2 15 0 1.8-1.6 3.2-2.8 3.2-1.8 0-15.6-2.3-20.9-8.5-5.1 4.4-18.2 8.3-21.4 8.3-2.3 0-2.5-1.4-2.5-2.8s.9-6.4 1.6-9.4c.9-4.4 1.8-11.7 5.1-12.9 2.5-.9 5.1-.2 6.9-3.7 2.3-4.4 9.4-17 12-22.3l15.4-31.3c-6-11.5-12.4-23.7-15-28.8-2.8-5.5-9-16.8-11.5-21.2-3.5-.9-6.4-.5-7.6-2.5-1.2-1.8-1.8-4.4-3.2-9.4-1.6-5.8-3.2-9.7-3.2-11.7 0-.9 2.1-2.3 3.9-2.3 4.1 0 14 1.4 18.6 6.2 5.1-5.5 13.6-9.9 17-9.9s4.1 2.5 4.4 4.4c0 3.5.5 10.4.7 14.5 0 1.8-3.2 3.5-3.5 6.4l6.2 12.2c1.2 2.1 4.6 9.7 7.8 15.9 4.8-9.4 10.8-21.6 13.8-27.6-.5-1.6-6-3.2-6-5.1 0-2.8 1.6-13.8 1.6-17 0-1.4 1.6-3.9 3.7-3.9s7.6 2.1 10.6 3.5c2.1.9 4.4 3.9 7.6 7.1 3.9-4.6 16.1-9 22.1-9 .9 0 2.5.5 2.5 1.4 0 3.2-1.2 9-2.1 12.2-1.6 7.6-2.5 10.8-4.8 11.5-2.3.7-3.9.9-6.7 2.3-4.1 7.1-8.5 15.4-12 22.1-3.9 7.1-9.2 17.5-13.3 25.5-.5.7-1.2 2.3-2.3 4.4 4.8 9 11.7 21.9 16.6 32.2 1.8 4.1 6.4 13.1 11 20.7 1.8 3 5.5 3.9 7.6 4.6 2.3.7 3.5 6.4 4.6 10.8 1.4 4.8 2.5 9.9 2.5 11zm-85.6-23c2.5-4.8 6.2-11.5 6.2-12.2 0-.5-.5-.7-1.2-.7-.9 0-4.4 8.1-7.6 13.1-8.3 10.4-14.7 8.7-14.7 9.9 0 .9.5 1.4 1.4 1.4 1.2 0 9-2.1 14.5-9.2.9 2.8 3 5.5 4.6 7.1 2.3 2.3 5.1 3.5 6 3.5.5 0 .9-.5.9-1.2s-3-1.4-5.1-3.5c-1.8-1.7-4.3-4.5-5-8.2zm10.4-124.9c0-.7-.5-1.2-.9-1.2-.9 0-3.7 2.1-6 4.1-1.6 1.6-3.7 3.9-4.6 6-6-4.6-12.9-7.4-14-7.4-.9 0-1.2.5-1.2 1.4 0 1.2 6.2 1.6 14 7.8 10.8 19.6 23 43.3 23.9 43.3.7 0 1.2-.5 1.2-1.4 0-.5-2.5-4.4-5.3-9.7-5.3-10.1-14.3-26-17-32.2 1.4-3 3-4.6 4.8-6.4 2.3-2.3 5.1-3.4 5.1-4.3zm8.9 81.9c-2.1.7-3.7.9-5.1 1.2-1.2.2-3 .9-3 2.5 0 .7.9 1.8 1.6 1.8 2.1 0 4.6-1.2 5.5-1.6-.9 1.6-3 3.7-3.7 3.7-4.4 0-6.4 1.4-6.4 2.3 0 .9.7 2.3 1.6 2.3 1.6 0 3.5-.9 5.3-2.3-1.2 1.8-2.3 3.7-3.2 4.6-1.8 2.1-3.9 3-3.9 5.5 0 2.1 1.4 3.5 2.3 3.5 1.8 0 2.8-.7 3.7-2.8.9-2.3.5-3.7.9-5.3.5-1.6.7-2.5 1.4-4.1-.5 4.1 1.2 6.2 2.5 6.2.9 0 2.1-.7 2.1-1.6 0-1.4-.5-2.8-1.2-4.4-.7-1.6-.9-3.2-.9-3.7 0-1.2.7-2.3 1.4-3.5 0 3.5 1.6 6 2.8 6 .7 0 2.3-.5 2.3-1.2 0-1.8-.5-3-1.8-5.1-.7-.9-1.2-1.8-1.2-2.3 0-.7 1.2-3.7 1.6-5.1.2-.7-.2-1.6-.7-1.6-.2.1-2.7 4.7-3.9 5zm8.1-20.7c0-1.6-1.2-2.8-2.5-2.8-1.2 0-2.3 1.4-2.3 2.8s.9 2.5 2.3 2.5c1.3 0 2.5-1.2 2.5-2.5zm.4 9.6c0-1.2-.9-2.8-2.8-2.8-1.2 0-2.5.9-2.5 2.3s1.4 3 2.8 3c1.4.1 2.5-1.1 2.5-2.5zm8.3-4.1c0-1.8-1.8-3-3.2-3-1.8 0-2.5 2.1-2.5 3.5s1.8 2.3 3.2 2.3c1.4 0 2.5-1.4 2.5-2.8zm1.4-12.9c2.1-.5 4.1-.7 5.1-.9 1.4-.5 3.2-1.4 3.2-2.5 0-.7-1.2-2.1-1.8-2.1-1.8 0-4.4 1.2-5.3 1.6.9-1.6 3.2-3.7 3.9-3.7 3.5 0 6.4-1.2 6.4-2.1 0-.9-.2-2.5-1.2-2.5-1.6 0-3.9.9-5.8 2.3 1.2-1.8 2.5-3.9 3.5-4.6 2.1-1.6 4.1-3.2 4.1-5.1 0-2.1-.9-3.5-2.1-3.5-1.8 0-3 .7-3.9 2.8-.9 2.3-.2 3.7-.9 5.3-.7 1.6-1.2 2.1-1.8 3.7.5-4.1-.9-6.2-2.5-6.2-.9 0-2.1.7-2.1 1.6 0 1.6.5 2.8 1.4 4.4.5.9.9 1.6.9 2.5 0 1.4-1.2 3.5-1.8 4.6-.7-3.5-.9-6.7-2.5-6.7s-2.3 1.2-2.3 1.8c0 2.1.7 2.5 2.1 4.6.7.9.9 2.1.9 2.5 0 .7-1.2 3.2-1.2 3.7 0 .7.2.9.7.9.5.1 1.9-2.2 3-2.4zm10.1 84.5c0 .7.5 1.4.9 1.4.9 0 3.2-1.8 5.8-3.9 1.8-1.6 4.4-4.1 5.3-6.2 4.1 4.8 13.1 8.1 14.5 8.1.9 0 1.2-.5 1.2-1.4 0-1.2-8.3-1.8-14.7-9-16.1-29.7-25.5-50.6-26.5-50.6-.7 0-1.2.5-1.2 1.4 0 1.4 23.2 45.1 25.1 49.2-.7 3-3.7 5.8-5.5 7.4-2.1 1.7-4.9 2.6-4.9 3.6zm8.3-125.2c-2.3 4.1-5.8 10.1-5.8 10.8 0 .9.7.9 1.4.9.9 0 3.7-6.9 6.9-12 9.2-9.2 15.4-8.3 15.4-9.4 0-.9-.5-1.4-1.4-1.4-2.1 0-8.1 2.1-15.2 8.7-.9-2.5-2.1-3.9-3.7-5.5-2.3-2.3-4.8-3.9-5.8-3.9-.5 0-.9.5-.9 1.2s2.8 2.1 4.8 3.9c2 1.6 3.6 3.7 4.3 6.7zM378.8 280.9c-.9 3.2-4.8 3.9-8.7 5.8-2.1 4.8-5.3 11.5-8.1 18.4-1.6 4.1-6 14.3-10.4 23.5-3.5 7.4-8.5 19.1-11.3 25.5v15.2c0 7.8.5 16.3.5 24.2 1.2 3.2 8.5 3 9.4 9.9 1.2 8.7 1.8 12.7 1.8 14.7 0 1.6-.9 2.5-3 2.5-4.8 0-17-5.8-19.6-7.6-9.4 6-16.8 9.7-20.5 9.7-2.3 0-2.5-2.3-2.5-4.4 0-2.5.5-12.2.7-15.6.2-3.9 7.8-5.1 8.1-7.8 0-3.2.2-11.7.2-21.9 0-4.4.2-12.4 0-20.3-2.8-4.4-8.3-15.2-10.4-19.1-5.5-10.6-18.2-34.7-24.6-48.6-1.8-.9-5.3-2.1-7.6-3-2.1-.9-2.5-7.4-3.2-10.6-.9-4.1-2.3-8.5-2.3-11 0-1.4 1.6-2.3 3.5-2.3 6.2 0 14.7 3.9 19.1 6.4 4.6-3.7 13.3-8.5 18.4-8.5 2.3 0 2.8 3 2.8 4.1 0 5.3-.7 13.1-.7 14.7 0 3.5-4.4 3.5-4.4 5.8 2.5 4.6 6.9 16.1 10.4 22.8 3 5.8 9.4 17.3 11 19.6 3.9-8.1 10.4-23.7 11.3-25.8 2.1-4.8 4.6-10.8 5.8-14-1.8-3.5-5.3-5.3-5.3-7.4 0-1.8.9-8.1.9-13.6 0-2.8 1.4-3.9 3.2-3.9 5.3 0 11.7 3.7 17.7 10.6 9.4-6.2 16.1-7.8 19.6-7.8 1.6 0 2.3.9 2.3 3 0 2.3-3 12.7-4.1 16.8zM302.1 269c0-.7-.5-1.2-.9-1.2-.9 0-3.7 1.4-5.8 3.2-1.6 1.4-3 2.5-4.6 4.8-4.1-3.5-11.5-5.5-12.4-5.5-.9 0-1.2.7-1.2 1.4s7.8 1.8 12.4 6c6.7 13.1 14 28.5 14.5 28.5.7 0 1.4-.5 1.4-1.2s-8.3-16.6-13.3-27.4c1.6-2.3 3.2-3.9 4.8-5.3 2.4-1.9 5.1-2.9 5.1-3.3zm20 63.9c0-2.1 1.6-5.3 1.6-6.9 0-.7-.9-1.8-1.6-1.8-.7 0-1.4.5-1.6.7-1.6 1.6-1.4 4.8-1.4 5.5-.7-.9-1.4-3.2-1.4-4.1 0-.9 1.8-3.7 1.8-5.8 0-1.4-.5-2.5-2.1-2.5-2.3 0-2.1 3.9-1.8 6.7-1.2-1.8-2.1-4.1-2.3-5.5-.5-2.3-.5-3.7-1.6-5.1-.9-1.2-2.3-1.6-3.2-1.6-1.2 0-2.1 1.6-2.1 3 0 .7.5 1.6 1.2 2.5 1.4 2.1 3 2.3 4.1 3.5l2.3 3.5c-2.1-1.4-3.7-1.8-4.6-1.8-1.2 0-2.5.9-2.5 1.8 0 2.8 3.5 2.8 5.1 2.8 1.8 0 2.5.2 3.9 1.6.7.7 1.2 1.6 1.8 2.8-2.1-.7-3.7-1.4-5.1-1.4-2.3 0-2.5 1.2-2.5 1.8 0 1.6 1.8 2.3 3.2 2.3.9 0 3.7-.5 4.6-.5.9 0 1.8 1.6 3.2 3 .5.5.9.5 1.6.5.1-1.3-.6-3.6-.6-5zm8.1 67l-.2-4.8c0-1.6-.2-2.3-.9-2.3s-.9.5-.9 1.6v5.8c-4.8 6.2-12 7.6-12 8.7 0 .5.2 1.2.7 1.2.7 0 9.9-4.1 12.2-8.3 1.4 1.6 3.5 3.2 4.6 3.9 3.7 2.3 6.7 3.7 7.6 3.7.5 0 .9-.5.9-1.2 0-.5-3-1.6-4.6-2.5-2.1-1.2-5.8-3.5-7.4-5.8zm-4.4-49.7c0-1.2-.7-2.8-2.5-2.8-1.2 0-2.5.9-2.5 2.3s.9 2.8 2.3 2.8c1.3 0 2.7-.9 2.7-2.3zm0 11.7c-1.4 1.4-2.3 1.6-3.2 2.5-.7.7-1.8 1.8-1.8 3.5 0 .7 1.6 1.6 2.3 1.6 1.4 0 3.2-1.8 4.1-4.4 0 1.8-.9 5.1-1.6 5.5-2.8 1.8-4.4 3.9-4.4 5.1 0 .9 1.4 1.6 2.3 1.6 1.6 0 2.8-2.8 3.7-4.8 0 2.1-.2 4.6-.7 5.8-.9 2.3-1.4 3.5-1.4 5.3 0 2.1 1.6 3.2 3 3.2s2.8-1.6 2.8-3.9-.9-4.1-1.4-5.8c-.5-1.4-.5-2.3-.7-4.1 1.8 3.9 3.2 4.1 4.8 4.1.9 0 1.6-.9 1.6-1.8 0-1.6-1.8-2.8-3.5-3.7-1.4-.9-2.1-1.4-2.5-3.2-.2-1.2-.2-2.1-.2-3.5 2.3 2.8 3.5 4.4 5.5 4.4.7 0 1.6-1.2 1.6-1.8 0-1.6-2.3-2.8-4.6-3.7-1.2-.5-2.1-1.2-2.1-1.6 0-.9-.2-2.1-.7-3.5-.2-.7-.7-1.2-1.2-1.2-.3.1-.8 3.5-1.7 4.4zm5.1-19.3c0-1.2-1.4-2.8-2.8-2.8-1.8 0-2.5 1.8-2.5 3.2 0 1.4 1.4 2.3 2.8 2.3 1.3.1 2.5-1.3 2.5-2.7zm4.6 8.1c0-1.6-1.4-2.8-2.8-2.8-1.8 0-2.8 1.8-2.8 3.2s1.6 2.3 3 2.3 2.6-1.4 2.6-2.7zm-1.8-13.4c1.4-1.4 2.3-3 3.2-3 .9 0 3.5.9 4.4.9 1.4 0 3.2-.7 3.2-2.3 0-.7 0-2.3-2.3-2.3-1.4 0-3 .7-5.1 1.4.7-1.2 1.2-2.1 1.8-2.8.9-.9 2.1-1.2 3.9-1.2 1.6 0 5.1-.2 5.1-3 0-.9-1.4-2.1-2.5-2.1-.9 0-2.5.5-4.6 1.8.9-1.4 1.4-2.5 2.3-3.5 1.4-1.4 4.8-3.5 4.8-6 0-1.4-.7-3-1.8-3-1.4 0-2.8.5-3.5 1.6-.9 1.6-.7 2.8-1.2 5.1-.2 1.4-1.2 3.7-2.3 5.5.2-2.8.5-6.7-1.8-6.7-1.6 0-2.1 1.2-2.1 2.5 0 2.1 1.8 4.8 1.8 5.8 0 .9-1.2 3.5-1.8 4.4 0-2.1 0-4.8-.9-5.8-.2-.2-.9-.7-1.6-.7s-1.8.5-1.8 2.1 2.3 4.8 2.3 6.9c0 1.4-1.2 3.5-1.2 4.6.7.3 1.2.3 1.7-.2zm23.4-54.7c-4.6 11.3-9 22.1-9 22.8 0 .7.7 1.2 1.4 1.2.5 0 1.6-3.5 3.2-7.4 2.5-6 5.5-14 6.9-17 8.1-7.4 14.7-7.4 14.7-8.3 0-.5-.5-1.4-1.4-1.4-1.6 0-9.4 2.8-14.3 7.8-.9-2.1-2.3-4.1-3.9-5.8-2.3-2.3-4.8-3.9-5.8-3.9-.5 0-.9.2-.9.9s2.8 2.1 4.8 3.9c2 1.6 3.6 4.8 4.3 7.2zM495 256.3c0 3-.9 9.9-6.7 18.2 2.8 4.6 5.8 10.1 5.8 16.3 0 1.8-1.8 2.5-3.9 2.5-1.8 0-3-.5-6.7-.5l-9.2 16.6c-8.1 15.2-17.9 34.1-22.6 43-4.4 8.5-11.7 21.9-20.7 38.9 3 0 7.4.2 11.3.2 9.2 0 15.4-.5 25.8-.7 2.3-4.1 2.3-8.5 6.9-8.5 4.1 0 15.6-.9 17.9-.9 2.1 0 2.8 1.6 2.8 2.8 0 2.1-3.9 9.9-9.4 18.6 2.8 2.3 6.9 16.8 6.9 20 0 1.6-2.8 2.1-3.9 2.1-2.5 0-9.7-.5-15.2-.5-3 0-3.5-4.6-6-7.1h-23.9c-9.7 0-23.5.2-28.1.2-1.8.7-3.5 6.2-6.2 6.2-5.3 0-15.9.7-16.8.7-1.8 0-3.2-.7-3.2-2.1 0-1.8 5.5-15.2 7.6-17-4.6-3.7-8.5-12-8.5-16.1 0-2.1.7-3.5 1.8-3.5 2.8 0 9.2.2 11.5.2l10.8-19.6c8.1-14.5 24.6-44.9 27.8-51.1l15.2-29c-8.5.2-14.7.2-19.3.5-7.6.5-13.6.7-18.2.7-.7 1.6-2.8 8.7-5.3 9-8.3.7-15.2 1.2-17 1.2-2.8 0-4.1-.7-4.1-1.6 0-1.4.7-5.1 1.4-7.1 1.2-3.7 3.5-9.4 5.3-11.3-7.6-6.2-8.3-16.3-8.3-19.1 0-1.6 2.1-2.5 4.8-2.5 3 0 11.7-.5 16.6-.5 1.8 0 3 6.4 5.3 6.4 7.4 0 20.3-.5 26.2-.5 4.8 0 23.9-.5 27.2-.7 2.5-2.5 3.5-5.5 6.4-5.5 1.8 0 12.2-.7 15.9-.7 1.3.2 2 .9 2 1.8zm-16.6 155.8c.9 1.4 1.6 4.4 2.3 4.4.7 0 1.4-.5 1.4-.9 0-1.4-3.2-8.7-7.4-12 5.5-5.5 7.1-12 7.1-12.7 0-.9-.5-1.4-1.2-1.4-1.2 0-2.1 7.8-8.3 13.1h-61.9c3.2-6.2 11.3-20.9 11.3-21.9 0-.7-.5-1.2-1.2-1.2-.5 0-.9.5-1.2 1.2-1.4 4.1-5.8 11.3-10.8 21.2-1.4-.9-3.2-2.8-4.4-4.6-1.4-2.3-2.1-3.9-2.8-3.9-.9 0-1.2.7-1.2.9 0 .9 3.5 6.4 6.9 9.2-2.8 3.2-4.6 9.7-4.6 10.8 0 .7.5 1.2.9 1.2.9 0 1.4-3 2.3-5.3 1.2-2.8 1.8-3.7 3-5.3h63.3c2.6 1 5.1 5.1 6.5 7.2zm-72.3-144.7c-.9-1.4-1.8-4.6-2.5-4.6s-1.4.5-1.4.9c0 1.2 1.8 4.1 3.5 6.9.7 1.2 2.8 3.2 4.4 4.6-5.5 5.5-7.1 12-7.1 12.7 0 .9.2 1.4 1.2 1.4 1.2 0 1.6-7.8 8.3-13.1 15.9-.7 51.1-1.2 62.8-1.6-3.2 6.2-11 20.7-11 22.1 0 .7.2 1.4.9 1.4s1.8-2.3 2.1-2.8c2.5-5.1 5.1-9.9 9.9-19.8 1.4.9 3 2.5 4.1 4.4 1.6 2.5 2.5 3.9 3 3.9.9 0 .9-.7.9-.9 0-.9-3.5-6.7-6.9-9.2 1.4-2.1 4.8-9.7 4.8-10.8 0-.7-.7-1.2-1.2-1.2-.9 0-1.6 2.8-2.5 5.1-.9 2.1-1.6 3.9-2.8 5.5-12.9.5-41.2.9-63.5 1.6-2.4-.3-5.6-4.5-7-6.5zm32.7 80c-.5 0-3.5 4.4-4.8 4.6-1.8.5-3.7.7-4.8.9-1.6.2-3.2 1.2-3.2 2.8 0 .7 1.2 1.6 1.8 1.6 2.1 0 4.8-1.2 5.5-1.4-.9 1.6-3 3.5-3.9 3.5-3.2 0-6.7 1.4-6.7 2.3 0 .9.7 2.5 1.6 2.5 1.6 0 3.7-.9 5.5-2.3-.9 1.8-2.5 3.9-3.5 4.6-2.1 1.4-3.7 2.8-3.9 4.6-.2 2.1.9 3.9 1.8 3.9 1.2 0 3.2-.7 3.9-3 .7-2.1.5-3.7.9-5.3.5-1.4 1.2-2.3 1.8-3.7.2 4.4 1.4 6.2 2.5 6.2.9 0 2.3-.7 2.3-1.4 0-2.1-.5-3-1.4-4.6-.5-1.4-.7-2.8-.7-3.9 0-.5.7-2.1 1.4-3.2.5 3.7 1.6 6.4 2.8 6.4 1.4 0 2.3-.9 2.3-1.6 0-1.4-.7-2.5-2.1-4.6-.7-1.2-1.2-1.8-1.2-2.3s2.5-5.3 2.5-6c.3-.1.1-.6-.4-.6zm-.9-3.9c1.4 0 2.8-1.2 2.8-2.5 0-1.2-.7-2.8-2.1-2.8-1.6 0-3 .9-3 2.3s.9 3 2.3 3zm5.7-7.3c1.4 0 2.5-1.4 2.5-2.8 0-1.2-1.4-2.8-2.8-2.8-1.2 0-2.8 1.2-2.8 3.2.2 1.4 1.8 2.4 3.1 2.4zm4.7 8.3c1.4 0 2.5-1.4 2.5-2.8 0-1.2-1.4-2.8-2.8-2.8-1.2 0-2.8 1.4-2.8 3.2.1 1.4 1.7 2.4 3.1 2.4zm.2-14.5c.2 0 2.3-3.5 3.7-3.7 1.8-.2 3.5 0 4.6 0 2.1 0 3.2-1.2 3.2-2.3 0-.7-.9-2.1-1.6-2.1-2.1 0-4.8 1.2-5.5 1.4.9-1.6 3-3.5 3.9-3.5 3.2 0 6.2-1.8 6.2-2.8 0-.9-.7-2.3-1.6-2.3-1.6 0-3.2 1.2-5.1 2.5.9-1.8 2.5-3.9 3.5-4.6 2.1-1.4 3.9-3 3.9-5.3 0-2.1-.7-3.2-1.8-3.2-2.1 0-3.2.7-3.9 3-.7 2.1-.5 3.5-.9 5.1-.5 1.4-.9 2.1-1.8 3.9.2-4.4-1.6-6.2-2.8-6.2-.9 0-2.3.7-2.3 1.4 0 1.8.7 3 1.6 4.6.5.7.7 1.4.9 1.8 0 1.4-.5 2.8-1.8 5.3-.5-3.7-1.4-6.7-2.5-6.7-1.4 0-2.5.9-2.5 1.6 0 1.6.9 2.8 2.3 4.8.7 1.2 1.2 1.8 1.2 2.3 0 .9-1.2 2.5-1.2 3.5-.2.8-.2 1.5.3 1.5z"/></svg>